SourceSerif-Italic_0.ufo
<glyph name="numbersign" format="1">
	<unicode hex="0023"/>
	<advance width="510"/>
	<outline>
		<contour>
			<point x="84" y="0" type="line"/>
			<point x="106" y="0" type="line"/>
			<point x="278" y="654" type="line"/>
			<point x="256" y="654" type="line"/>
		</contour>
		<contour>
			<point x="42" y="235" type="line"/>
			<point x="37" y="208" type="line"/>
			<point x="468" y="208" type="line"/>
			<point x="473" y="235" type="line"/>
		</contour>
		<contour>
			<point x="529" y="444" type="line"/>
			<point x="534" y="470" type="line"/>
			<point x="103" y="470" type="line"/>
			<point x="98" y="444" type="line"/>
		</contour>
		<contour>
			<point x="285" y="0" type="line"/>
			<point x="307" y="0" type="line"/>
			<point x="479" y="654" type="line"/>
			<point x="457" y="654" type="line"/>
		</contour>
	</outline>
</glyph>
<glyph name="ampersand" format="2">
	<unicode hex="0026"/>
	<advance width="668"/>
	<outline>
		<contour>
			<point x="296" y="-13" type="curve" smooth="yes"/>
			<point x="429" y="-13"/>
			<point x="522" y="57"/>
			<point x="522" y="178" type="curve" smooth="yes"/>
			<point x="522" y="239"/>
			<point x="489" y="288"/>
			<point x="431" y="304" type="curve"/>
			<point x="431" y="296" type="line"/>
			<point x="575" y="294"/>
			<point x="660" y="351"/>
			<point x="702" y="461" type="curve"/>
			<point x="676" y="470" type="line"/>
			<point x="634" y="363"/>
			<point x="569" y="313"/>
			<point x="397" y="313" type="curve"/>
			<point x="393" y="292" type="line"/>
			<point x="449" y="280"/>
			<point x="501" y="242"/>
			<point x="501" y="175" type="curve" smooth="yes"/>
			<point x="501" y="75"/>
			<point x="423" y="10"/>
			<point x="297" y="10" type="curve" smooth="yes"/>
			<point x="162" y="10"/>
			<point x="87" y="96"/>
			<point x="87" y="199" type="curve" smooth="yes"/>
			<point x="87" y="297"/>
			<point x="149" y="396"/>
			<point x="275" y="407" type="curve"/>
			<point x="247" y="435"/>
			<point x="227" y="472"/>
			<point x="227" y="521" type="curve" smooth="yes"/>
			<point x="227" y="600"/>
			<point x="282" y="672"/>
			<point x="395" y="672" type="curve" smooth="yes"/>
			<point x="421" y="672"/>
			<point x="451" y="668"/>
			<point x="471" y="657" type="curve"/>
			<point x="440" y="678" type="line"/>
			<point x="469" y="625" type="line" smooth="yes"/>
			<point x="478" y="609"/>
			<point x="486" y="605"/>
			<point x="496" y="605" type="curve" smooth="yes"/>
			<point x="506" y="605"/>
			<point x="512" y="610"/>
			<point x="513" y="621" type="curve"/>
			<point x="497" y="664"/>
			<point x="464" y="690"/>
			<point x="395" y="690" type="curve" smooth="yes"/>
			<point x="264" y="690"/>
			<point x="201" y="603"/>
			<point x="201" y="519" type="curve" smooth="yes"/>
			<point x="201" y="436"/>
			<point x="254" y="368"/>
			<point x="314" y="368" type="curve" smooth="yes"/>
			<point x="334" y="368"/>
			<point x="342" y="380"/>
			<point x="342" y="392" type="curve" smooth="yes"/>
			<point x="342" y="407"/>
			<point x="311" y="421"/>
			<point x="279" y="421" type="curve" smooth="yes"/>
			<point x="158" y="421"/>
			<point x="59" y="324"/>
			<point x="59" y="199" type="curve" smooth="yes"/>
			<point x="59" y="82"/>
			<point x="135" y="-13"/>
		</contour>
	</outline>
</glyph>
<glyph name="quotesingle" format="1">
	<unicode hex="0027"/>
	<advance width="194"/>
	<outline>
		<contour>
			<point x="216" y="747" type="curve" smooth="yes"/>
			<point x="204" y="747"/>
			<point x="194" y="739"/>
			<point x="190" y="720" type="curve" smooth="yes"/>
			<point x="184" y="688"/>
			<point x="180" y="649"/>
			<point x="172" y="586" type="curve" smooth="yes"/>
			<point x="156" y="470" type="line"/>
			<point x="172" y="470" type="line"/>
			<point x="216" y="656"/>
			<point x="231" y="712"/>
			<point x="231" y="725" type="curve" smooth="yes"/>
			<point x="231" y="737"/>
			<point x="226" y="747"/>
		</contour>
	</outline>
</glyph>
<glyph name="plus" format="1">
	<unicode hex="002B"/>
	<advance width="530"/>
	<outline>
		<contour>
			<point x="281" y="98" type="line"/>
			<point x="309" y="98" type="line"/>
			<point x="309" y="569" type="line"/>
			<point x="281" y="569" type="line"/>
		</contour>
		<contour>
			<point x="520" y="323" type="line"/>
			<point x="520" y="349" type="line"/>
			<point x="70" y="349" type="line"/>
			<point x="70" y="323" type="line"/>
		</contour>
	</outline>
</glyph>
<glyph name="one" format="1">
	<unicode hex="0031"/>
	<advance width="510"/>
	<outline>
		<contour>
			<point x="196" y="618" type="line"/>
			<point x="192" y="598" type="line"/>
			<point x="358" y="635" type="line"/>
			<point x="350" y="648" type="line"/>
			<point x="218" y="0" type="line"/>
			<point x="245" y="0" type="line"/>
			<point x="258" y="70"/>
			<point x="273" y="142"/>
			<point x="287" y="213" type="curve" smooth="yes"/>
			<point x="347" y="509" type="line"/>
			<point x="381" y="655" type="line"/>
			<point x="370" y="667" type="line"/>
		</contour>
		<contour>
			<point x="244" y="26" type="line"/>
			<point x="228" y="26" type="line"/>
			<point x="71" y="20" type="line"/>
			<point x="66" y="0" type="line"/>
			<point x="400" y="0" type="line"/>
			<point x="404" y="20" type="line"/>
		</contour>
	</outline>
</glyph>
<glyph name="at" format="2">
	<unicode hex="0040"/>
	<advance width="835"/>
	<outline>
		<contour>
			<point x="354" y="54" type="curve" smooth="yes"/>
			<point x="426" y="54"/>
			<point x="485" y="131"/>
			<point x="545" y="216" type="curve"/>
			<point x="541" y="223" type="line"/>
			<point x="472" y="138"/>
			<point x="421" y="76"/>
			<point x="360" y="76" type="curve" smooth="yes"/>
			<point x="320" y="76"/>
			<point x="291" y="102"/>
			<point x="291" y="173" type="curve" smooth="yes"/>
			<point x="291" y="302"/>
			<point x="396" y="465"/>
			<point x="522" y="465" type="curve" smooth="yes"/>
			<point x="546" y="465"/>
			<point x="567" y="457"/>
			<point x="584" y="430" type="curve"/>
			<point x="591" y="448" type="line"/>
			<point x="577" y="475"/>
			<point x="554" y="485"/>
			<point x="524" y="485" type="curve" smooth="yes"/>
			<point x="395" y="485"/>
			<point x="263" y="311"/>
			<point x="263" y="166" type="curve" smooth="yes"/>
			<point x="263" y="81"/>
			<point x="306" y="54"/>
		</contour>
		<contour>
			<point x="560" y="54" type="curve" smooth="yes"/>
			<point x="664" y="54"/>
			<point x="820" y="160"/>
			<point x="820" y="382" type="curve" smooth="yes"/>
			<point x="820" y="535"/>
			<point x="720" y="664"/>
			<point x="526" y="664" type="curve" smooth="yes"/>
			<point x="279" y="664"/>
			<point x="54" y="466"/>
			<point x="54" y="159" type="curve" smooth="yes"/>
			<point x="54" y="-24"/>
			<point x="162" y="-155"/>
			<point x="363" y="-155" type="curve" smooth="yes"/>
			<point x="436" y="-155"/>
			<point x="497" y="-141"/>
			<point x="556" y="-112" type="curve"/>
			<point x="552" y="-97" type="line"/>
			<point x="494" y="-123"/>
			<point x="444" y="-135"/>
			<point x="370" y="-135" type="curve" smooth="yes"/>
			<point x="187" y="-135"/>
			<point x="82" y="-15"/>
			<point x="82" y="163" type="curve" smooth="yes"/>
			<point x="82" y="460"/>
			<point x="290" y="644"/>
			<point x="525" y="644" type="curve" smooth="yes"/>
			<point x="706" y="644"/>
			<point x="796" y="531"/>
			<point x="796" y="383" type="curve" smooth="yes"/>
			<point x="796" y="177"/>
			<point x="653" y="74"/>
			<point x="568" y="74" type="curve" smooth="yes"/>
			<point x="538" y="74"/>
			<point x="524" y="91"/>
			<point x="537" y="152" type="curve" smooth="yes"/>
			<point x="607" y="480" type="line"/>
			<point x="600" y="485" type="line"/>
			<point x="574" y="452" type="line"/>
			<point x="511" y="152" type="line" smooth="yes"/>
			<point x="500" y="102"/>
			<point x="508" y="54"/>
		</contour>
	</outline>
</glyph>
<glyph name="C" format="1">
	<unicode hex="0043"/>
	<advance width="601"/>
	<outline>
		<contour>
			<point x="361" y="-15" type="curve" smooth="yes"/>
			<point x="423" y="-15"/>
			<point x="472" y="-3"/>
			<point x="537" y="32" type="curve"/>
			<point x="567" y="177" type="line"/>
			<point x="543" y="177" type="line"/>
			<point x="499" y="32" type="line"/>
			<point x="520" y="53" type="line"/>
			<point x="467" y="21"/>
			<point x="419" y="7"/>
			<point x="363" y="7" type="curve" smooth="yes"/>
			<point x="208" y="7"/>
			<point x="97" y="106"/>
			<point x="97" y="285" type="curve" smooth="yes"/>
			<point x="97" y="515"/>
			<point x="239" y="670"/>
			<point x="428" y="670" type="curve" smooth="yes"/>
			<point x="512" y="670"/>
			<point x="558" y="659"/>
			<point x="611" y="619" type="curve"/>
			<point x="595" y="645" type="line"/>
			<point x="586" y="500" type="line"/>
			<point x="610" y="500" type="line"/>
			<point x="632" y="639" type="line"/>
			<point x="574" y="677"/>
			<point x="516" y="692"/>
			<point x="433" y="692" type="curve" smooth="yes"/>
			<point x="224" y="692"/>
			<point x="65" y="529"/>
			<point x="65" y="283" type="curve" smooth="yes"/>
			<point x="65" y="99"/>
			<point x="181" y="-15"/>
		</contour>
		<contour>
			<point name="aboveUC" x="445" y="682" type="move"/>
		</contour>
		<contour>
			<point name="belowLC" x="339" y="-22" type="move"/>
		</contour>
		<contour>
			<point name="baseLC" x="344" y="0" type="move"/>
		</contour>
	</outline>
</glyph>
<glyph name="D" format="2">
	<unicode hex="0044"/>
	<advance width="668"/>
	<outline>
		<contour>
			<point x="11" y="0" type="line"/>
			<point x="129" y="0" type="line"/>
			<point x="134" y="27" type="line"/>
			<point x="127" y="27" type="line"/>
			<point x="15" y="20" type="line"/>
		</contour>
		<contour>
			<point x="115" y="0" type="line"/>
			<point x="149" y="0" type="line"/>
			<point x="165" y="104"/>
			<point x="184" y="209"/>
			<point x="203" y="313" type="curve" smooth="yes"/>
			<point x="271" y="677" type="line"/>
			<point x="238" y="677" type="line"/>
			<point x="221" y="573"/>
			<point x="204" y="468"/>
			<point x="184" y="364" type="curve" smooth="yes"/>
		</contour>
		<contour>
			<point x="125" y="657" type="line"/>
			<point x="245" y="650" type="line"/>
			<point x="252" y="650" type="line"/>
			<point x="257" y="677" type="line"/>
			<point x="129" y="677" type="line"/>
		</contour>
		<contour>
			<point x="129" y="0" type="line"/>
			<point x="253" y="0" type="line" smooth="yes"/>
			<point x="507" y="0"/>
			<point x="655" y="167"/>
			<point x="655" y="393" type="curve" smooth="yes"/>
			<point x="655" y="574"/>
			<point x="544" y="677"/>
			<point x="340" y="677" type="curve" smooth="yes"/>
			<point x="257" y="677" type="line"/>
			<point x="253" y="655" type="line"/>
			<point x="339" y="655" type="line" smooth="yes"/>
			<point x="527" y="655"/>
			<point x="623" y="562"/>
			<point x="623" y="393" type="curve" smooth="yes"/>
			<point x="623" y="180"/>
			<point x="498" y="22"/>
			<point x="244" y="22" type="curve" smooth="yes"/>
			<point x="133" y="22" type="line"/>
		</contour>
	</outline>
	<anchor name="aboveUC" x="413" y="682"/>
	<anchor name="belowLC" x="282" y="-22"/>
</glyph>
<glyph name="G" format="1">
	<unicode hex="0047"/>
	<advance width="664"/>
	<outline>
		<contour>
			<point x="65" y="268" type="curve" smooth="yes"/>
			<point x="65" y="96"/>
			<point x="185" y="-15"/>
			<point x="366" y="-15" type="curve" smooth="yes"/>
			<point x="437" y="-15"/>
			<point x="485" y="2"/>
			<point x="553" y="38" type="curve"/>
			<point x="605" y="320" type="line"/>
			<point x="572" y="320" type="line"/>
			<point x="560" y="246"/>
			<point x="545" y="171"/>
			<point x="533" y="97" type="curve" smooth="yes"/>
			<point x="524" y="42" type="line"/>
			<point x="540" y="58" type="line"/>
			<point x="480" y="22"/>
			<point x="434" y="7"/>
			<point x="363" y="7" type="curve" smooth="yes"/>
			<point x="210" y="7"/>
			<point x="97" y="107"/>
			<point x="97" y="268" type="curve" smooth="yes"/>
			<point x="97" y="510"/>
			<point x="241" y="670"/>
			<point x="436" y="670" type="curve" smooth="yes"/>
			<point x="528" y="670"/>
			<point x="582" y="655"/>
			<point x="637" y="610" type="curve"/>
			<point x="621" y="639" type="line"/>
			<point x="612" y="494" type="line"/>
			<point x="636" y="494" type="line"/>
			<point x="658" y="633" type="line"/>
			<point x="601" y="672"/>
			<point x="536" y="692"/>
			<point x="437" y="692" type="curve" smooth="yes"/>
			<point x="233" y="692"/>
			<point x="65" y="522"/>
		</contour>
		<contour>
			<point x="449" y="300" type="line"/>
			<point x="578" y="293" type="line"/>
			<point x="592" y="293" type="line"/>
			<point x="679" y="300" type="line"/>
			<point x="683" y="320" type="line"/>
			<point x="453" y="320" type="line"/>
		</contour>
		<contour>
			<point name="aboveUC" x="450" y="682" type="move"/>
		</contour>
		<contour>
			<point name="belowLC" x="348" y="-22" type="move"/>
		</contour>
	</outline>
</glyph>
<glyph name="J" format="1">
	<unicode hex="004A"/>
	<advance width="401"/>
	<outline>
		<contour>
			<point x="-29" y="2" type="curve"/>
			<point x="-24" y="-20"/>
			<point x="12" y="-41"/>
			<point x="62" y="-41" type="curve" smooth="yes"/>
			<point x="143" y="-41"/>
			<point x="221" y="27"/>
			<point x="251" y="166" type="curve" smooth="yes"/>
			<point x="259" y="202"/>
			<point x="264" y="227"/>
			<point x="278" y="302" type="curve" smooth="yes"/>
			<point x="348" y="677" type="line"/>
			<point x="316" y="677" type="line"/>
			<point x="292" y="543"/>
			<point x="277" y="448"/>
			<point x="264" y="380" type="curve" smooth="yes"/>
			<point x="229" y="198" type="line" smooth="yes"/>
			<point x="203" y="61"/>
			<point x="158" y="0"/>
			<point x="74" y="-24" type="curve"/>
			<point x="87" y="-28" type="line"/>
			<point x="57" y="-8" type="line" smooth="yes"/>
			<point x="31" y="9"/>
			<point x="12" y="21"/>
			<point x="-6" y="21" type="curve" smooth="yes"/>
			<point x="-20" y="21"/>
			<point x="-27" y="14"/>
		</contour>
		<contour>
			<point x="194" y="657" type="line"/>
			<point x="320" y="650" type="line"/>
			<point x="334" y="650" type="line"/>
			<point x="450" y="657" type="line"/>
			<point x="454" y="677" type="line"/>
			<point x="198" y="677" type="line"/>
		</contour>
		<contour>
			<point name="aboveUC" x="332" y="682" type="move"/>
		</contour>
		<contour>
			<point name="belowLC" x="112" y="-72" type="move"/>
		</contour>
	</outline>
</glyph>
<glyph name="K" format="2">
	<unicode hex="004B"/>
	<advance width="653"/>
	<outline>
		<contour>
			<point x="11" y="0" type="line"/>
			<point x="259" y="0" type="line"/>
			<point x="263" y="20" type="line"/>
			<point x="142" y="27" type="line"/>
			<point x="128" y="27" type="line"/>
			<point x="15" y="20" type="line"/>
		</contour>
		<contour>
			<point x="115" y="0" type="line"/>
			<point x="149" y="0" type="line"/>
			<point x="165" y="104"/>
			<point x="184" y="209"/>
			<point x="203" y="313" type="curve" smooth="yes"/>
			<point x="271" y="677" type="line"/>
			<point x="238" y="677" type="line"/>
			<point x="221" y="573"/>
			<point x="204" y="468"/>
			<point x="184" y="364" type="curve" smooth="yes"/>
		</contour>
		<contour>
			<point x="125" y="657" type="line"/>
			<point x="246" y="650" type="line"/>
			<point x="260" y="650" type="line"/>
			<point x="373" y="657" type="line"/>
			<point x="377" y="677" type="line"/>
			<point x="129" y="677" type="line"/>
		</contour>
		<contour>
			<point x="174" y="240" type="line"/>
			<point x="652" y="677" type="line"/>
			<point x="621" y="677" type="line"/>
			<point x="181" y="275" type="line"/>
		</contour>
		<contour>
			<point x="517" y="0" type="line"/>
			<point x="548" y="0" type="line"/>
			<point x="331" y="394" type="line"/>
			<point x="306" y="372" type="line"/>
		</contour>
		<contour>
			<point x="398" y="0" type="line"/>
			<point x="626" y="0" type="line"/>
			<point x="630" y="20" type="line"/>
			<point x="529" y="27" type="line"/>
			<point x="515" y="27" type="line"/>
			<point x="402" y="20" type="line"/>
		</contour>
		<contour>
			<point x="477" y="657" type="line"/>
			<point x="602" y="650" type="line"/>
			<point x="616" y="650" type="line"/>
			<point x="705" y="657" type="line"/>
			<point x="709" y="677" type="line"/>
			<point x="481" y="677" type="line"/>
		</contour>
	</outline>
	<anchor name="aboveUC" x="416" y="682"/>
	<anchor name="belowLC" x="333" y="-22"/>
</glyph>
<glyph name="R" format="1">
	<unicode hex="0052"/>
	<advance width="633"/>
	<outline>
		<contour>
			<point x="11" y="0" type="line"/>
			<point x="263" y="0" type="line"/>
			<point x="267" y="20" type="line"/>
			<point x="141" y="27" type="line"/>
			<point x="127" y="27" type="line"/>
			<point x="15" y="20" type="line"/>
		</contour>
		<contour>
			<point x="115" y="0" type="line"/>
			<point x="149" y="0" type="line"/>
			<point x="165" y="106"/>
			<point x="184" y="213"/>
			<point x="204" y="319" type="curve" smooth="yes"/>
			<point x="271" y="677" type="line"/>
			<point x="238" y="677" type="line"/>
			<point x="221" y="573"/>
			<point x="204" y="468"/>
			<point x="184" y="364" type="curve" smooth="yes"/>
		</contour>
		<contour>
			<point x="125" y="657" type="line"/>
			<point x="245" y="650" type="line"/>
			<point x="252" y="650" type="line"/>
			<point x="257" y="677" type="line"/>
			<point x="129" y="677" type="line"/>
		</contour>
		<contour>
			<point x="544" y="-5" type="curve" smooth="yes"/>
			<point x="574" y="-5"/>
			<point x="598" y="-2"/>
			<point x="610" y="0" type="curve"/>
			<point x="614" y="18" type="line"/>
			<point x="505" y="22" type="line"/>
			<point x="519" y="14" type="line"/>
			<point x="427" y="224" type="line" smooth="yes"/>
			<point x="397" y="292"/>
			<point x="385" y="316"/>
			<point x="337" y="324" type="curve"/>
			<point x="342" y="319" type="line"/>
			<point x="468" y="323"/>
			<point x="554" y="412"/>
			<point x="554" y="516" type="curve" smooth="yes"/>
			<point x="554" y="619"/>
			<point x="489" y="677"/>
			<point x="352" y="677" type="curve" smooth="yes"/>
			<point x="258" y="677" type="line"/>
			<point x="254" y="655" type="line"/>
			<point x="338" y="655" type="line" smooth="yes"/>
			<point x="476" y="655"/>
			<point x="525" y="600"/>
			<point x="525" y="512" type="curve" smooth="yes"/>
			<point x="525" y="414"/>
			<point x="445" y="336"/>
			<point x="335" y="336" type="curve" smooth="yes"/>
			<point x="193" y="336" type="line"/>
			<point x="190" y="316" type="line"/>
			<point x="284" y="316" type="line" smooth="yes"/>
			<point x="351" y="316"/>
			<point x="367" y="304"/>
			<point x="406" y="211" type="curve" smooth="yes"/>
			<point x="481" y="34" type="line" smooth="yes"/>
			<point x="494" y="2"/>
			<point x="504" y="-5"/>
		</contour>
		<contour>
			<point name="aboveUC" x="344" y="682" type="move"/>
		</contour>
		<contour>
			<point name="belowLC" x="343" y="-22" type="move"/>
		</contour>
	</outline>
</glyph>
<glyph name="S" format="1">
	<unicode hex="0053"/>
	<advance width="514"/>
	<outline>
		<contour>
			<point x="32" y="44" type="line"/>
			<point x="71" y="11"/>
			<point x="130" y="-15"/>
			<point x="206" y="-15" type="curve" smooth="yes"/>
			<point x="336" y="-15"/>
			<point x="433" y="49"/>
			<point x="433" y="160" type="curve" smooth="yes"/>
			<point x="433" y="238"/>
			<point x="393" y="279"/>
			<point x="289" y="356" type="curve" smooth="yes"/>
			<point x="207" y="417"/>
			<point x="178" y="453"/>
			<point x="178" y="523" type="curve" smooth="yes"/>
			<point x="178" y="610"/>
			<point x="257" y="670"/>
			<point x="345" y="670" type="curve" smooth="yes"/>
			<point x="401" y="670"/>
			<point x="438" y="661"/>
			<point x="488" y="628" type="curve"/>
			<point x="477" y="649" type="line"/>
			<point x="464" y="524" type="line"/>
			<point x="486" y="524" type="line"/>
			<point x="511" y="646" type="line"/>
			<point x="457" y="677"/>
			<point x="421" y="692"/>
			<point x="348" y="692" type="curve" smooth="yes"/>
			<point x="246" y="692"/>
			<point x="150" y="632"/>
			<point x="150" y="515" type="curve" smooth="yes"/>
			<point x="150" y="451"/>
			<point x="178" y="403"/>
			<point x="272" y="332" type="curve" smooth="yes"/>
			<point x="368" y="261"/>
			<point x="405" y="228"/>
			<point x="405" y="161" type="curve" smooth="yes"/>
			<point x="405" y="66"/>
			<point x="326" y="7"/>
			<point x="208" y="7" type="curve" smooth="yes"/>
			<point x="139" y="7"/>
			<point x="100" y="24"/>
			<point x="45" y="64" type="curve"/>
			<point x="68" y="40" type="line"/>
			<point x="75" y="165" type="line"/>
			<point x="53" y="165" type="line"/>
		</contour>
		<contour>
			<point name="aboveUC" x="348" y="682" type="move"/>
		</contour>
		<contour>
			<point name="belowLC" x="208" y="-22" type="move"/>
		</contour>
		<contour>
			<point name="baseLC" x="209" y="0" type="move"/>
		</contour>
	</outline>
</glyph>
<glyph name="T" format="2">
	<unicode hex="0054"/>
	<advance width="614"/>
	<outline>
		<contour>
			<point x="90" y="514" type="line"/>
			<point x="114" y="514" type="line"/>
			<point x="164" y="677" type="line"/>
			<point x="146" y="655" type="line"/>
			<point x="642" y="655" type="line"/>
			<point x="632" y="677" type="line"/>
			<point x="620" y="514" type="line"/>
			<point x="644" y="514" type="line"/>
			<point x="665" y="677" type="line"/>
			<point x="131" y="677" type="line"/>
		</contour>
		<contour>
			<point x="151" y="0" type="line"/>
			<point x="403" y="0" type="line"/>
			<point x="407" y="20" type="line"/>
			<point x="281" y="27" type="line"/>
			<point x="267" y="27" type="line"/>
			<point x="155" y="20" type="line"/>
		</contour>
		<contour>
			<point x="255" y="0" type="line"/>
			<point x="289" y="0" type="line"/>
			<point x="305" y="104"/>
			<point x="324" y="209"/>
			<point x="343" y="313" type="curve" smooth="yes"/>
			<point x="411" y="677" type="line"/>
			<point x="378" y="677" type="line"/>
			<point x="361" y="573"/>
			<point x="344" y="468"/>
			<point x="324" y="364" type="curve" smooth="yes"/>
		</contour>
	</outline>
	<anchor name="aboveUC" x="396" y="682"/>
	<anchor name="belowLC" x="272" y="-22"/>
	<anchor name="baseLC" x="274" y="0"/>
</glyph>
<glyph name="X" format="1">
	<unicode hex="0058"/>
	<advance width="643"/>
	<outline>
		<contour>
			<point x="-9" y="0" type="line"/>
			<point x="219" y="0" type="line"/>
			<point x="223" y="20" type="line"/>
			<point x="104" y="27" type="line"/>
			<point x="90" y="27" type="line"/>
			<point x="-5" y="20" type="line"/>
		</contour>
		<contour>
			<point x="60" y="0" type="line"/>
			<point x="90" y="0" type="line"/>
			<point x="344" y="328" type="line"/>
			<point x="336" y="349" type="line"/>
		</contour>
		<contour>
			<point x="117" y="657" type="line"/>
			<point x="213" y="650" type="line"/>
			<point x="227" y="650" type="line"/>
			<point x="345" y="657" type="line"/>
			<point x="348" y="677" type="line"/>
			<point x="120" y="677" type="line"/>
		</contour>
		<contour>
			<point x="470" y="0" type="line"/>
			<point x="502" y="0" type="line"/>
			<point x="224" y="677" type="line"/>
			<point x="192" y="677" type="line"/>
		</contour>
		<contour>
			<point x="350" y="0" type="line"/>
			<point x="578" y="0" type="line"/>
			<point x="582" y="20" type="line"/>
			<point x="483" y="27" type="line"/>
			<point x="469" y="27" type="line"/>
			<point x="354" y="20" type="line"/>
		</contour>
		<contour>
			<point x="340" y="352" type="line"/>
			<point x="347" y="332" type="line"/>
			<point x="616" y="677" type="line"/>
			<point x="587" y="677" type="line"/>
		</contour>
		<contour>
			<point x="456" y="657" type="line"/>
			<point x="572" y="650" type="line"/>
			<point x="586" y="650" type="line"/>
			<point x="684" y="657" type="line"/>
			<point x="687" y="677" type="line"/>
			<point x="459" y="677" type="line"/>
		</contour>
		<contour>
			<point name="aboveUC" x="406" y="682" type="move"/>
		</contour>
		<contour>
			<point name="belowLC" x="281" y="-22" type="move"/>
		</contour>
	</outline>
</glyph>
<glyph name="bracketleft" format="1">
	<unicode hex="005B"/>
	<advance width="281"/>
	<outline>
		<contour>
			<point x="33" y="-159" type="curve"/>
			<point x="65" y="-159" type="line"/>
			<point x="81" y="-54"/>
			<point x="101" y="53"/>
			<point x="121" y="158" type="curve" smooth="yes"/>
			<point x="165" y="398" type="line" smooth="yes"/>
			<point x="185" y="505"/>
			<point x="205" y="612"/>
			<point x="227" y="715" type="curve"/>
			<point x="195" y="715" type="line"/>
			<point x="179" y="610"/>
			<point x="159" y="503"/>
			<point x="139" y="398" type="curve" smooth="yes"/>
			<point x="95" y="158" type="line" smooth="yes"/>
			<point x="75" y="51"/>
			<point x="55" y="-56"/>
		</contour>
		<contour>
			<point x="49" y="-159" type="line"/>
			<point x="180" y="-159" type="line"/>
			<point x="184" y="-137" type="line"/>
			<point x="68" y="-131" type="line"/>
			<point x="54" y="-131" type="line"/>
		</contour>
		<contour>
			<point x="206" y="687" type="line"/>
			<point x="220" y="687" type="line"/>
			<point x="338" y="693" type="line"/>
			<point x="342" y="715" type="line"/>
			<point x="211" y="715" type="line"/>
		</contour>
	</outline>
</glyph>
<glyph name="asciicircum" format="1">
	<unicode hex="005E"/>
	<advance width="530"/>
	<outline>
		<contour>
			<point x="120" y="226" type="line"/>
			<point x="140" y="213" type="line"/>
			<point x="308" y="481" type="line"/>
			<point x="281" y="481" type="line"/>
			<point x="459" y="213" type="line"/>
			<point x="479" y="226" type="line"/>
			<point x="306" y="490" type="line"/>
			<point x="284" y="490" type="line"/>
		</contour>
	</outline>
</glyph>
<glyph name="g" format="1">
	<unicode hex="0067"/>
	<advance width="466"/>
	<outline>
		<contour>
			<point x="58" y="86" type="curve" smooth="yes"/>
			<point x="58" y="59"/>
			<point x="73" y="27"/>
			<point x="129" y="19" type="curve" smooth="yes"/>
			<point x="258" y="1" type="line" smooth="yes"/>
			<point x="354" y="-12"/>
			<point x="372" y="-38"/>
			<point x="372" y="-84" type="curve" smooth="yes"/>
			<point x="372" y="-167"/>
			<point x="276" y="-225"/>
			<point x="160" y="-225" type="curve" smooth="yes"/>
			<point x="64" y="-225"/>
			<point x="13" y="-186"/>
			<point x="13" y="-125" type="curve" smooth="yes"/>
			<point x="13" y="-58"/>
			<point x="60" y="-15"/>
			<point x="142" y="24" type="curve"/>
			<point x="133" y="31" type="line"/>
			<point x="56" y="3"/>
			<point x="-15" y="-53"/>
			<point x="-15" y="-130" type="curve" smooth="yes"/>
			<point x="-15" y="-207"/>
			<point x="49" y="-245"/>
			<point x="155" y="-245" type="curve" smooth="yes"/>
			<point x="305" y="-245"/>
			<point x="399" y="-156"/>
			<point x="399" y="-77" type="curve" smooth="yes"/>
			<point x="399" y="-27"/>
			<point x="371" y="10"/>
			<point x="271" y="24" type="curve" smooth="yes"/>
			<point x="138" y="43" type="line" smooth="yes"/>
			<point x="96" y="49"/>
			<point x="81" y="67"/>
			<point x="81" y="95" type="curve" smooth="yes"/>
			<point x="81" y="117"/>
			<point x="90" y="146"/>
			<point x="139" y="182" type="curve"/>
			<point x="131" y="191" type="line"/>
			<point x="82" y="159"/>
			<point x="58" y="122"/>
		</contour>
		<contour>
			<point x="219" y="167" type="curve" smooth="yes"/>
			<point x="149" y="167"/>
			<point x="115" y="208"/>
			<point x="115" y="283" type="curve" smooth="yes"/>
			<point x="115" y="375"/>
			<point x="180" y="463"/>
			<point x="267" y="463" type="curve" smooth="yes"/>
			<point x="343" y="463"/>
			<point x="371" y="413"/>
			<point x="371" y="339" type="curve" smooth="yes"/>
			<point x="371" y="249"/>
			<point x="303" y="167"/>
		</contour>
		<contour>
			<point x="89" y="277" type="curve" smooth="yes"/>
			<point x="89" y="191"/>
			<point x="140" y="147"/>
			<point x="214" y="147" type="curve" smooth="yes"/>
			<point x="306" y="147"/>
			<point x="379" y="208"/>
			<point x="396" y="344" type="curve" smooth="yes"/>
			<point x="404" y="408"/>
			<point x="414" y="433"/>
			<point x="442" y="471" type="curve"/>
			<point x="419" y="463" type="line"/>
			<point x="426" y="460" type="line"/>
			<point x="438" y="455"/>
			<point x="459" y="452"/>
			<point x="473" y="452" type="curve" smooth="yes"/>
			<point x="494" y="452"/>
			<point x="500" y="460"/>
			<point x="503" y="475" type="curve"/>
			<point x="502" y="484"/>
			<point x="487" y="493"/>
			<point x="472" y="493" type="curve" smooth="yes"/>
			<point x="428" y="493"/>
			<point x="396" y="453"/>
			<point x="383" y="370" type="curve"/>
			<point x="386" y="371" type="line"/>
			<point x="381" y="443"/>
			<point x="336" y="483"/>
			<point x="275" y="483" type="curve" smooth="yes"/>
			<point x="170" y="483"/>
			<point x="89" y="393"/>
		</contour>
		<contour>
			<point name="aboveLC" x="275" y="500" type="move"/>
		</contour>
		<contour>
			<point name="belowLC" x="162" y="-240" type="move"/>
		</contour>
	</outline>
</glyph>
<glyph name="h" format="1">
	<unicode hex="0068"/>
	<advance width="543"/>
	<outline>
		<contour>
			<point x="87" y="-5" type="line"/>
			<point x="108" y="0" type="line"/>
			<point x="121" y="69"/>
			<point x="135" y="138"/>
			<point x="149" y="207" type="curve" smooth="yes"/>
			<point x="178" y="350" type="line"/>
			<point x="179" y="357" type="line"/>
			<point x="257" y="738" type="line"/>
			<point x="247" y="748" type="line"/>
			<point x="106" y="733" type="line"/>
			<point x="103" y="719" type="line"/>
			<point x="232" y="717" type="line"/>
			<point x="225" y="724" type="line"/>
			<point x="213" y="655"/>
			<point x="200" y="586"/>
			<point x="186" y="517" type="curve" smooth="yes"/>
			<point x="81" y="0" type="line"/>
		</contour>
		<contour>
			<point x="397" y="-13" type="curve" smooth="yes"/>
			<point x="452" y="-13"/>
			<point x="496" y="32"/>
			<point x="538" y="92" type="curve"/>
			<point x="528" y="100" type="line"/>
			<point x="486" y="47"/>
			<point x="445" y="13"/>
			<point x="411" y="13" type="curve" smooth="yes"/>
			<point x="392" y="13"/>
			<point x="382" y="20"/>
			<point x="382" y="38" type="curve" smooth="yes"/>
			<point x="382" y="56"/>
			<point x="389" y="80"/>
			<point x="393" y="99" type="curve" smooth="yes"/>
			<point x="445" y="321" type="line" smooth="yes"/>
			<point x="454" y="361"/>
			<point x="462" y="388"/>
			<point x="462" y="419" type="curve" smooth="yes"/>
			<point x="462" y="458"/>
			<point x="441" y="483"/>
			<point x="397" y="483" type="curve" smooth="yes"/>
			<point x="342" y="483"/>
			<point x="242" y="430"/>
			<point x="163" y="344" type="curve"/>
			<point x="161" y="326" type="line"/>
			<point x="271" y="425"/>
			<point x="336" y="458"/>
			<point x="391" y="458" type="curve" smooth="yes"/>
			<point x="419" y="458"/>
			<point x="434" y="445"/>
			<point x="434" y="414" type="curve" smooth="yes"/>
			<point x="434" y="388"/>
			<point x="426" y="356"/>
			<point x="419" y="324" type="curve" smooth="yes"/>
			<point x="367" y="99" type="line" smooth="yes"/>
			<point x="360" y="68"/>
			<point x="355" y="54"/>
			<point x="355" y="28" type="curve" smooth="yes"/>
			<point x="355" y="4"/>
			<point x="373" y="-13"/>
		</contour>
		<contour>
			<point name="aboveLC" x="238" y="730" type="move"/>
		</contour>
		<contour>
			<point name="belowLC" x="249" y="-22" type="move"/>
		</contour>
	</outline>
</glyph>
<glyph name="k" format="1">
	<unicode hex="006B"/>
	<advance width="476"/>
	<outline>
		<contour>
			<point x="77" y="0" type="line"/>
			<point x="83" y="-5" type="line"/>
			<point x="104" y="0" type="line"/>
			<point x="117" y="69"/>
			<point x="131" y="138"/>
			<point x="145" y="207" type="curve" smooth="yes"/>
			<point x="253" y="738" type="line"/>
			<point x="243" y="748" type="line"/>
			<point x="102" y="733" type="line"/>
			<point x="99" y="719" type="line"/>
			<point x="228" y="717" type="line"/>
			<point x="221" y="724" type="line"/>
			<point x="209" y="655"/>
			<point x="196" y="586"/>
			<point x="182" y="517" type="curve" smooth="yes"/>
		</contour>
		<contour>
			<point x="476" y="1" type="curve"/>
			<point x="478" y="15" type="line"/>
			<point x="425" y="16" type="line" smooth="yes"/>
			<point x="392" y="17"/>
			<point x="367" y="27"/>
			<point x="353" y="55" type="curve" smooth="yes"/>
			<point x="303" y="155" type="line" smooth="yes"/>
			<point x="270" y="221"/>
			<point x="246" y="247"/>
			<point x="190" y="261" type="curve" smooth="yes"/>
			<point x="162" y="268" type="line"/>
			<point x="161" y="259" type="line"/>
			<point x="458" y="447" type="line" smooth="yes"/>
			<point x="471" y="455"/>
			<point x="473" y="459"/>
			<point x="473" y="467" type="curve" smooth="yes"/>
			<point x="473" y="473"/>
			<point x="466" y="481"/>
			<point x="457" y="482" type="curve"/>
			<point x="148" y="265" type="line"/>
			<point x="151" y="256" type="line"/>
			<point x="176" y="249" type="line" smooth="yes"/>
			<point x="230" y="234"/>
			<point x="248" y="214"/>
			<point x="276" y="156" type="curve" smooth="yes"/>
			<point x="326" y="54" type="line" smooth="yes"/>
			<point x="345" y="14"/>
			<point x="373" y="-7"/>
			<point x="416" y="-7" type="curve" smooth="yes"/>
			<point x="432" y="-7"/>
			<point x="452" y="-5"/>
		</contour>
		<contour>
			<point name="aboveLC" x="236" y="730" type="move"/>
		</contour>
		<contour>
			<point name="belowLC" x="237" y="-22" type="move"/>
		</contour>
	</outline>
</glyph>
<glyph name="o" format="1">
	<unicode hex="006F"/>
	<advance width="484"/>
	<outline>
		<contour>
			<point x="211" y="-13" type="curve" smooth="yes"/>
			<point x="344" y="-13"/>
			<point x="453" y="141"/>
			<point x="453" y="310" type="curve" smooth="yes"/>
			<point x="453" y="434"/>
			<point x="386" y="483"/>
			<point x="307" y="483" type="curve" smooth="yes"/>
			<point x="169" y="483"/>
			<point x="65" y="311"/>
			<point x="65" y="157" type="curve" smooth="yes"/>
			<point x="65" y="31"/>
			<point x="143" y="-13"/>
		</contour>
		<contour>
			<point x="214" y="7" type="curve" smooth="yes"/>
			<point x="146" y="7"/>
			<point x="93" y="55"/>
			<point x="93" y="162" type="curve" smooth="yes"/>
			<point x="93" y="296"/>
			<point x="181" y="463"/>
			<point x="306" y="463" type="curve" smooth="yes"/>
			<point x="378" y="463"/>
			<point x="425" y="414"/>
			<point x="425" y="302" type="curve" smooth="yes"/>
			<point x="425" y="167"/>
			<point x="332" y="7"/>
		</contour>
		<contour>
			<point name="aboveLC" x="289" y="500" type="move"/>
		</contour>
		<contour>
			<point name="belowLC" x="226" y="-22" type="move"/>
		</contour>
		<contour>
			<point name="hornLC" x="445" y="489" type="move"/>
		</contour>
		<contour>
			<point name="ogonek" x="293" y="1" type="move"/>
		</contour>
	</outline>
</glyph>
<glyph name="p" format="2">
	<unicode hex="0070"/>
	<advance width="528"/>
	<outline>
		<contour>
			<point x="37" y="-245" type="line"/>
			<point x="64" y="-245" type="line"/>
			<point x="78" y="-176"/>
			<point x="92" y="-107"/>
			<point x="119" y="17" type="curve"/>
			<point x="121" y="25" type="line"/>
			<point x="219" y="473" type="line"/>
			<point x="206" y="483" type="line"/>
			<point x="65" y="468" type="line"/>
			<point x="62" y="454" type="line"/>
			<point x="191" y="452" type="line"/>
			<point x="187" y="459" type="line"/>
		</contour>
		<contour>
			<point x="106" y="23" type="line"/>
			<point x="131" y="-3"/>
			<point x="167" y="-13"/>
			<point x="199" y="-13" type="curve" smooth="yes"/>
			<point x="348" y="-13"/>
			<point x="502" y="188"/>
			<point x="502" y="364" type="curve" smooth="yes"/>
			<point x="502" y="452"/>
			<point x="466" y="483"/>
			<point x="412" y="483" type="curve" smooth="yes"/>
			<point x="334" y="483"/>
			<point x="225" y="399"/>
			<point x="162" y="297" type="curve"/>
			<point x="166" y="292" type="line"/>
			<point x="255" y="390"/>
			<point x="334" y="458"/>
			<point x="407" y="458" type="curve" smooth="yes"/>
			<point x="449" y="458"/>
			<point x="474" y="428"/>
			<point x="474" y="356" type="curve" smooth="yes"/>
			<point x="474" y="274"/>
			<point x="441" y="184"/>
			<point x="388" y="116" type="curve" smooth="yes"/>
			<point x="340" y="53"/>
			<point x="275" y="11"/>
			<point x="209" y="11" type="curve" smooth="yes"/>
			<point x="174" y="11"/>
			<point x="142" y="21"/>
			<point x="113" y="48" type="curve"/>
		</contour>
		<contour>
			<point x="-51" y="-245" type="line"/>
			<point x="172" y="-245" type="line"/>
			<point x="175" y="-225" type="line"/>
			<point x="62" y="-219" type="line"/>
			<point x="53" y="-219" type="line"/>
			<point x="-48" y="-225" type="line"/>
		</contour>
	</outline>
	<anchor name="aboveLC" x="329" y="500"/>
	<anchor name="belowLC" x="52" y="-248"/>
</glyph>
<glyph name="q" format="2">
	<unicode hex="0071"/>
	<advance width="496"/>
	<outline>
		<contour>
			<point x="151" y="-13" type="curve" smooth="yes"/>
			<point x="231" y="-13"/>
			<point x="327" y="76"/>
			<point x="396" y="173" type="curve"/>
			<point x="392" y="181" type="line"/>
			<point x="302" y="82"/>
			<point x="231" y="12"/>
			<point x="156" y="12" type="curve" smooth="yes"/>
			<point x="114" y="12"/>
			<point x="89" y="42"/>
			<point x="89" y="114" type="curve" smooth="yes"/>
			<point x="89" y="208"/>
			<point x="136" y="314"/>
			<point x="205" y="384" type="curve" smooth="yes"/>
			<point x="251" y="430"/>
			<point x="307" y="460"/>
			<point x="366" y="460" type="curve" smooth="yes"/>
			<point x="390" y="460"/>
			<point x="418" y="451"/>
			<point x="445" y="427" type="curve"/>
			<point x="452" y="447" type="line"/>
			<point x="429" y="473"/>
			<point x="405" y="483"/>
			<point x="373" y="483" type="curve" smooth="yes"/>
			<point x="222" y="483"/>
			<point x="61" y="282"/>
			<point x="61" y="106" type="curve" smooth="yes"/>
			<point x="61" y="18"/>
			<point x="97" y="-13"/>
		</contour>
		<contour>
			<point x="190" y="-245" type="line"/>
			<point x="413" y="-245" type="line"/>
			<point x="416" y="-225" type="line"/>
			<point x="313" y="-219" type="line"/>
			<point x="304" y="-219" type="line"/>
			<point x="193" y="-225" type="line"/>
		</contour>
		<contour>
			<point x="468" y="477" type="line"/>
			<point x="460" y="483" type="line"/>
			<point x="434" y="441" type="line"/>
			<point x="373" y="154" type="line"/>
			<point x="372" y="148" type="line"/>
			<point x="289" y="-245" type="line"/>
			<point x="315" y="-245" type="line"/>
			<point x="329" y="-176"/>
			<point x="343" y="-107"/>
			<point x="358" y="-38" type="curve" smooth="yes"/>
		</contour>
	</outline>
	<anchor name="aboveLC" x="361" y="500"/>
	<anchor name="belowLC" x="301" y="-248"/>
</glyph>
<glyph name="y" format="2">
	<unicode hex="0079"/>
	<advance width="465"/>
	<outline>
		<contour>
			<point x="-78" y="-207" type="curve"/>
			<point x="-72" y="-232"/>
			<point x="-48" y="-245"/>
			<point x="-18" y="-245" type="curve" smooth="yes"/>
			<point x="14" y="-245"/>
			<point x="70" y="-207"/>
			<point x="111" y="-165" type="curve" smooth="yes"/>
			<point x="162" y="-112"/>
			<point x="200" y="-61"/>
			<point x="245" y="10" type="curve" smooth="yes"/>
			<point x="295" y="89"/>
			<point x="332" y="165"/>
			<point x="409" y="315" type="curve" smooth="yes"/>
			<point x="436" y="368"/>
			<point x="449" y="395"/>
			<point x="464" y="431" type="curve" smooth="yes"/>
			<point x="472" y="450"/>
			<point x="474" y="460"/>
			<point x="474" y="467" type="curve" smooth="yes"/>
			<point x="474" y="477"/>
			<point x="467" y="483"/>
			<point x="458" y="483" type="curve" smooth="yes"/>
			<point x="442" y="483"/>
			<point x="435" y="466"/>
			<point x="405" y="374" type="curve" smooth="yes"/>
			<point x="385" y="310"/>
			<point x="306" y="148"/>
			<point x="222" y="5" type="curve"/>
			<point x="183" y="-56"/>
			<point x="141" y="-109"/>
			<point x="98" y="-152" type="curve" smooth="yes"/>
			<point x="61" y="-189"/>
			<point x="28" y="-210"/>
			<point x="-8" y="-227" type="curve"/>
			<point x="23" y="-231" type="line"/>
			<point x="-8" y="-203" type="line" smooth="yes"/>
			<point x="-24" y="-189"/>
			<point x="-36" y="-185"/>
			<point x="-48" y="-185" type="curve" smooth="yes"/>
			<point x="-62" y="-185"/>
			<point x="-74" y="-191"/>
		</contour>
		<contour>
			<point x="230" y="7" type="line"/>
			<point x="224" y="166"/>
			<point x="215" y="283"/>
			<point x="200" y="396" type="curve" smooth="yes"/>
			<point x="191" y="462"/>
			<point x="176" y="483"/>
			<point x="141" y="483" type="curve" smooth="yes"/>
			<point x="103" y="483"/>
			<point x="71" y="458"/>
			<point x="36" y="382" type="curve"/>
			<point x="49" y="376" type="line"/>
			<point x="85" y="446"/>
			<point x="111" y="457"/>
			<point x="132" y="457" type="curve" smooth="yes"/>
			<point x="154" y="457"/>
			<point x="163" y="445"/>
			<point x="171" y="395" type="curve" smooth="yes"/>
			<point x="188" y="281"/>
			<point x="200" y="164"/>
			<point x="209" y="-23" type="curve"/>
		</contour>
	</outline>
	<anchor name="aboveLC" x="306" y="500"/>
	<anchor name="belowLC" x="-17" y="-252"/>
</glyph>
<glyph name="z" format="1">
	<unicode hex="007A"/>
	<advance width="431"/>
	<outline>
		<contour>
			<point x="247" y="-23" type="curve" smooth="yes"/>
			<point x="325" y="-23"/>
			<point x="397" y="22"/>
			<point x="397" y="86" type="curve" smooth="yes"/>
			<point x="397" y="117"/>
			<point x="392" y="127"/>
			<point x="380" y="132" type="curve"/>
			<point x="365" y="130"/>
			<point x="357" y="117"/>
			<point x="357" y="94" type="curve" smooth="yes"/>
			<point x="357" y="74"/>
			<point x="362" y="64"/>
			<point x="367" y="45" type="curve" smooth="yes"/>
			<point x="372" y="27" type="line"/>
			<point x="374" y="48" type="line"/>
			<point x="344" y="22"/>
			<point x="302" y="4"/>
			<point x="251" y="4" type="curve" smooth="yes"/>
			<point x="194" y="4"/>
			<point x="164" y="21"/>
			<point x="113" y="54" type="curve" smooth="yes"/>
			<point x="66" y="84" type="line"/>
			<point x="56" y="70" type="line"/>
			<point x="105" y="33" type="line" smooth="yes"/>
			<point x="153" y="-4"/>
			<point x="188" y="-23"/>
		</contour>
		<contour>
			<point x="44" y="-4" type="line"/>
			<point x="67" y="67" type="line"/>
			<point x="183" y="192"/>
			<point x="295" y="259"/>
			<point x="385" y="364" type="curve" smooth="yes"/>
			<point x="423" y="408"/>
			<point x="450" y="438"/>
			<point x="460" y="479" type="curve"/>
			<point x="456" y="483" type="line"/>
			<point x="434" y="479" type="line"/>
			<point x="412" y="419" type="line"/>
			<point x="285" y="269"/>
			<point x="171" y="202"/>
			<point x="73" y="100" type="curve" smooth="yes"/>
			<point x="49" y="76"/>
			<point x="25" y="33"/>
			<point x="16" y="-4" type="curve"/>
			<point x="20" y="-8" type="line"/>
		</contour>
		<contour>
			<point x="87" y="324" type="line"/>
			<point x="101" y="322" type="line"/>
			<point x="135" y="471" type="line"/>
			<point x="120" y="455" type="line"/>
			<point x="220" y="441"/>
			<point x="318" y="426"/>
			<point x="414" y="408" type="curve"/>
			<point x="420" y="424" type="line"/>
			<point x="327" y="449"/>
			<point x="231" y="468"/>
			<point x="134" y="483" type="curve"/>
			<point x="108" y="461" type="line"/>
		</contour>
		<contour>
			<point name="aboveLC" x="295" y="500" type="move"/>
		</contour>
		<contour>
			<point name="belowLC" x="186" y="-22" type="move"/>
		</contour>
	</outline>
</glyph>
<glyph name="cent" format="1">
	<unicode hex="00A2"/>
	<advance width="497"/>
	<outline>
		<contour>
			<point x="104" y="242" type="curve" smooth="yes"/>
			<point x="104" y="116"/>
			<point x="173" y="65"/>
			<point x="247" y="65" type="curve" smooth="yes"/>
			<point x="317" y="65"/>
			<point x="370" y="104"/>
			<point x="413" y="170" type="curve"/>
			<point x="402" y="178" type="line"/>
			<point x="361" y="122"/>
			<point x="314" y="90"/>
			<point x="256" y="90" type="curve" smooth="yes"/>
			<point x="179" y="90"/>
			<point x="131" y="142"/>
			<point x="131" y="247" type="curve" smooth="yes"/>
			<point x="131" y="385"/>
			<point x="214" y="543"/>
			<point x="341" y="543" type="curve" smooth="yes"/>
			<point x="371" y="543"/>
			<point x="397" y="533"/>
			<point x="417" y="518" type="curve"/>
			<point x="404" y="542" type="line"/>
			<point x="426" y="449" type="line" smooth="yes"/>
			<point x="429" y="437"/>
			<point x="433" y="425"/>
			<point x="449" y="425" type="curve" smooth="yes"/>
			<point x="461" y="425"/>
			<point x="465" y="432"/>
			<point x="467" y="445" type="curve"/>
			<point x="457" y="525"/>
			<point x="415" y="562"/>
			<point x="342" y="562" type="curve" smooth="yes"/>
			<point x="211" y="562"/>
			<point x="104" y="405"/>
		</contour>
		<contour>
			<point x="218" y="-50" type="line"/>
			<point x="364" y="667" type="line"/>
			<point x="340" y="667" type="line"/>
			<point x="195" y="-50" type="line"/>
		</contour>
	</outline>
</glyph>
<glyph name="sterling" format="1">
	<unicode hex="00A3"/>
	<advance width="497"/>
	<outline>
		<contour>
			<point x="16" y="0" type="line"/>
			<point x="395" y="0" type="line"/>
			<point x="401" y="28" type="line"/>
			<point x="41" y="28" type="line"/>
			<point x="48" y="20" type="line"/>
			<point x="155" y="104"/>
			<point x="222" y="198"/>
			<point x="222" y="307" type="curve" smooth="yes"/>
			<point x="222" y="367"/>
			<point x="178" y="426"/>
			<point x="178" y="494" type="curve" smooth="yes"/>
			<point x="178" y="589"/>
			<point x="242" y="647"/>
			<point x="343" y="647" type="curve" smooth="yes"/>
			<point x="388" y="647"/>
			<point x="439" y="634"/>
			<point x="466" y="580" type="curve"/>
			<point x="457" y="622" type="line"/>
			<point x="456" y="588"/>
			<point x="454" y="569"/>
			<point x="454" y="533" type="curve" smooth="yes"/>
			<point x="454" y="513"/>
			<point x="464" y="497"/>
			<point x="478" y="497" type="curve" smooth="yes"/>
			<point x="486" y="497"/>
			<point x="496" y="502"/>
			<point x="501" y="513" type="curve"/>
			<point x="495" y="630"/>
			<point x="421" y="667"/>
			<point x="345" y="667" type="curve" smooth="yes"/>
			<point x="220" y="667"/>
			<point x="150" y="587"/>
			<point x="150" y="493" type="curve" smooth="yes"/>
			<point x="150" y="424"/>
			<point x="196" y="365"/>
			<point x="196" y="305" type="curve" smooth="yes"/>
			<point x="196" y="199"/>
			<point x="144" y="117"/>
			<point x="20" y="22" type="curve"/>
		</contour>
		<contour>
			<point x="65" y="302" type="line"/>
			<point x="385" y="302" type="line"/>
			<point x="390" y="326" type="line"/>
			<point x="69" y="326" type="line"/>
		</contour>
	</outline>
</glyph>
<glyph name="yen" format="1">
	<unicode hex="00A5"/>
	<advance width="497"/>
	<outline>
		<contour>
			<point x="70" y="161" type="line"/>
			<point x="429" y="161" type="line"/>
			<point x="434" y="185" type="line"/>
			<point x="75" y="185" type="line"/>
		</contour>
		<contour>
			<point x="90" y="260" type="line"/>
			<point x="449" y="260" type="line"/>
			<point x="454" y="284" type="line"/>
			<point x="95" y="284" type="line"/>
		</contour>
		<contour>
			<point x="218" y="27" type="line"/>
			<point x="102" y="20" type="line"/>
			<point x="97" y="0" type="line"/>
			<point x="341" y="0" type="line"/>
			<point x="346" y="20" type="line"/>
			<point x="232" y="27" type="line"/>
		</contour>
		<contour>
			<point x="180" y="627" type="line"/>
			<point x="194" y="627" type="line"/>
			<point x="300" y="634" type="line"/>
			<point x="305" y="654" type="line"/>
			<point x="111" y="654" type="line"/>
			<point x="106" y="634" type="line"/>
		</contour>
		<contour>
			<point x="504" y="627" type="line"/>
			<point x="518" y="627" type="line"/>
			<point x="590" y="634" type="line"/>
			<point x="595" y="654" type="line"/>
			<point x="406" y="654" type="line"/>
			<point x="401" y="634" type="line"/>
		</contour>
		<contour>
			<point x="206" y="0" type="line"/>
			<point x="234" y="0" type="line"/>
			<point x="251" y="93"/>
			<point x="257" y="121"/>
			<point x="289" y="278" type="curve"/>
			<point x="263" y="278" type="line"/>
		</contour>
		<contour>
			<point x="275" y="244" type="line"/>
			<point x="540" y="654" type="line"/>
			<point x="514" y="654" type="line"/>
			<point x="268" y="269" type="line"/>
			<point x="283" y="273" type="line"/>
			<point x="192" y="654" type="line"/>
			<point x="167" y="654" type="line"/>
			<point x="266" y="241" type="line"/>
		</contour>
	</outline>
</glyph>
<glyph name="registered" format="1">
	<unicode hex="00AE"/>
	<advance width="458"/>
	<outline>
		<contour>
			<point x="301" y="318" type="curve" smooth="yes"/>
			<point x="403" y="318"/>
			<point x="500" y="398"/>
			<point x="500" y="516" type="curve" smooth="yes"/>
			<point x="500" y="634"/>
			<point x="404" y="712"/>
			<point x="301" y="712" type="curve" smooth="yes"/>
			<point x="198" y="712"/>
			<point x="102" y="634"/>
			<point x="102" y="516" type="curve" smooth="yes"/>
			<point x="102" y="398"/>
			<point x="199" y="318"/>
		</contour>
		<contour>
			<point x="301" y="338" type="curve" smooth="yes"/>
			<point x="208" y="338"/>
			<point x="124" y="412"/>
			<point x="124" y="516" type="curve" smooth="yes"/>
			<point x="124" y="620"/>
			<point x="209" y="692"/>
			<point x="301" y="692" type="curve" smooth="yes"/>
			<point x="393" y="692"/>
			<point x="478" y="620"/>
			<point x="478" y="516" type="curve" smooth="yes"/>
			<point x="478" y="412"/>
			<point x="394" y="338"/>
		</contour>
		<contour>
			<point x="398" y="419" type="curve"/>
			<point x="398" y="431" type="line"/>
			<point x="365" y="433" type="line"/>
			<point x="376" y="423" type="line"/>
			<point x="354" y="486" type="line" smooth="yes"/>
			<point x="347" y="506"/>
			<point x="339" y="514"/>
			<point x="312" y="517" type="curve"/>
			<point x="314" y="515" type="line"/>
			<point x="349" y="517"/>
			<point x="372" y="540"/>
			<point x="372" y="569" type="curve" smooth="yes"/>
			<point x="372" y="603"/>
			<point x="348" y="622"/>
			<point x="301" y="622" type="curve" smooth="yes"/>
			<point x="265" y="622" type="line"/>
			<point x="265" y="610" type="line"/>
			<point x="297" y="610" type="line" smooth="yes"/>
			<point x="336" y="610"/>
			<point x="349" y="592"/>
			<point x="349" y="569" type="curve" smooth="yes"/>
			<point x="349" y="542"/>
			<point x="331" y="522"/>
			<point x="300" y="522" type="curve" smooth="yes"/>
			<point x="265" y="522" type="line"/>
			<point x="265" y="510" type="line"/>
			<point x="295" y="510" type="line" smooth="yes"/>
			<point x="318" y="510"/>
			<point x="325" y="501"/>
			<point x="331" y="483" type="curve" smooth="yes"/>
			<point x="348" y="433" type="line" smooth="yes"/>
			<point x="352" y="422"/>
			<point x="359" y="418"/>
			<point x="379" y="418" type="curve" smooth="yes"/>
			<point x="387" y="418"/>
			<point x="391" y="418"/>
		</contour>
		<contour>
			<point x="253" y="419" type="line"/>
			<point x="277" y="419" type="line"/>
			<point x="277" y="622" type="line"/>
			<point x="253" y="622" type="line"/>
		</contour>
		<contour>
			<point x="226" y="610" type="line"/>
			<point x="263" y="608" type="line"/>
			<point x="265" y="613" type="line"/>
			<point x="265" y="622" type="line"/>
			<point x="226" y="622" type="line"/>
		</contour>
		<contour>
			<point x="226" y="419" type="line"/>
			<point x="304" y="419" type="line"/>
			<point x="304" y="431" type="line"/>
			<point x="267" y="433" type="line"/>
			<point x="263" y="433" type="line"/>
			<point x="226" y="431" type="line"/>
		</contour>
	</outline>
</glyph>
<glyph name="plusminus" format="1">
	<unicode hex="00B1"/>
	<advance width="530"/>
	<outline>
		<contour>
			<point x="247" y="98" type="line"/>
			<point x="275" y="98" type="line"/>
			<point x="275" y="569" type="line"/>
			<point x="247" y="569" type="line"/>
		</contour>
		<contour>
			<point x="486" y="323" type="line"/>
			<point x="486" y="349" type="line"/>
			<point x="36" y="349" type="line"/>
			<point x="36" y="323" type="line"/>
		</contour>
		<contour>
			<point x="486" y="0" type="line"/>
			<point x="486" y="26" type="line"/>
			<point x="36" y="26" type="line"/>
			<point x="36" y="0" type="line"/>
		</contour>
	</outline>
</glyph>
<glyph name="three.sups" format="2">
	<unicode hex="00B3"/>
	<advance width="326"/>
	<outline>
		<contour>
			<point x="225" y="428" type="curve" smooth="yes"/>
			<point x="296" y="428"/>
			<point x="360" y="465"/>
			<point x="360" y="547" type="curve" smooth="yes"/>
			<point x="360" y="599"/>
			<point x="325" y="636"/>
			<point x="263" y="640" type="curve"/>
			<point x="262" y="636" type="line"/>
			<point x="327" y="643"/>
			<point x="381" y="689"/>
			<point x="381" y="749" type="curve" smooth="yes"/>
			<point x="381" y="800"/>
			<point x="350" y="839"/>
			<point x="284" y="839" type="curve" smooth="yes"/>
			<point x="224" y="839"/>
			<point x="183" y="812"/>
			<point x="168" y="752" type="curve"/>
			<point x="168" y="740"/>
			<point x="176" y="734"/>
			<point x="184" y="734" type="curve" smooth="yes"/>
			<point x="195" y="734"/>
			<point x="201" y="741"/>
			<point x="203" y="755" type="curve" smooth="yes"/>
			<point x="211" y="808" type="line"/>
			<point x="196" y="781" type="line"/>
			<point x="215" y="808"/>
			<point x="247" y="822"/>
			<point x="280" y="822" type="curve" smooth="yes"/>
			<point x="329" y="822"/>
			<point x="354" y="793"/>
			<point x="354" y="747" type="curve" smooth="yes"/>
			<point x="354" y="682"/>
			<point x="296" y="647"/>
			<point x="221" y="647" type="curve"/>
			<point x="217" y="630" type="line"/>
			<point x="297" y="630"/>
			<point x="330" y="602"/>
			<point x="330" y="548" type="curve" smooth="yes"/>
			<point x="330" y="479"/>
			<point x="284" y="445"/>
			<point x="227" y="445" type="curve" smooth="yes"/>
			<point x="192" y="445"/>
			<point x="162" y="455"/>
			<point x="142" y="488" type="curve"/>
			<point x="152" y="466" type="line"/>
			<point x="153" y="522" type="line" smooth="yes"/>
			<point x="153" y="535"/>
			<point x="149" y="543"/>
			<point x="137" y="543" type="curve" smooth="yes"/>
			<point x="130" y="543"/>
			<point x="124" y="540"/>
			<point x="121" y="532" type="curve"/>
			<point x="119" y="458"/>
			<point x="165" y="428"/>
		</contour>
	</outline>
</glyph>
<glyph name="Eth" format="1">
	<unicode hex="00D0"/>
	<advance width="668"/>
	<outline>
		<contour>
			<point x="404" y="336" type="line"/>
			<point x="407" y="358" type="line"/>
			<point x="61" y="358" type="line"/>
			<point x="56" y="336" type="line"/>
		</contour>
		<component base="D"/>
	</outline>
</glyph>
<glyph name="multiply" format="1">
	<unicode hex="00D7"/>
	<advance width="530"/>
	<outline>
		<contour>
			<point x="484" y="129" type="line"/>
			<point x="503" y="148" type="line"/>
			<point x="107" y="544" type="line"/>
			<point x="88" y="525" type="line"/>
		</contour>
		<contour>
			<point x="503" y="524" type="line"/>
			<point x="484" y="543" type="line"/>
			<point x="88" y="147" type="line"/>
			<point x="107" y="128" type="line"/>
		</contour>
	</outline>
</glyph>
<glyph name="Oslash" format="2">
	<unicode hex="00D8"/>
	<advance width="654"/>
	<outline>
		<contour>
			<point x="699" y="681" type="line"/>
			<point x="683" y="697" type="line"/>
			<point x="8" y="-1" type="line"/>
			<point x="24" y="-17" type="line"/>
		</contour>
		<contour>
			<point x="303" y="-15" type="curve" smooth="yes"/>
			<point x="494" y="-15"/>
			<point x="644" y="169"/>
			<point x="644" y="418" type="curve" smooth="yes"/>
			<point x="644" y="573"/>
			<point x="569" y="692"/>
			<point x="405" y="692" type="curve" smooth="yes"/>
			<point x="219" y="692"/>
			<point x="64" y="502"/>
			<point x="64" y="259" type="curve" smooth="yes"/>
			<point x="64" y="104"/>
			<point x="146" y="-15"/>
		</contour>
		<contour>
			<point x="307" y="7" type="curve" smooth="yes"/>
			<point x="161" y="7"/>
			<point x="95" y="101"/>
			<point x="95" y="271" type="curve" smooth="yes"/>
			<point x="95" y="477"/>
			<point x="227" y="670"/>
			<point x="401" y="670" type="curve" smooth="yes"/>
			<point x="549" y="670"/>
			<point x="612" y="582"/>
			<point x="612" y="405" type="curve" smooth="yes"/>
			<point x="612" y="183"/>
			<point x="477" y="7"/>
		</contour>
	</outline>
	<anchor name="aboveUC" x="398" y="682"/>
</glyph>
<glyph name="germandbls" format="2">
	<unicode hex="00DF"/>
	<advance width="509"/>
	<outline>
		<contour>
			<point x="120" y="41" type="curve" smooth="yes"/>
			<point x="101" y="-78"/>
			<point x="86" y="-135"/>
			<point x="45" y="-184" type="curve" smooth="yes"/>
			<point x="13" y="-222"/>
			<point x="-15" y="-237"/>
			<point x="-64" y="-239" type="curve"/>
			<point x="-39" y="-242" type="line"/>
			<point x="-82" y="-200" type="line" smooth="yes"/>
			<point x="-92" y="-191"/>
			<point x="-102" y="-185"/>
			<point x="-112" y="-185" type="curve" smooth="yes"/>
			<point x="-122" y="-185"/>
			<point x="-130" y="-192"/>
			<point x="-130" y="-206" type="curve"/>
			<point x="-121" y="-231"/>
			<point x="-87" y="-255"/>
			<point x="-52" y="-255" type="curve" smooth="yes"/>
			<point x="-11" y="-255"/>
			<point x="20" y="-241"/>
			<point x="58" y="-201" type="curve" smooth="yes"/>
			<point x="111" y="-145"/>
			<point x="123" y="-77"/>
			<point x="143" y="41" type="curve" smooth="yes"/>
			<point x="169" y="196"/>
			<point x="192" y="349"/>
			<point x="216" y="502" type="curve" smooth="yes"/>
			<point x="234" y="612"/>
			<point x="278" y="739"/>
			<point x="403" y="739" type="curve" smooth="yes"/>
			<point x="468" y="739"/>
			<point x="500" y="704"/>
			<point x="500" y="651" type="curve" smooth="yes"/>
			<point x="500" y="598"/>
			<point x="478" y="568"/>
			<point x="401" y="500" type="curve" smooth="yes"/>
			<point x="340" y="447"/>
			<point x="301" y="416"/>
			<point x="301" y="346" type="curve" smooth="yes"/>
			<point x="301" y="299"/>
			<point x="324" y="262"/>
			<point x="376" y="227" type="curve" smooth="yes"/>
			<point x="435" y="187"/>
			<point x="458" y="152"/>
			<point x="458" y="111" type="curve" smooth="yes"/>
			<point x="458" y="52"/>
			<point x="410" y="7"/>
			<point x="333" y="7" type="curve" smooth="yes"/>
			<point x="299" y="7"/>
			<point x="276" y="12"/>
			<point x="251" y="29" type="curve"/>
			<point x="272" y="7" type="line"/>
			<point x="248" y="77" type="line" smooth="yes"/>
			<point x="244" y="89"/>
			<point x="237" y="93"/>
			<point x="226" y="93" type="curve" smooth="yes"/>
			<point x="216" y="93"/>
			<point x="209" y="84"/>
			<point x="207" y="73" type="curve"/>
			<point x="226" y="10"/>
			<point x="262" y="-13"/>
			<point x="333" y="-13" type="curve" smooth="yes"/>
			<point x="417" y="-13"/>
			<point x="483" y="33"/>
			<point x="483" y="118" type="curve" smooth="yes"/>
			<point x="483" y="164"/>
			<point x="459" y="198"/>
			<point x="389" y="249" type="curve" smooth="yes"/>
			<point x="342" y="284"/>
			<point x="323" y="306"/>
			<point x="323" y="350" type="curve" smooth="yes"/>
			<point x="323" y="405"/>
			<point x="352" y="435"/>
			<point x="414" y="486" type="curve" smooth="yes"/>
			<point x="494" y="552"/>
			<point x="526" y="600"/>
			<point x="526" y="652" type="curve" smooth="yes"/>
			<point x="526" y="714"/>
			<point x="484" y="758"/>
			<point x="404" y="758" type="curve" smooth="yes"/>
			<point x="256" y="758"/>
			<point x="206" y="613"/>
			<point x="190" y="502" type="curve" smooth="yes"/>
			<point x="167" y="348"/>
			<point x="145" y="195"/>
		</contour>
	</outline>
</glyph>
<glyph name="oslash" format="1">
	<unicode hex="00F8"/>
	<advance width="484"/>
	<outline>
		<contour>
			<point x="512" y="480" type="line"/>
			<point x="498" y="494" type="line"/>
			<point x="-11" y="-10" type="line"/>
			<point x="4" y="-24" type="line"/>
		</contour>
		<component base="o"/>
		<contour>
			<point name="aboveLC" x="294" y="500" type="move"/>
		</contour>
	</outline>
</glyph>
<glyph name="thorn" format="2">
	<unicode hex="00FE"/>
	<advance width="509"/>
	<outline>
		<contour>
			<point x="20" y="-245" type="line"/>
			<point x="47" y="-245" type="line"/>
			<point x="61" y="-176"/>
			<point x="88" y="-47"/>
			<point x="103" y="22" type="curve"/>
			<point x="104" y="26" type="line"/>
			<point x="166" y="318" type="line"/>
			<point x="167" y="322" type="line"/>
			<point x="255" y="738" type="line"/>
			<point x="245" y="748" type="line"/>
			<point x="104" y="733" type="line"/>
			<point x="101" y="719" type="line"/>
			<point x="230" y="717" type="line"/>
			<point x="223" y="724" type="line"/>
			<point x="211" y="655"/>
			<point x="199" y="586"/>
			<point x="184" y="517" type="curve" smooth="yes"/>
		</contour>
		<contour>
			<point x="89" y="23" type="line"/>
			<point x="114" y="-3"/>
			<point x="150" y="-13"/>
			<point x="182" y="-13" type="curve" smooth="yes"/>
			<point x="331" y="-13"/>
			<point x="485" y="188"/>
			<point x="485" y="364" type="curve" smooth="yes"/>
			<point x="485" y="452"/>
			<point x="449" y="483"/>
			<point x="395" y="483" type="curve" smooth="yes"/>
			<point x="317" y="483"/>
			<point x="208" y="399"/>
			<point x="145" y="297" type="curve"/>
			<point x="149" y="292" type="line"/>
			<point x="238" y="390"/>
			<point x="317" y="458"/>
			<point x="390" y="458" type="curve" smooth="yes"/>
			<point x="432" y="458"/>
			<point x="457" y="428"/>
			<point x="457" y="356" type="curve" smooth="yes"/>
			<point x="457" y="274"/>
			<point x="424" y="184"/>
			<point x="371" y="116" type="curve" smooth="yes"/>
			<point x="323" y="53"/>
			<point x="258" y="11"/>
			<point x="192" y="11" type="curve" smooth="yes"/>
			<point x="157" y="11"/>
			<point x="125" y="21"/>
			<point x="96" y="48" type="curve"/>
		</contour>
		<contour>
			<point x="36" y="-219" type="line"/>
			<point x="-65" y="-225" type="line"/>
			<point x="-68" y="-245" type="line"/>
			<point x="155" y="-245" type="line"/>
			<point x="158" y="-225" type="line"/>
			<point x="45" y="-219" type="line"/>
		</contour>
	</outline>
	<anchor name="aboveLC" x="234" y="730"/>
	<anchor name="belowLC" x="316" y="-22"/>
</glyph>
<glyph name="dcaron" format="1">
	<unicode hex="010F"/>
	<advance width="559"/>
	<outline>
		<contour>
			<point x="639" y="753" type="curve" smooth="yes"/>
			<point x="633" y="753"/>
			<point x="628" y="751"/>
			<point x="622" y="748" type="curve"/>
			<point x="578" y="532" type="line"/>
			<point x="593" y="531" type="line"/>
			<point x="615" y="602" type="line" smooth="yes"/>
			<point x="635" y="668"/>
			<point x="654" y="723"/>
			<point x="654" y="739" type="curve" smooth="yes"/>
			<point x="654" y="747"/>
			<point x="650" y="753"/>
		</contour>
		<component base="d"/>
	</outline>
</glyph>
<glyph name="dcroat" format="2">
	<unicode hex="0111"/>
	<advance width="543"/>
	<outline>
		<contour>
			<point x="303" y="584" type="line"/>
			<point x="607" y="584" type="line"/>
			<point x="610" y="601" type="line"/>
			<point x="306" y="601" type="line"/>
		</contour>
		<contour>
			<point x="151" y="-13" type="curve" smooth="yes"/>
			<point x="231" y="-13"/>
			<point x="327" y="76"/>
			<point x="396" y="173" type="curve"/>
			<point x="392" y="181" type="line"/>
			<point x="302" y="82"/>
			<point x="231" y="12"/>
			<point x="156" y="12" type="curve" smooth="yes"/>
			<point x="114" y="12"/>
			<point x="89" y="42"/>
			<point x="89" y="114" type="curve" smooth="yes"/>
			<point x="89" y="194"/>
			<point x="125" y="280"/>
			<point x="178" y="347" type="curve" smooth="yes"/>
			<point x="228" y="408"/>
			<point x="294" y="450"/>
			<point x="364" y="450" type="curve" smooth="yes"/>
			<point x="388" y="450"/>
			<point x="416" y="441"/>
			<point x="443" y="417" type="curve"/>
			<point x="450" y="437" type="line"/>
			<point x="427" y="463"/>
			<point x="403" y="473"/>
			<point x="371" y="473" type="curve" smooth="yes"/>
			<point x="221" y="473"/>
			<point x="61" y="277"/>
			<point x="61" y="106" type="curve" smooth="yes"/>
			<point x="61" y="18"/>
			<point x="97" y="-13"/>
		</contour>
		<contour>
			<point x="394" y="99" type="curve" smooth="yes"/>
			<point x="521" y="738" type="line"/>
			<point x="511" y="748" type="line"/>
			<point x="372" y="733" type="line"/>
			<point x="369" y="719" type="line"/>
			<point x="498" y="717" type="line"/>
			<point x="491" y="724" type="line"/>
			<point x="436" y="443" type="line"/>
			<point x="434" y="433" type="line"/>
			<point x="368" y="99" type="line" smooth="yes"/>
			<point x="362" y="68"/>
			<point x="359" y="54"/>
			<point x="359" y="31" type="curve" smooth="yes"/>
			<point x="359" y="2"/>
			<point x="376" y="-13"/>
			<point x="401" y="-13" type="curve" smooth="yes"/>
			<point x="456" y="-13"/>
			<point x="500" y="32"/>
			<point x="542" y="92" type="curve"/>
			<point x="532" y="100" type="line"/>
			<point x="490" y="47"/>
			<point x="449" y="13"/>
			<point x="415" y="13" type="curve" smooth="yes"/>
			<point x="396" y="13"/>
			<point x="386" y="20"/>
			<point x="386" y="40" type="curve" smooth="yes"/>
			<point x="386" y="56"/>
			<point x="390" y="80"/>
		</contour>
	</outline>
</glyph>
<glyph name="eogonek" format="1">
	<unicode hex="0119"/>
	<advance width="408"/>
	<outline>
		<component base="e"/>
		<component base="ogonekcmb" xOffset="253"/>
		<contour>
			<point name="aboveLC" x="308" y="500" type="move"/>
		</contour>
	</outline>
</glyph>
<glyph name="hbar" format="2">
	<unicode hex="0127"/>
	<advance width="521"/>
	<outline>
		<contour>
			<point x="65" y="-5" type="line"/>
			<point x="86" y="0" type="line"/>
			<point x="99" y="69"/>
			<point x="113" y="138"/>
			<point x="127" y="207" type="curve" smooth="yes"/>
			<point x="156" y="350" type="line"/>
			<point x="157" y="357" type="line"/>
			<point x="235" y="738" type="line"/>
			<point x="225" y="748" type="line"/>
			<point x="84" y="733" type="line"/>
			<point x="81" y="719" type="line"/>
			<point x="210" y="717" type="line"/>
			<point x="203" y="724" type="line"/>
			<point x="191" y="655"/>
			<point x="178" y="586"/>
			<point x="164" y="517" type="curve" smooth="yes"/>
			<point x="59" y="0" type="line"/>
		</contour>
		<contour>
			<point x="375" y="-13" type="curve" smooth="yes"/>
			<point x="430" y="-13"/>
			<point x="474" y="32"/>
			<point x="516" y="92" type="curve"/>
			<point x="506" y="100" type="line"/>
			<point x="464" y="47"/>
			<point x="423" y="13"/>
			<point x="389" y="13" type="curve" smooth="yes"/>
			<point x="370" y="13"/>
			<point x="360" y="20"/>
			<point x="360" y="38" type="curve" smooth="yes"/>
			<point x="360" y="56"/>
			<point x="367" y="80"/>
			<point x="371" y="99" type="curve" smooth="yes"/>
			<point x="423" y="321" type="line" smooth="yes"/>
			<point x="432" y="361"/>
			<point x="440" y="388"/>
			<point x="440" y="419" type="curve" smooth="yes"/>
			<point x="440" y="458"/>
			<point x="419" y="483"/>
			<point x="375" y="483" type="curve" smooth="yes"/>
			<point x="320" y="483"/>
			<point x="220" y="430"/>
			<point x="141" y="344" type="curve"/>
			<point x="139" y="326" type="line"/>
			<point x="249" y="425"/>
			<point x="314" y="458"/>
			<point x="369" y="458" type="curve" smooth="yes"/>
			<point x="397" y="458"/>
			<point x="412" y="445"/>
			<point x="412" y="414" type="curve" smooth="yes"/>
			<point x="412" y="388"/>
			<point x="404" y="356"/>
			<point x="397" y="324" type="curve" smooth="yes"/>
			<point x="345" y="99" type="line" smooth="yes"/>
			<point x="338" y="68"/>
			<point x="333" y="54"/>
			<point x="333" y="28" type="curve" smooth="yes"/>
			<point x="333" y="4"/>
			<point x="351" y="-13"/>
		</contour>
		<contour>
			<point x="56" y="579" type="line"/>
			<point x="388" y="579" type="line"/>
			<point x="392" y="599" type="line"/>
			<point x="60" y="599" type="line"/>
		</contour>
	</outline>
</glyph>
<glyph name="dotlessi" format="1">
	<unicode hex="0131"/>
	<advance width="282"/>
	<outline>
		<contour>
			<point x="96" y="28" type="curve" smooth="yes"/>
			<point x="96" y="4"/>
			<point x="114" y="-13"/>
			<point x="138" y="-13" type="curve" smooth="yes"/>
			<point x="193" y="-13"/>
			<point x="237" y="32"/>
			<point x="279" y="92" type="curve"/>
			<point x="269" y="100" type="line"/>
			<point x="227" y="47"/>
			<point x="186" y="13"/>
			<point x="152" y="13" type="curve" smooth="yes"/>
			<point x="133" y="13"/>
			<point x="123" y="20"/>
			<point x="123" y="38" type="curve" smooth="yes"/>
			<point x="123" y="56"/>
			<point x="130" y="80"/>
			<point x="134" y="99" type="curve" smooth="yes"/>
			<point x="216" y="473" type="line"/>
			<point x="203" y="483" type="line"/>
			<point x="63" y="468" type="line"/>
			<point x="60" y="454" type="line"/>
			<point x="189" y="452" type="line"/>
			<point x="185" y="459" type="line"/>
			<point x="108" y="99" type="line" smooth="yes"/>
			<point x="101" y="68"/>
			<point x="96" y="54"/>
		</contour>
		<contour>
			<point name="aboveLC" x="201" y="500" type="move"/>
		</contour>
		<contour>
			<point name="belowLC" x="114" y="-22" type="move"/>
		</contour>
		<contour>
			<point name="ogonek" x="131" y="0" type="move"/>
		</contour>
	</outline>
</glyph>
<glyph name="kgreenlandic" format="2">
	<unicode hex="0138"/>
	<advance width="481"/>
	<outline>
		<contour>
			<point x="491" y="1" type="curve"/>
			<point x="493" y="15" type="line"/>
			<point x="440" y="16" type="line" smooth="yes"/>
			<point x="407" y="17"/>
			<point x="384" y="27"/>
			<point x="368" y="55" type="curve" smooth="yes"/>
			<point x="318" y="143" type="line" smooth="yes"/>
			<point x="281" y="208"/>
			<point x="261" y="235"/>
			<point x="205" y="249" type="curve" smooth="yes"/>
			<point x="177" y="256" type="line"/>
			<point x="176" y="247" type="line"/>
			<point x="473" y="447" type="line" smooth="yes"/>
			<point x="486" y="456"/>
			<point x="488" y="459"/>
			<point x="488" y="467" type="curve" smooth="yes"/>
			<point x="488" y="473"/>
			<point x="481" y="481"/>
			<point x="472" y="482" type="curve"/>
			<point x="163" y="253" type="line"/>
			<point x="166" y="244" type="line"/>
			<point x="191" y="237" type="line" smooth="yes"/>
			<point x="245" y="222"/>
			<point x="259" y="201"/>
			<point x="291" y="144" type="curve" smooth="yes"/>
			<point x="341" y="54" type="line" smooth="yes"/>
			<point x="363" y="14"/>
			<point x="388" y="-7"/>
			<point x="431" y="-7" type="curve" smooth="yes"/>
			<point x="447" y="-7"/>
			<point x="467" y="-5"/>
		</contour>
		<contour>
			<point x="117" y="0" type="line"/>
			<point x="131" y="69"/>
			<point x="145" y="138"/>
			<point x="160" y="207" type="curve" smooth="yes"/>
			<point x="192" y="351" type="line"/>
			<point x="216" y="473" type="line"/>
			<point x="203" y="483" type="line"/>
			<point x="65" y="468" type="line"/>
			<point x="62" y="454" type="line"/>
			<point x="191" y="452" type="line"/>
			<point x="187" y="459" type="line"/>
			<point x="90" y="0" type="line"/>
			<point x="96" y="-5" type="line"/>
		</contour>
	</outline>
</glyph>
<glyph name="Lslash" format="1">
	<unicode hex="0141"/>
	<advance width="538"/>
	<outline>
		<contour>
			<point x="429" y="463" type="line"/>
			<point x="192" y="340" type="line"/>
			<point x="187" y="311" type="line"/>
			<point x="423" y="434" type="line"/>
		</contour>
		<contour>
			<point x="192" y="341" type="line"/>
			<point x="55" y="269" type="line"/>
			<point x="49" y="240" type="line"/>
			<point x="186" y="310" type="line"/>
		</contour>
		<component base="L"/>
	</outline>
</glyph>
<glyph name="lslash" format="1">
	<unicode hex="0142"/>
	<advance width="250"/>
	<outline>
		<contour>
			<point x="150" y="398" type="line"/>
			<point x="20" y="330" type="line"/>
			<point x="15" y="302" type="line"/>
			<point x="144" y="368" type="line"/>
		</contour>
		<contour>
			<point x="275" y="459" type="line"/>
			<point x="150" y="393" type="line"/>
			<point x="144" y="365" type="line"/>
			<point x="269" y="429" type="line"/>
		</contour>
		<component base="l"/>
	</outline>
</glyph>
<glyph name="oe" format="1">
	<unicode hex="0153"/>
	<advance width="763"/>
	<outline>
		<contour>
			<point x="212" y="-13" type="curve" smooth="yes"/>
			<point x="302" y="-13"/>
			<point x="380" y="60"/>
			<point x="423" y="160" type="curve"/>
			<point x="452" y="300" type="line"/>
			<point x="452" y="431"/>
			<point x="386" y="483"/>
			<point x="308" y="483" type="curve" smooth="yes"/>
			<point x="170" y="483"/>
			<point x="66" y="311"/>
			<point x="66" y="157" type="curve" smooth="yes"/>
			<point x="66" y="31"/>
			<point x="144" y="-13"/>
		</contour>
		<contour>
			<point x="215" y="7" type="curve" smooth="yes"/>
			<point x="147" y="7"/>
			<point x="93" y="55"/>
			<point x="93" y="162" type="curve" smooth="yes"/>
			<point x="93" y="296"/>
			<point x="182" y="463"/>
			<point x="307" y="463" type="curve" smooth="yes"/>
			<point x="379" y="463"/>
			<point x="428" y="414"/>
			<point x="428" y="302" type="curve" smooth="yes"/>
			<point x="428" y="167"/>
			<point x="333" y="7"/>
		</contour>
		<component base="e" xOffset="355"/>
		<contour>
			<point name="aboveLC" x="485" y="500" type="move"/>
		</contour>
	</outline>
</glyph>
<glyph name="tcaron" format="1">
	<unicode hex="0165"/>
	<advance width="320"/>
	<outline>
		<contour>
			<point x="400" y="758" type="curve" smooth="yes"/>
			<point x="394" y="758"/>
			<point x="389" y="756"/>
			<point x="383" y="753" type="curve"/>
			<point x="339" y="537" type="line"/>
			<point x="354" y="536" type="line"/>
			<point x="376" y="607" type="line" smooth="yes"/>
			<point x="396" y="673"/>
			<point x="415" y="728"/>
			<point x="415" y="744" type="curve" smooth="yes"/>
			<point x="415" y="752"/>
			<point x="411" y="758"/>
		</contour>
		<component base="t"/>
	</outline>
</glyph>
<glyph name="Uogonek" format="1">
	<unicode hex="0172"/>
	<advance width="725"/>
	<outline>
		<component base="U"/>
		<component base="ogonekcmb" xOffset="410"/>
		<contour>
			<point name="aboveUC" x="453" y="682" type="move"/>
		</contour>
	</outline>
</glyph>
<glyph name="florin" format="1">
	<unicode hex="0192"/>
	<advance width="497"/>
	<outline>
		<contour>
			<point x="154" y="362" type="line"/>
			<point x="432" y="362" type="line"/>
			<point x="436" y="386" type="line"/>
			<point x="158" y="386" type="line"/>
		</contour>
		<contour>
			<point x="308" y="369" type="line" smooth="yes"/>
			<point x="334" y="495"/>
			<point x="354" y="547"/>
			<point x="396" y="599" type="curve" smooth="yes"/>
			<point x="416" y="625"/>
			<point x="450" y="646"/>
			<point x="488" y="649" type="curve"/>
			<point x="454" y="656" type="line"/>
			<point x="480" y="640" type="line" smooth="yes"/>
			<point x="506" y="624"/>
			<point x="524" y="612"/>
			<point x="540" y="612" type="curve" smooth="yes"/>
			<point x="554" y="612"/>
			<point x="562" y="624"/>
			<point x="562" y="635" type="curve"/>
			<point x="544" y="653"/>
			<point x="520" y="667"/>
			<point x="488" y="667" type="curve" smooth="yes"/>
			<point x="458" y="667"/>
			<point x="424" y="657"/>
			<point x="388" y="619" type="curve" smooth="yes"/>
			<point x="338" y="567"/>
			<point x="308" y="494"/>
			<point x="282" y="370" type="curve" smooth="yes"/>
			<point x="250" y="217" type="line" smooth="yes"/>
			<point x="220" y="75"/>
			<point x="196" y="20"/>
			<point x="156" y="-32" type="curve" smooth="yes"/>
			<point x="136" y="-58"/>
			<point x="102" y="-79"/>
			<point x="64" y="-82" type="curve"/>
			<point x="94" y="-94" type="line"/>
			<point x="68" y="-76" type="line" smooth="yes"/>
			<point x="44" y="-58"/>
			<point x="26" y="-45"/>
			<point x="12" y="-45" type="curve" smooth="yes"/>
			<point x="-2" y="-45"/>
			<point x="-10" y="-57"/>
			<point x="-10" y="-68" type="curve"/>
			<point x="8" y="-86"/>
			<point x="32" y="-100"/>
			<point x="64" y="-100" type="curve" smooth="yes"/>
			<point x="94" y="-100"/>
			<point x="128" y="-89"/>
			<point x="164" y="-52" type="curve" smooth="yes"/>
			<point x="218" y="5"/>
			<point x="246" y="83"/>
			<point x="276" y="224" type="curve" smooth="yes"/>
		</contour>
	</outline>
</glyph>
<glyph name="schwa" format="2">
	<unicode hex="0259"/>
	<advance width="431"/>
	<outline>
		<contour>
			<point x="136" y="-13" type="curve" smooth="yes"/>
			<point x="271" y="-13"/>
			<point x="404" y="152"/>
			<point x="404" y="308" type="curve" smooth="yes"/>
			<point x="404" y="436"/>
			<point x="341" y="483"/>
			<point x="269" y="483" type="curve" smooth="yes"/>
			<point x="198" y="483"/>
			<point x="143" y="444"/>
			<point x="98" y="378" type="curve"/>
			<point x="109" y="370" type="line"/>
			<point x="153" y="427"/>
			<point x="200" y="458"/>
			<point x="258" y="458" type="curve" smooth="yes"/>
			<point x="335" y="458"/>
			<point x="377" y="406"/>
			<point x="377" y="299" type="curve" smooth="yes"/>
			<point x="377" y="161"/>
			<point x="255" y="6"/>
			<point x="143" y="6" type="curve" smooth="yes"/>
			<point x="101" y="6"/>
			<point x="75" y="25"/>
			<point x="75" y="64" type="curve" smooth="yes"/>
			<point x="75" y="154"/>
			<point x="195" y="235"/>
			<point x="392" y="287" type="curve"/>
			<point x="390" y="303" type="line"/>
			<point x="183" y="251"/>
			<point x="51" y="161"/>
			<point x="51" y="62" type="curve" smooth="yes"/>
			<point x="51" y="10"/>
			<point x="88" y="-13"/>
		</contour>
	</outline>
	<anchor name="aboveLC" x="270" y="500"/>
	<anchor name="belowLC" x="138" y="-22"/>
</glyph>
<glyph name="gscript" format="2">
	<unicode hex="0261"/>
	<advance width="474"/>
	<outline>
		<contour>
			<point x="95" y="-255" type="curve" smooth="yes"/>
			<point x="156" y="-255"/>
			<point x="223" y="-235"/>
			<point x="276" y="-173" type="curve" smooth="yes"/>
			<point x="316" y="-126"/>
			<point x="338" y="-66"/>
			<point x="371" y="105" type="curve" smooth="yes"/>
			<point x="416" y="335" type="line"/>
			<point x="447" y="477" type="line"/>
			<point x="438" y="483" type="line"/>
			<point x="413" y="445" type="line"/>
			<point x="342" y="83" type="line" smooth="yes"/>
			<point x="308" y="-90"/>
			<point x="291" y="-124"/>
			<point x="260" y="-161" type="curve" smooth="yes"/>
			<point x="218" y="-216"/>
			<point x="151" y="-235"/>
			<point x="99" y="-235" type="curve" smooth="yes"/>
			<point x="51" y="-235"/>
			<point x="11" y="-219"/>
			<point x="-13" y="-197" type="curve"/>
			<point x="17" y="-238" type="line"/>
			<point x="-1" y="-152" type="line" smooth="yes"/>
			<point x="-3" y="-141"/>
			<point x="-10" y="-136"/>
			<point x="-19" y="-136" type="curve" smooth="yes"/>
			<point x="-31" y="-136"/>
			<point x="-40" y="-144"/>
			<point x="-43" y="-155" type="curve"/>
			<point x="-31" y="-220"/>
			<point x="15" y="-255"/>
		</contour>
		<contour>
			<point x="159" y="-13" type="curve" smooth="yes"/>
			<point x="242" y="-13"/>
			<point x="310" y="75"/>
			<point x="379" y="173" type="curve"/>
			<point x="375" y="181" type="line"/>
			<point x="295" y="83"/>
			<point x="237" y="12"/>
			<point x="166" y="12" type="curve" smooth="yes"/>
			<point x="120" y="12"/>
			<point x="87" y="42"/>
			<point x="87" y="123" type="curve" smooth="yes"/>
			<point x="87" y="213"/>
			<point x="131" y="319"/>
			<point x="199" y="387" type="curve" smooth="yes"/>
			<point x="242" y="431"/>
			<point x="296" y="460"/>
			<point x="353" y="460" type="curve" smooth="yes"/>
			<point x="381" y="460"/>
			<point x="405" y="451"/>
			<point x="425" y="420" type="curve"/>
			<point x="432" y="440" type="line"/>
			<point x="416" y="471"/>
			<point x="391" y="483"/>
			<point x="358" y="483" type="curve" smooth="yes"/>
			<point x="210" y="483"/>
			<point x="59" y="282"/>
			<point x="59" y="116" type="curve" smooth="yes"/>
			<point x="59" y="18"/>
			<point x="107" y="-13"/>
		</contour>
	</outline>
	<anchor name="aboveLC" x="363" y="500"/>
	<anchor name="belowLC" x="98" y="-246"/>
</glyph>
<glyph name="w.sups" format="2">
	<unicode hex="02B7"/>
	<advance width="499"/>
	<outline>
		<contour>
			<point x="214" y="434" type="curve"/>
			<point x="225" y="433" type="line"/>
			<point x="294" y="525"/>
			<point x="347" y="619"/>
			<point x="380" y="688" type="curve"/>
			<point x="384" y="618"/>
			<point x="389" y="538"/>
			<point x="394" y="434" type="curve"/>
			<point x="404" y="433" type="line"/>
			<point x="471" y="504"/>
			<point x="517" y="568"/>
			<point x="552" y="638" type="curve" smooth="yes"/>
			<point x="577" y="688"/>
			<point x="580" y="714"/>
			<point x="579" y="730" type="curve" smooth="yes"/>
			<point x="579" y="741"/>
			<point x="579" y="745"/>
			<point x="576" y="750" type="curve"/>
			<point x="574" y="753"/>
			<point x="570" y="754"/>
			<point x="564" y="755" type="curve" smooth="yes"/>
			<point x="554" y="755"/>
			<point x="544" y="746"/>
			<point x="544" y="729" type="curve" smooth="yes"/>
			<point x="544" y="722"/>
			<point x="545" y="712"/>
			<point x="556" y="649" type="curve"/>
			<point x="562" y="707" type="line"/>
			<point x="554" y="684"/>
			<point x="545" y="663"/>
			<point x="536" y="644" type="curve" smooth="yes"/>
			<point x="502" y="570"/>
			<point x="462" y="523"/>
			<point x="413" y="464" type="curve"/>
			<point x="411" y="550"/>
			<point x="405" y="638"/>
			<point x="398" y="746" type="curve"/>
			<point x="387" y="746" type="line"/>
			<point x="343" y="643"/>
			<point x="291" y="555"/>
			<point x="233" y="469" type="curve"/>
			<point x="232" y="561"/>
			<point x="230" y="632"/>
			<point x="220" y="699" type="curve" smooth="yes"/>
			<point x="215" y="741"/>
			<point x="202" y="755"/>
			<point x="179" y="755" type="curve" smooth="yes"/>
			<point x="151" y="755"/>
			<point x="129" y="736"/>
			<point x="106" y="686" type="curve"/>
			<point x="116" y="682" type="line"/>
			<point x="139" y="725"/>
			<point x="155" y="733"/>
			<point x="170" y="733" type="curve" smooth="yes"/>
			<point x="184" y="733"/>
			<point x="193" y="726"/>
			<point x="198" y="694" type="curve" smooth="yes"/>
			<point x="208" y="623"/>
			<point x="211" y="549"/>
		</contour>
	</outline>
</glyph>
<glyph name="s.sups" format="2">
	<unicode hex="02E2"/>
	<advance width="250"/>
	<outline>
		<contour>
			<point x="159" y="441" type="line"/>
			<point x="143" y="486" type="line" smooth="yes"/>
			<point x="140" y="496"/>
			<point x="135" y="500"/>
			<point x="126" y="500" type="curve" smooth="yes"/>
			<point x="118" y="500"/>
			<point x="113" y="493"/>
			<point x="111" y="486" type="curve"/>
			<point x="123" y="445"/>
			<point x="148" y="428"/>
			<point x="197" y="428" type="curve" smooth="yes"/>
			<point x="256" y="428"/>
			<point x="300" y="460"/>
			<point x="300" y="516" type="curve" smooth="yes"/>
			<point x="300" y="547"/>
			<point x="284" y="569"/>
			<point x="237" y="602" type="curve" smooth="yes"/>
			<point x="201" y="628"/>
			<point x="184" y="642"/>
			<point x="184" y="676" type="curve" smooth="yes"/>
			<point x="184" y="712"/>
			<point x="211" y="740"/>
			<point x="264" y="740" type="curve" smooth="yes"/>
			<point x="278" y="740"/>
			<point x="293" y="736"/>
			<point x="304" y="729" type="curve"/>
			<point x="286" y="747" type="line"/>
			<point x="303" y="709" type="line" smooth="yes"/>
			<point x="308" y="698"/>
			<point x="315" y="695"/>
			<point x="323" y="695" type="curve" smooth="yes"/>
			<point x="330" y="695"/>
			<point x="337" y="700"/>
			<point x="338" y="707" type="curve"/>
			<point x="330" y="734"/>
			<point x="301" y="755"/>
			<point x="259" y="755" type="curve" smooth="yes"/>
			<point x="202" y="755"/>
			<point x="163" y="721"/>
			<point x="163" y="669" type="curve" smooth="yes"/>
			<point x="163" y="634"/>
			<point x="185" y="610"/>
			<point x="225" y="584" type="curve" smooth="yes"/>
			<point x="264" y="558"/>
			<point x="279" y="536"/>
			<point x="279" y="510" type="curve" smooth="yes"/>
			<point x="279" y="472"/>
			<point x="247" y="443"/>
			<point x="195" y="443" type="curve" smooth="yes"/>
			<point x="174" y="443"/>
			<point x="160" y="446"/>
			<point x="143" y="456" type="curve"/>
		</contour>
	</outline>
</glyph>
<glyph name="gravecmb" format="2">
	<unicode hex="0300"/>
	<outline>
		<contour>
			<point x="87" y="550" type="line"/>
			<point x="59" y="601"/>
			<point x="18" y="673"/>
			<point x="-4" y="711" type="curve" smooth="yes"/>
			<point x="-18" y="736"/>
			<point x="-25" y="747"/>
			<point x="-35" y="747" type="curve" smooth="yes"/>
			<point x="-44" y="748"/>
			<point x="-53" y="744"/>
			<point x="-53" y="733" type="curve" smooth="yes"/>
			<point x="-54" y="723"/>
			<point x="-45" y="712"/>
			<point x="-29" y="689" type="curve" smooth="yes"/>
			<point x="-6" y="655"/>
			<point x="41" y="588"/>
			<point x="74" y="543" type="curve"/>
		</contour>
	</outline>
	<anchor name="_aboveLC" x="69" y="500"/>
	<anchor name="aboveLC" x="124" y="757"/>
</glyph>
<glyph name="circumflexcmb" format="2">
	<unicode hex="0302"/>
	<outline>
		<contour>
			<point x="194" y="553" type="line"/>
			<point x="206" y="562" type="line"/>
			<point x="126" y="739" type="line"/>
			<point x="112" y="739" type="line"/>
			<point x="-34" y="562" type="line"/>
			<point x="-24" y="553" type="line"/>
			<point x="120" y="708" type="line"/>
			<point x="106" y="708" type="line"/>
		</contour>
	</outline>
	<anchor name="_aboveLC" x="69" y="500"/>
	<anchor name="aboveLC" x="112" y="699"/>
</glyph>
<glyph name="tildecmb" format="2">
	<unicode hex="0303"/>
	<outline>
		<contour>
			<point x="-57" y="603" type="curve"/>
			<point x="-44" y="597" type="line"/>
			<point x="-24" y="652"/>
			<point x="2" y="670"/>
			<point x="30" y="670" type="curve" smooth="yes"/>
			<point x="50" y="670"/>
			<point x="65" y="661"/>
			<point x="92" y="632" type="curve" smooth="yes"/>
			<point x="123" y="600"/>
			<point x="142" y="587"/>
			<point x="168" y="587" type="curve" smooth="yes"/>
			<point x="202" y="587"/>
			<point x="232" y="616"/>
			<point x="255" y="674" type="curve"/>
			<point x="242" y="681" type="line"/>
			<point x="218" y="629"/>
			<point x="192" y="609"/>
			<point x="171" y="609" type="curve" smooth="yes"/>
			<point x="149" y="609"/>
			<point x="139" y="617"/>
			<point x="109" y="647" type="curve" smooth="yes"/>
			<point x="81" y="676"/>
			<point x="64" y="692"/>
			<point x="34" y="692" type="curve" smooth="yes"/>
			<point x="-6" y="692"/>
			<point x="-39" y="665"/>
		</contour>
	</outline>
	<anchor name="_aboveLC" x="70" y="500"/>
</glyph>
<glyph name="macroncmb" format="2">
	<unicode hex="0304"/>
	<outline>
		<contour>
			<point x="-33" y="631" type="line"/>
			<point x="207" y="631" type="line"/>
			<point x="213" y="657" type="line"/>
			<point x="-27" y="657" type="line"/>
		</contour>
	</outline>
	<anchor name="_aboveLC" x="69" y="500"/>
</glyph>
<glyph name="hoicmb" format="2">
	<unicode hex="0309"/>
	<outline>
		<contour>
			<point x="66" y="558" type="line"/>
			<point x="122" y="565"/>
			<point x="159" y="601"/>
			<point x="159" y="651" type="curve" smooth="yes"/>
			<point x="159" y="693"/>
			<point x="130" y="721"/>
			<point x="67" y="730" type="curve"/>
			<point x="61" y="707" type="line"/>
			<point x="117" y="699"/>
			<point x="138" y="679"/>
			<point x="138" y="646" type="curve" smooth="yes"/>
			<point x="138" y="613"/>
			<point x="113" y="582"/>
			<point x="63" y="572" type="curve"/>
		</contour>
	</outline>
	<anchor name="_aboveLC" x="69" y="500"/>
	<anchor name="aboveLC" x="120" y="740"/>
</glyph>
<glyph name="ringcmb" format="2">
	<unicode hex="030A"/>
	<outline>
		<contour>
			<point x="130" y="569" type="curve" smooth="yes"/>
			<point x="175" y="569"/>
			<point x="226" y="605"/>
			<point x="226" y="666" type="curve" smooth="yes"/>
			<point x="226" y="711"/>
			<point x="191" y="743"/>
			<point x="148" y="743" type="curve" smooth="yes"/>
			<point x="101" y="743"/>
			<point x="52" y="708"/>
			<point x="52" y="646" type="curve" smooth="yes"/>
			<point x="52" y="603"/>
			<point x="84" y="569"/>
		</contour>
		<contour>
			<point x="131" y="589" type="curve" smooth="yes"/>
			<point x="96" y="589"/>
			<point x="76" y="618"/>
			<point x="76" y="648" type="curve" smooth="yes"/>
			<point x="76" y="690"/>
			<point x="106" y="723"/>
			<point x="146" y="723" type="curve" smooth="yes"/>
			<point x="181" y="723"/>
			<point x="202" y="695"/>
			<point x="202" y="664" type="curve" smooth="yes"/>
			<point x="202" y="621"/>
			<point x="172" y="589"/>
		</contour>
	</outline>
	<anchor name="_aboveLC" x="107" y="504"/>
	<anchor name="aboveLC" x="160" y="753"/>
</glyph>
<glyph name="hungarumlautcmb" format="2">
	<unicode hex="030B"/>
	<outline>
		<contour>
			<point x="-26" y="572" type="line"/>
			<point x="-14" y="564" type="line"/>
			<point x="92" y="693" type="line" smooth="yes"/>
			<point x="100" y="703"/>
			<point x="108" y="715"/>
			<point x="108" y="722" type="curve" smooth="yes"/>
			<point x="108" y="731"/>
			<point x="102" y="737"/>
			<point x="93" y="737" type="curve" smooth="yes"/>
			<point x="82" y="737"/>
			<point x="74" y="727"/>
			<point x="64" y="711" type="curve" smooth="yes"/>
		</contour>
		<contour>
			<point x="114" y="572" type="line"/>
			<point x="126" y="564" type="line"/>
			<point x="232" y="693" type="line" smooth="yes"/>
			<point x="240" y="703"/>
			<point x="248" y="715"/>
			<point x="248" y="722" type="curve" smooth="yes"/>
			<point x="248" y="731"/>
			<point x="242" y="737"/>
			<point x="233" y="737" type="curve" smooth="yes"/>
			<point x="222" y="737"/>
			<point x="214" y="727"/>
			<point x="204" y="711" type="curve" smooth="yes"/>
		</contour>
	</outline>
	<anchor name="_aboveLC" x="71" y="510"/>
	<anchor name="aboveLC" x="121" y="747"/>
</glyph>
<glyph name="caroncmb" format="2">
	<unicode hex="030C"/>
	<outline>
		<contour>
			<point x="4" y="751" type="line"/>
			<point x="-8" y="744" type="line"/>
			<point x="70" y="557" type="line"/>
			<point x="92" y="557" type="line"/>
			<point x="236" y="744" type="line"/>
			<point x="225" y="753" type="line"/>
			<point x="76" y="578" type="line"/>
			<point x="95" y="578" type="line"/>
		</contour>
	</outline>
	<anchor name="_aboveLC" x="69" y="500"/>
</glyph>
<glyph name="horncmb" format="2">
	<unicode hex="031B"/>
	<outline>
		<contour>
			<point x="29" y="401" type="line"/>
			<point x="143" y="412"/>
			<point x="179" y="482"/>
			<point x="179" y="548" type="curve" smooth="yes"/>
			<point x="179" y="569"/>
			<point x="174" y="583"/>
			<point x="170" y="591" type="curve"/>
			<point x="167" y="593"/>
			<point x="164" y="594"/>
			<point x="159" y="594" type="curve" smooth="yes"/>
			<point x="149" y="594"/>
			<point x="139" y="587"/>
			<point x="139" y="574" type="curve" smooth="yes"/>
			<point x="139" y="561"/>
			<point x="148" y="551"/>
			<point x="148" y="524" type="curve" smooth="yes"/>
			<point x="148" y="483"/>
			<point x="126" y="427"/>
			<point x="28" y="418" type="curve"/>
		</contour>
	</outline>
	<anchor name="_hornLC" x="102" y="478"/>
</glyph>
<glyph name="commabelowcmb" format="2">
	<unicode hex="0326"/>
	<outline>
		<contour>
			<point x="-131" y="-229" type="line"/>
			<point x="-67" y="-201"/>
			<point x="-33" y="-159"/>
			<point x="-33" y="-98" type="curve" smooth="yes"/>
			<point x="-33" y="-92"/>
			<point x="-34" y="-86"/>
			<point x="-35" y="-79" type="curve"/>
			<point x="-41" y="-72"/>
			<point x="-50" y="-67"/>
			<point x="-62" y="-67" type="curve" smooth="yes"/>
			<point x="-76" y="-67"/>
			<point x="-89" y="-78"/>
			<point x="-89" y="-94" type="curve" smooth="yes"/>
			<point x="-89" y="-106"/>
			<point x="-88" y="-124"/>
			<point x="-54" y="-144" type="curve"/>
			<point x="-58" y="-132" type="line"/>
			<point x="-71" y="-167"/>
			<point x="-92" y="-189"/>
			<point x="-138" y="-215" type="curve"/>
		</contour>
	</outline>
	<anchor name="_belowLC" x="-42" y="-22"/>
	<anchor name="belowLC" x="-88" y="-239"/>
</glyph>
<glyph name="cedillacmb" format="1">
	<unicode hex="0327"/>
	<outline>
		<contour>
			<point x="-64" y="-77" type="line"/>
			<point x="-16" y="-87"/>
			<point x="-1" y="-104"/>
			<point x="-1" y="-133" type="curve" smooth="yes"/>
			<point x="-1" y="-174"/>
			<point x="-34" y="-195"/>
			<point x="-82" y="-195" type="curve" smooth="yes"/>
			<point x="-100" y="-195"/>
			<point x="-118" y="-192"/>
			<point x="-137" y="-188" type="curve"/>
			<point x="-144" y="-203" type="line"/>
			<point x="-124" y="-210"/>
			<point x="-106" y="-214"/>
			<point x="-84" y="-214" type="curve" smooth="yes"/>
			<point x="-25" y="-214"/>
			<point x="23" y="-186"/>
			<point x="23" y="-132" type="curve" smooth="yes"/>
			<point x="23" y="-98"/>
			<point x="1" y="-74"/>
			<point x="-46" y="-63" type="curve"/>
			<point x="-43" y="-74" type="line"/>
			<point x="-25" y="0" type="line"/>
			<point x="-43" y="0" type="line"/>
		</contour>
		<contour>
			<point name="_baseLC" x="-37" y="0" type="move"/>
		</contour>
	</outline>
</glyph>
<glyph name="ogonekcmb" format="1">
	<unicode hex="0328"/>
	<outline>
		<contour>
			<point x="-96" y="-175" type="curve" smooth="yes"/>
			<point x="-96" y="-213"/>
			<point x="-75" y="-245"/>
			<point x="-23" y="-245" type="curve" smooth="yes"/>
			<point x="12" y="-245"/>
			<point x="46" y="-227"/>
			<point x="76" y="-201" type="curve"/>
			<point x="67" y="-191" type="line"/>
			<point x="42" y="-209"/>
			<point x="9" y="-221"/>
			<point x="-16" y="-221" type="curve" smooth="yes"/>
			<point x="-52" y="-221"/>
			<point x="-69" y="-199"/>
			<point x="-69" y="-165" type="curve" smooth="yes"/>
			<point x="-69" y="-121"/>
			<point x="-31" y="-62"/>
			<point x="35" y="5" type="curve"/>
			<point x="16" y="5" type="line"/>
			<point x="-46" y="-53"/>
			<point x="-96" y="-120"/>
		</contour>
		<contour>
			<point name="_ogonek" x="19" y="0" type="move"/>
		</contour>
	</outline>
</glyph>
<glyph name="Delta" format="1">
  <advance width="676.0"/>
  <unicode hex="0394"/>
  <outline>
    <contour>
      <point x="36" y="0" type="line"/>
      <point x="565" y="0" type="line"/>
      <point x="569" y="22" type="line"/>
      <point x="439" y="677" type="line"/>
      <point x="419" y="677" type="line"/>
      <point x="40" y="22" type="line"/>
    </contour>
    <contour>
      <point x="64" y="16" type="line"/>
      <point x="429" y="654" type="line"/>
      <point x="412" y="654" type="line"/>
      <point x="536" y="19" type="line"/>
      <point x="544" y="26" type="line"/>
      <point x="56" y="26" type="line"/>
    </contour>
  </outline>
</glyph>
<glyph name="Theta" format="1">
	<unicode hex="0398"/>
	<advance width="653"/>
	<outline>
		<contour>
			<point x="217" y="322" type="line"/>
			<point x="487" y="322" type="line"/>
			<point x="491" y="348" type="line"/>
			<point x="221" y="348" type="line"/>
		</contour>
		<contour>
			<point x="477" y="324" type="line"/>
			<point x="470" y="237" type="line"/>
			<point x="489" y="237" type="line"/>
			<point x="527" y="432" type="line"/>
			<point x="508" y="432" type="line"/>
			<point x="481" y="344" type="line"/>
		</contour>
		<contour>
			<point x="227" y="324" type="line"/>
			<point x="231" y="344" type="line"/>
			<point x="238" y="432" type="line"/>
			<point x="219" y="432" type="line"/>
			<point x="181" y="237" type="line"/>
			<point x="200" y="237" type="line"/>
		</contour>
		<contour>
			<point x="303" y="-15" type="curve" smooth="yes"/>
			<point x="494" y="-15"/>
			<point x="644" y="169"/>
			<point x="644" y="418" type="curve" smooth="yes"/>
			<point x="644" y="573"/>
			<point x="569" y="692"/>
			<point x="405" y="692" type="curve" smooth="yes"/>
			<point x="219" y="692"/>
			<point x="64" y="502"/>
			<point x="64" y="259" type="curve" smooth="yes"/>
			<point x="64" y="104"/>
			<point x="146" y="-15"/>
		</contour>
		<contour>
			<point x="307" y="7" type="curve" smooth="yes"/>
			<point x="162" y="7"/>
			<point x="96" y="121"/>
			<point x="96" y="271" type="curve" smooth="yes"/>
			<point x="96" y="477"/>
			<point x="228" y="670"/>
			<point x="401" y="670" type="curve" smooth="yes"/>
			<point x="548" y="670"/>
			<point x="611" y="562"/>
			<point x="611" y="405" type="curve" smooth="yes"/>
			<point x="611" y="183"/>
			<point x="476" y="7"/>
		</contour>
	</outline>
</glyph>
<glyph name="Lambda" format="2">
	<unicode hex="039B"/>
	<advance width="651"/>
	<outline>
		<contour>
			<point x="-27" y="0" type="line"/>
			<point x="171" y="0" type="line"/>
			<point x="175" y="20" type="line"/>
			<point x="79" y="26" type="line"/>
			<point x="65" y="26" type="line"/>
			<point x="-23" y="20" type="line"/>
		</contour>
		<contour>
			<point x="46" y="0" type="line"/>
			<point x="73" y="0" type="line"/>
			<point x="409" y="660" type="line"/>
			<point x="390" y="650" type="line"/>
			<point x="475" y="0" type="line"/>
			<point x="509" y="0" type="line"/>
			<point x="416" y="677" type="line"/>
			<point x="396" y="677" type="line"/>
		</contour>
		<contour>
			<point x="356" y="0" type="line"/>
			<point x="604" y="0" type="line"/>
			<point x="608" y="20" type="line"/>
			<point x="495" y="26" type="line"/>
			<point x="481" y="26" type="line"/>
			<point x="360" y="20" type="line"/>
		</contour>
	</outline>
</glyph>
<glyph name="Xi" format="1">
	<unicode hex="039E"/>
	<advance width="582"/>
	<outline>
		<contour>
			<point x="452" y="332" type="line"/>
			<point x="444" y="244" type="line"/>
			<point x="463" y="244" type="line"/>
			<point x="502" y="440" type="line"/>
			<point x="483" y="440" type="line"/>
			<point x="455" y="352" type="line"/>
		</contour>
		<contour>
			<point x="182" y="332" type="line"/>
			<point x="185" y="352" type="line"/>
			<point x="193" y="440" type="line"/>
			<point x="174" y="440" type="line"/>
			<point x="135" y="244" type="line"/>
			<point x="154" y="244" type="line"/>
		</contour>
		<contour>
			<point x="177" y="353" type="line"/>
			<point x="172" y="331" type="line"/>
			<point x="460" y="331" type="line"/>
			<point x="465" y="353" type="line"/>
		</contour>
		<contour>
			<point x="146" y="677" type="line"/>
			<point x="106" y="524" type="line"/>
			<point x="130" y="524" type="line"/>
			<point x="179" y="677" type="line"/>
			<point x="159" y="649" type="line"/>
			<point x="597" y="649" type="line"/>
			<point x="588" y="677" type="line"/>
			<point x="578" y="524" type="line"/>
			<point x="602" y="524" type="line"/>
			<point x="621" y="677" type="line"/>
		</contour>
		<contour>
			<point x="505" y="0" type="line"/>
			<point x="544" y="153" type="line"/>
			<point x="520" y="153" type="line"/>
			<point x="472" y="0" type="line"/>
			<point x="490" y="28" type="line"/>
			<point x="24" y="28" type="line"/>
			<point x="33" y="0" type="line"/>
			<point x="44" y="153" type="line"/>
			<point x="20" y="153" type="line"/>
			<point x="0" y="0" type="line"/>
		</contour>
	</outline>
</glyph>
<glyph name="Pi" format="1">
	<unicode hex="03A0"/>
	<advance width="765"/>
	<outline>
		<contour>
			<point x="11" y="0" type="line"/>
			<point x="259" y="0" type="line"/>
			<point x="263" y="20" type="line"/>
			<point x="142" y="27" type="line"/>
			<point x="128" y="27" type="line"/>
			<point x="15" y="20" type="line"/>
		</contour>
		<contour>
			<point x="115" y="0" type="line"/>
			<point x="149" y="0" type="line"/>
			<point x="165" y="104"/>
			<point x="184" y="209"/>
			<point x="203" y="313" type="curve" smooth="yes"/>
			<point x="271" y="677" type="line"/>
			<point x="238" y="677" type="line"/>
			<point x="221" y="573"/>
			<point x="204" y="468"/>
			<point x="184" y="364" type="curve" smooth="yes"/>
		</contour>
		<contour>
			<point x="125" y="657" type="line"/>
			<point x="246" y="650" type="line"/>
			<point x="260" y="650" type="line"/>
			<point x="266" y="677" type="line"/>
			<point x="129" y="677" type="line"/>
		</contour>
		<contour>
			<point x="252" y="655" type="line"/>
			<point x="670" y="655" type="line"/>
			<point x="673" y="677" type="line"/>
			<point x="257" y="677" type="line"/>
		</contour>
		<contour>
			<point x="442" y="0" type="line"/>
			<point x="690" y="0" type="line"/>
			<point x="694" y="20" type="line"/>
			<point x="573" y="27" type="line"/>
			<point x="559" y="27" type="line"/>
			<point x="446" y="20" type="line"/>
		</contour>
		<contour>
			<point x="546" y="0" type="line"/>
			<point x="580" y="0" type="line"/>
			<point x="596" y="104"/>
			<point x="615" y="209"/>
			<point x="634" y="313" type="curve" smooth="yes"/>
			<point x="702" y="677" type="line"/>
			<point x="669" y="677" type="line"/>
			<point x="652" y="573"/>
			<point x="635" y="468"/>
			<point x="615" y="364" type="curve" smooth="yes"/>
		</contour>
		<contour>
			<point x="677" y="650" type="line"/>
			<point x="691" y="650" type="line"/>
			<point x="804" y="657" type="line"/>
			<point x="808" y="677" type="line"/>
			<point x="681" y="677" type="line"/>
		</contour>
	</outline>
</glyph>
<glyph name="Sigma" format="2">
	<unicode hex="03A3"/>
	<advance width="525"/>
	<outline>
		<contour>
			<point x="529" y="514" type="line"/>
			<point x="551" y="514" type="line"/>
			<point x="571" y="677" type="line"/>
			<point x="134" y="677" type="line"/>
			<point x="129" y="655" type="line"/>
			<point x="546" y="655" type="line"/>
			<point x="538" y="677" type="line"/>
		</contour>
		<contour>
			<point x="462" y="0" type="line"/>
			<point x="505" y="169" type="line"/>
			<point x="483" y="169" type="line"/>
			<point x="428" y="6" type="line"/>
			<point x="447" y="28" type="line"/>
			<point x="5" y="28" type="line"/>
			<point x="6" y="19" type="line"/>
			<point x="320" y="343" type="line"/>
			<point x="147" y="677" type="line"/>
			<point x="131" y="677" type="line"/>
			<point x="127" y="657" type="line"/>
			<point x="298" y="330" type="line"/>
			<point x="298" y="350" type="line"/>
			<point x="-18" y="22" type="line"/>
			<point x="-23" y="0" type="line"/>
		</contour>
	</outline>
</glyph>
<glyph name="Phi" format="2">
	<unicode hex="03A6"/>
	<advance width="651"/>
	<outline>
		<contour>
			<point x="294" y="667" type="line"/>
			<point x="409" y="660" type="line"/>
			<point x="423" y="660" type="line"/>
			<point x="542" y="667" type="line"/>
			<point x="546" y="687" type="line"/>
			<point x="298" y="687" type="line"/>
		</contour>
		<contour>
			<point x="164" y="0" type="line"/>
			<point x="412" y="0" type="line"/>
			<point x="416" y="20" type="line"/>
			<point x="300" y="27" type="line"/>
			<point x="286" y="27" type="line"/>
			<point x="168" y="20" type="line"/>
		</contour>
		<contour>
			<point x="271" y="0" type="curve"/>
			<point x="305" y="0" type="line"/>
			<point x="323" y="102"/>
			<point x="343" y="206"/>
			<point x="363" y="310" type="curve" smooth="yes"/>
			<point x="374" y="367" type="line" smooth="yes"/>
			<point x="395" y="474"/>
			<point x="416" y="582"/>
			<point x="439" y="687" type="curve"/>
			<point x="405" y="687" type="line"/>
			<point x="386" y="582"/>
			<point x="365" y="474"/>
			<point x="344" y="367" type="curve" smooth="yes"/>
			<point x="333" y="310" type="line" smooth="yes"/>
			<point x="313" y="206"/>
			<point x="293" y="102"/>
		</contour>
		<contour>
			<point x="652" y="389" type="curve" smooth="yes"/>
			<point x="652" y="501"/>
			<point x="566" y="583"/>
			<point x="402" y="583" type="curve" smooth="yes"/>
			<point x="393" y="583" type="line"/>
			<point x="389" y="561" type="line"/>
			<point x="401" y="561" type="line" smooth="yes"/>
			<point x="542" y="561"/>
			<point x="623" y="497"/>
			<point x="623" y="385" type="curve" smooth="yes"/>
			<point x="623" y="238"/>
			<point x="516" y="147"/>
			<point x="332" y="147" type="curve" smooth="yes"/>
			<point x="323" y="147" type="line"/>
			<point x="320" y="125" type="line"/>
			<point x="330" y="125" type="line" smooth="yes"/>
			<point x="557" y="125"/>
			<point x="652" y="250"/>
		</contour>
		<contour>
			<point x="61" y="319" type="curve" smooth="yes"/>
			<point x="61" y="207"/>
			<point x="147" y="125"/>
			<point x="311" y="125" type="curve" smooth="yes"/>
			<point x="320" y="125" type="line"/>
			<point x="324" y="147" type="line"/>
			<point x="312" y="147" type="line" smooth="yes"/>
			<point x="171" y="147"/>
			<point x="90" y="211"/>
			<point x="90" y="323" type="curve" smooth="yes"/>
			<point x="90" y="470"/>
			<point x="197" y="561"/>
			<point x="381" y="561" type="curve" smooth="yes"/>
			<point x="390" y="561" type="line"/>
			<point x="393" y="583" type="line"/>
			<point x="383" y="583" type="line" smooth="yes"/>
			<point x="156" y="583"/>
			<point x="61" y="458"/>
		</contour>
	</outline>
</glyph>
<glyph name="Psi" format="1">
	<unicode hex="03A8"/>
	<advance width="780.3503389828"/>
	<outline>
		<contour>
			<point x="211" y="491" type="line" smooth="yes"/>
			<point x="203" y="318"/>
			<point x="252" y="257"/>
			<point x="423" y="257" type="curve" smooth="yes"/>
			<point x="594" y="257"/>
			<point x="675" y="295"/>
			<point x="713" y="471" type="curve" smooth="yes"/>
			<point x="737" y="582" type="line" smooth="yes"/>
			<point x="747" y="630"/>
			<point x="772" y="651"/>
			<point x="823" y="655" type="curve" smooth="yes"/>
			<point x="849" y="657" type="line"/>
			<point x="853" y="677" type="line"/>
			<point x="829" y="677" type="line" smooth="yes"/>
			<point x="761" y="677"/>
			<point x="724" y="650"/>
			<point x="708" y="579" type="curve" smooth="yes"/>
			<point x="684" y="472" type="line" smooth="yes"/>
			<point x="646" y="304"/>
			<point x="577" y="279"/>
			<point x="428" y="279" type="curve" smooth="yes"/>
			<point x="279" y="279"/>
			<point x="231" y="327"/>
			<point x="238" y="492" type="curve" smooth="yes"/>
			<point x="242" y="585" type="line" smooth="yes"/>
			<point x="245" y="645"/>
			<point x="226" y="677"/>
			<point x="153" y="677" type="curve" smooth="yes"/>
			<point x="129" y="677" type="line"/>
			<point x="125" y="657" type="line"/>
			<point x="149" y="655" type="line" smooth="yes"/>
			<point x="200" y="651"/>
			<point x="217" y="630"/>
			<point x="215" y="582" type="curve" smooth="yes"/>
		</contour>
		<contour>
			<point x="253" y="0" type="line"/>
			<point x="501" y="0" type="line"/>
			<point x="505" y="20" type="line"/>
			<point x="388" y="27" type="line"/>
			<point x="374" y="27" type="line"/>
			<point x="257" y="20" type="line"/>
		</contour>
		<contour>
			<point x="379" y="657" type="line"/>
			<point x="484" y="650" type="line"/>
			<point x="498" y="650" type="line"/>
			<point x="606" y="657" type="line"/>
			<point x="610" y="677" type="line"/>
			<point x="383" y="677" type="line"/>
		</contour>
		<contour>
			<point x="357" y="0" type="curve"/>
			<point x="391" y="0" type="line"/>
			<point x="407" y="102"/>
			<point x="425" y="203"/>
			<point x="444" y="307" type="curve" smooth="yes"/>
			<point x="455" y="367" type="line" smooth="yes"/>
			<point x="474" y="471"/>
			<point x="493" y="575"/>
			<point x="513" y="677" type="curve"/>
			<point x="480" y="677" type="line"/>
			<point x="464" y="575"/>
			<point x="446" y="474"/>
			<point x="427" y="370" type="curve" smooth="yes"/>
			<point x="416" y="310" type="line" smooth="yes"/>
			<point x="397" y="206"/>
			<point x="377" y="102"/>
		</contour>
	</outline>
</glyph>
<glyph name="Omega" format="1">
	<unicode hex="03A9"/>
	<advance width="704"/>
	<outline>
		<contour>
			<point x="252" y="0" type="line"/>
			<point x="252" y="28" type="line"/>
			<point x="85" y="28" type="line"/>
			<point x="100" y="7" type="line"/>
			<point x="91" y="153" type="line"/>
			<point x="68" y="153" type="line"/>
			<point x="69" y="0" type="line"/>
		</contour>
		<contour>
			<point x="267" y="0" type="line"/>
			<point x="287" y="108" type="line"/>
			<point x="187" y="172"/>
			<point x="158" y="233"/>
			<point x="158" y="340" type="curve" smooth="yes"/>
			<point x="158" y="542"/>
			<point x="278" y="668"/>
			<point x="419" y="668" type="curve" smooth="yes"/>
			<point x="559" y="668"/>
			<point x="627" y="582"/>
			<point x="627" y="446" type="curve" smooth="yes"/>
			<point x="627" y="291"/>
			<point x="557" y="183"/>
			<point x="414" y="108" type="curve"/>
			<point x="402" y="0" type="line"/>
			<point x="428" y="0" type="line"/>
			<point x="437" y="95" type="line"/>
			<point x="569" y="161"/>
			<point x="659" y="295"/>
			<point x="659" y="450" type="curve" smooth="yes"/>
			<point x="659" y="615"/>
			<point x="550" y="690"/>
			<point x="422" y="690" type="curve" smooth="yes"/>
			<point x="271" y="690"/>
			<point x="126" y="564"/>
			<point x="126" y="340" type="curve" smooth="yes"/>
			<point x="126" y="235"/>
			<point x="168" y="162"/>
			<point x="260" y="98" type="curve"/>
			<point x="241" y="0" type="line"/>
		</contour>
		<contour>
			<point x="607" y="0" type="line"/>
			<point x="647" y="153" type="line"/>
			<point x="624" y="153" type="line"/>
			<point x="581" y="16" type="line"/>
			<point x="602" y="28" type="line"/>
			<point x="414" y="28" type="line"/>
			<point x="414" y="0" type="line"/>
		</contour>
	</outline>
</glyph>
<glyph name="alpha" format="1">
	<unicode hex="03B1"/>
	<advance width="562"/>
	<outline>
		<contour>
			<point x="539" y="461" type="curve" smooth="yes"/>
			<point x="539" y="473"/>
			<point x="532" y="476"/>
			<point x="522" y="476" type="curve" smooth="yes"/>
			<point x="517" y="476"/>
			<point x="512" y="475"/>
			<point x="508" y="474" type="curve"/>
			<point x="387" y="245" type="line"/>
			<point x="382" y="248" type="line"/>
			<point x="309" y="90"/>
			<point x="245" y="10"/>
			<point x="176" y="10" type="curve" smooth="yes"/>
			<point x="121" y="10"/>
			<point x="97" y="54"/>
			<point x="97" y="117" type="curve" smooth="yes"/>
			<point x="97" y="300"/>
			<point x="189" y="461"/>
			<point x="279" y="461" type="curve" smooth="yes"/>
			<point x="337" y="461"/>
			<point x="360" y="402"/>
			<point x="365" y="318" type="curve" smooth="yes"/>
			<point x="378" y="113" type="line" smooth="yes"/>
			<point x="384" y="11"/>
			<point x="400" y="-13"/>
			<point x="447" y="-13" type="curve" smooth="yes"/>
			<point x="483" y="-13"/>
			<point x="519" y="12"/>
			<point x="551" y="59" type="curve"/>
			<point x="540" y="68" type="line"/>
			<point x="511" y="33"/>
			<point x="479" y="13"/>
			<point x="455" y="13" type="curve" smooth="yes"/>
			<point x="418" y="13"/>
			<point x="409" y="37"/>
			<point x="402" y="118" type="curve" smooth="yes"/>
			<point x="385" y="321" type="line" smooth="yes"/>
			<point x="374" y="450"/>
			<point x="340" y="483"/>
			<point x="280" y="483" type="curve" smooth="yes"/>
			<point x="162" y="483"/>
			<point x="69" y="292"/>
			<point x="69" y="115" type="curve" smooth="yes"/>
			<point x="69" y="31"/>
			<point x="112" y="-12"/>
			<point x="173" y="-12" type="curve"/>
			<point x="255" y="-12"/>
			<point x="311" y="59"/>
			<point x="388" y="209" type="curve"/>
			<point x="392" y="215" type="line"/>
			<point x="504" y="395" type="line" smooth="yes"/>
			<point x="536" y="447"/>
			<point x="539" y="450"/>
		</contour>
		<contour>
			<point name="aboveLC" x="276" y="500" type="move"/>
		</contour>
	</outline>
</glyph>
<glyph name="beta" format="1">
	<unicode hex="03B2"/>
	<advance width="539"/>
	<outline>
		<contour>
			<point x="261" y="344" type="line"/>
			<point x="419" y="370"/>
			<point x="514" y="471"/>
			<point x="514" y="589" type="curve" smooth="yes"/>
			<point x="514" y="676"/>
			<point x="457" y="739"/>
			<point x="373" y="739" type="curve" smooth="yes"/>
			<point x="268" y="739"/>
			<point x="198" y="658"/>
			<point x="164" y="491" type="curve" smooth="yes"/>
			<point x="93" y="144" type="line"/>
			<point x="26" y="-185" type="line"/>
			<point x="32" y="-190" type="line"/>
			<point x="53" y="-185" type="line"/>
			<point x="114" y="120" type="line"/>
			<point x="187" y="467" type="line" smooth="yes"/>
			<point x="228" y="661"/>
			<point x="284" y="717"/>
			<point x="373" y="717" type="curve" smooth="yes"/>
			<point x="442" y="717"/>
			<point x="487" y="666"/>
			<point x="487" y="586" type="curve" smooth="yes"/>
			<point x="487" y="489"/>
			<point x="421" y="391"/>
			<point x="255" y="368" type="curve"/>
		</contour>
		<contour>
			<point x="509" y="205" type="curve" smooth="yes"/>
			<point x="509" y="318"/>
			<point x="405" y="391"/>
			<point x="294" y="372" type="curve"/>
			<point x="288" y="360" type="line"/>
			<point x="393" y="370"/>
			<point x="481" y="309"/>
			<point x="481" y="204" type="curve" smooth="yes"/>
			<point x="481" y="96"/>
			<point x="407" y="11"/>
			<point x="301" y="11" type="curve" smooth="yes"/>
			<point x="217" y="11"/>
			<point x="142" y="50"/>
			<point x="108" y="157" type="curve"/>
			<point x="102" y="137" type="line"/>
			<point x="128" y="38"/>
			<point x="202" y="-13"/>
			<point x="300" y="-13" type="curve" smooth="yes"/>
			<point x="422" y="-13"/>
			<point x="509" y="86"/>
		</contour>
	</outline>
</glyph>
<glyph name="gamma" format="1">
	<unicode hex="03B3"/>
	<advance width="446.8075367191"/>
	<outline>
		<contour>
			<point x="188" y="25" type="line"/>
			<point x="130" y="-184" type="line"/>
			<point x="138" y="-190" type="line"/>
			<point x="161" y="-182" type="line"/>
			<point x="204" y="25" type="line"/>
		</contour>
		<contour>
			<point x="180" y="-4" type="curve"/>
			<point x="192" y="-6" type="line"/>
			<point x="202" y="22" type="line"/>
			<point x="203" y="131"/>
			<point x="199" y="267"/>
			<point x="192" y="340" type="curve" smooth="yes"/>
			<point x="182" y="445"/>
			<point x="176" y="483"/>
			<point x="124" y="483" type="curve" smooth="yes"/>
			<point x="93" y="483"/>
			<point x="63" y="458"/>
			<point x="45" y="422" type="curve"/>
			<point x="56" y="413" type="line"/>
			<point x="80" y="450"/>
			<point x="100" y="457"/>
			<point x="117" y="457" type="curve" smooth="yes"/>
			<point x="143" y="457"/>
			<point x="155" y="441"/>
			<point x="164" y="337" type="curve" smooth="yes"/>
			<point x="170" y="271"/>
			<point x="178" y="177"/>
		</contour>
		<contour>
			<point x="192" y="-6" type="line"/>
			<point x="299" y="114"/>
			<point x="364" y="218"/>
			<point x="408" y="306" type="curve" smooth="yes"/>
			<point x="444" y="378"/>
			<point x="448" y="422"/>
			<point x="448" y="447" type="curve" smooth="yes"/>
			<point x="448" y="463"/>
			<point x="447" y="470"/>
			<point x="443" y="478" type="curve"/>
			<point x="440" y="481"/>
			<point x="435" y="483"/>
			<point x="428" y="483" type="curve" smooth="yes"/>
			<point x="416" y="483"/>
			<point x="402" y="470"/>
			<point x="402" y="447" type="curve" smooth="yes"/>
			<point x="402" y="433"/>
			<point x="406" y="406"/>
			<point x="408" y="391" type="curve" smooth="yes"/>
			<point x="414" y="338" type="line"/>
			<point x="419" y="410" type="line"/>
			<point x="408" y="362"/>
			<point x="400" y="339"/>
			<point x="388" y="314" type="curve" smooth="yes"/>
			<point x="346" y="222"/>
			<point x="288" y="132"/>
			<point x="200" y="28" type="curve"/>
		</contour>
	</outline>
</glyph>
<glyph name="delta" format="1">
  <advance width="461"/>
  <unicode hex="03B4"/>
  <outline>
    <contour>
      <point x="317" y="455" type="line"/>
      <point x="181" y="453"/>
      <point x="56" y="337"/>
      <point x="56" y="168" type="curve" smooth="yes"/>
      <point x="56" y="62"/>
      <point x="109" y="-13"/>
      <point x="221" y="-13" type="curve" smooth="yes"/>
      <point x="346" y="-13"/>
      <point x="433" y="106"/>
      <point x="433" y="232" type="curve" smooth="yes"/>
      <point x="433" y="348"/>
      <point x="374" y="410"/>
      <point x="303" y="475" type="curve" smooth="yes"/>
      <point x="225" y="547"/>
      <point x="204" y="573"/>
      <point x="204" y="619" type="curve" smooth="yes"/>
      <point x="204" y="693"/>
      <point x="265" y="717"/>
      <point x="324" y="717" type="curve" smooth="yes"/>
      <point x="377" y="717"/>
      <point x="432" y="696"/>
      <point x="454" y="681" type="curve"/>
      <point x="434" y="701" type="line"/>
      <point x="387" y="728" type="line"/>
      <point x="435" y="663" type="line" smooth="yes"/>
      <point x="446" y="649"/>
      <point x="456" y="641"/>
      <point x="471" y="641" type="curve" smooth="yes"/>
      <point x="484" y="641"/>
      <point x="494" y="654"/>
      <point x="492" y="662" type="curve"/>
      <point x="470" y="706"/>
      <point x="404" y="739"/>
      <point x="326" y="739" type="curve" smooth="yes"/>
      <point x="256" y="739"/>
      <point x="177" y="707"/>
      <point x="177" y="618" type="curve" smooth="yes"/>
      <point x="177" y="566"/>
      <point x="204" y="528"/>
      <point x="287" y="457" type="curve" smooth="yes"/>
      <point x="369" y="386"/>
      <point x="405" y="325"/>
      <point x="405" y="231" type="curve" smooth="yes"/>
      <point x="405" y="119"/>
      <point x="327" y="7"/>
      <point x="222" y="7" type="curve" smooth="yes"/>
      <point x="138" y="7"/>
      <point x="84" y="59"/>
      <point x="84" y="171" type="curve" smooth="yes"/>
      <point x="84" y="326"/>
      <point x="192" y="429"/>
      <point x="320" y="442" type="curve"/>
    </contour>
  </outline>
</glyph>
<glyph name="epsilon" format="1">
	<unicode hex="03B5"/>
	<advance width="384"/>
	<outline>
		<contour>
			<point x="31" y="98" type="curve" smooth="yes"/>
			<point x="31" y="16"/>
			<point x="99" y="-13"/>
			<point x="170" y="-13" type="curve" smooth="yes"/>
			<point x="253" y="-13"/>
			<point x="314" y="19"/>
			<point x="364" y="92" type="curve"/>
			<point x="353" y="100" type="line"/>
			<point x="309" y="43"/>
			<point x="256" y="12"/>
			<point x="173" y="12" type="curve" smooth="yes"/>
			<point x="109" y="12"/>
			<point x="58" y="37"/>
			<point x="58" y="99" type="curve" smooth="yes"/>
			<point x="58" y="164"/>
			<point x="106" y="231"/>
			<point x="251" y="241" type="curve" smooth="yes"/>
			<point x="256" y="241"/>
			<point x="272" y="241"/>
			<point x="279" y="240" type="curve"/>
			<point x="283" y="267" type="line"/>
			<point x="273" y="266"/>
			<point x="253" y="266"/>
			<point x="244" y="266" type="curve" smooth="yes"/>
			<point x="149" y="266"/>
			<point x="119" y="307"/>
			<point x="119" y="355" type="curve" smooth="yes"/>
			<point x="119" y="424"/>
			<point x="167" y="463"/>
			<point x="265" y="463" type="curve" smooth="yes"/>
			<point x="291" y="463"/>
			<point x="305" y="461"/>
			<point x="337" y="452" type="curve"/>
			<point x="345" y="466" type="line"/>
			<point x="307" y="470" type="line"/>
			<point x="355" y="424" type="line" smooth="yes"/>
			<point x="369" y="411"/>
			<point x="374" y="408"/>
			<point x="383" y="408" type="curve" smooth="yes"/>
			<point x="394" y="408"/>
			<point x="401" y="419"/>
			<point x="400" y="425" type="curve"/>
			<point x="384" y="468"/>
			<point x="309" y="483"/>
			<point x="262" y="483" type="curve" smooth="yes"/>
			<point x="169" y="483"/>
			<point x="92" y="440"/>
			<point x="92" y="352" type="curve" smooth="yes"/>
			<point x="92" y="296"/>
			<point x="132" y="252"/>
			<point x="230" y="249" type="curve"/>
			<point x="231" y="254" type="line"/>
			<point x="89" y="246"/>
			<point x="31" y="172"/>
		</contour>
		<contour>
			<point name="aboveLC" x="275" y="500" type="move"/>
		</contour>
	</outline>
</glyph>
<glyph name="zeta" format="1">
	<unicode hex="03B6"/>
	<advance width="357.3783820827"/>
	<outline>
		<contour>
			<point x="278" y="-188" type="line"/>
			<point x="309" y="-151"/>
			<point x="329" y="-105"/>
			<point x="329" y="-71" type="curve" smooth="yes"/>
			<point x="329" y="-30"/>
			<point x="310" y="-5"/>
			<point x="217" y="41" type="curve" smooth="yes"/>
			<point x="127" y="86"/>
			<point x="100" y="120"/>
			<point x="100" y="185" type="curve" smooth="yes"/>
			<point x="100" y="313"/>
			<point x="204" y="459"/>
			<point x="477" y="719" type="curve"/>
			<point x="459" y="729" type="line"/>
			<point x="193" y="473"/>
			<point x="72" y="328"/>
			<point x="72" y="182" type="curve" smooth="yes"/>
			<point x="72" y="107"/>
			<point x="114" y="61"/>
			<point x="205" y="16" type="curve" smooth="yes"/>
			<point x="289" y="-25"/>
			<point x="304" y="-45"/>
			<point x="304" y="-73" type="curve" smooth="yes"/>
			<point x="304" y="-110"/>
			<point x="282" y="-152"/>
			<point x="266" y="-178" type="curve"/>
		</contour>
		<contour>
			<point x="477" y="719" type="line"/>
			<point x="480" y="738" type="line"/>
			<point x="182" y="745" type="line"/>
			<point x="177" y="718" type="line"/>
			<point x="463" y="718" type="line"/>
		</contour>
	</outline>
</glyph>
<glyph name="eta" format="1">
	<unicode hex="03B7"/>
	<advance width="519"/>
	<outline>
		<contour>
			<point x="103" y="0" type="line"/>
			<point x="109" y="-5" type="line"/>
			<point x="130" y="0" type="line"/>
			<point x="199" y="332" type="line" smooth="yes"/>
			<point x="220" y="434"/>
			<point x="210" y="483"/>
			<point x="154" y="483" type="curve" smooth="yes"/>
			<point x="129" y="483"/>
			<point x="108" y="472"/>
			<point x="81" y="450" type="curve"/>
			<point x="88" y="437" type="line"/>
			<point x="108" y="450"/>
			<point x="129" y="457"/>
			<point x="148" y="457" type="curve" smooth="yes"/>
			<point x="181" y="457"/>
			<point x="199" y="436"/>
			<point x="176" y="331" type="curve" smooth="yes"/>
		</contour>
		<contour>
			<point x="340" y="-185" type="line"/>
			<point x="346" y="-190" type="line"/>
			<point x="367" y="-185" type="line"/>
			<point x="441" y="146" type="line" smooth="yes"/>
			<point x="473" y="291"/>
			<point x="482" y="344"/>
			<point x="482" y="398" type="curve" smooth="yes"/>
			<point x="482" y="463"/>
			<point x="449" y="483"/>
			<point x="408" y="483" type="curve" smooth="yes"/>
			<point x="348" y="483"/>
			<point x="263" y="428"/>
			<point x="184" y="337" type="curve"/>
			<point x="188" y="323" type="line"/>
			<point x="284" y="424"/>
			<point x="356" y="458"/>
			<point x="399" y="458" type="curve" smooth="yes"/>
			<point x="436" y="458"/>
			<point x="456" y="441"/>
			<point x="456" y="400" type="curve" smooth="yes"/>
			<point x="456" y="346"/>
			<point x="449" y="290"/>
			<point x="417" y="149" type="curve" smooth="yes"/>
		</contour>
		<contour>
			<point name="aboveLC" x="330" y="500" type="move"/>
		</contour>
		<contour>
			<point name="belowLC" x="114" y="-22" type="move"/>
		</contour>
	</outline>
</glyph>
<glyph name="theta" format="1">
	<unicode hex="03B8"/>
	<advance width="460.0069930568"/>
	<outline>
		<contour>
			<point x="223" y="-13" type="curve"/>
			<point x="325" y="-13"/>
			<point x="423" y="84"/>
			<point x="462" y="357" type="curve" smooth="yes"/>
			<point x="500" y="630"/>
			<point x="445" y="748"/>
			<point x="340" y="748" type="curve"/>
			<point x="246" y="748"/>
			<point x="131" y="640"/>
			<point x="93" y="357" type="curve" smooth="yes"/>
			<point x="56" y="84"/>
			<point x="113" y="-13"/>
		</contour>
		<contour>
			<point x="98" y="354" type="line"/>
			<point x="456" y="354" type="line"/>
			<point x="460" y="379" type="line"/>
			<point x="102" y="379" type="line"/>
		</contour>
		<contour>
			<point x="227" y="7" type="curve"/>
			<point x="132" y="7"/>
			<point x="84" y="104"/>
			<point x="122" y="368" type="curve" smooth="yes"/>
			<point x="159" y="626"/>
			<point x="258" y="728"/>
			<point x="332" y="728" type="curve"/>
			<point x="431" y="728"/>
			<point x="470" y="605"/>
			<point x="435" y="358" type="curve" smooth="yes"/>
			<point x="397" y="88"/>
			<point x="313" y="7"/>
		</contour>
	</outline>
</glyph>
<glyph name="iota" format="1">
	<unicode hex="03B9"/>
	<advance width="287"/>
	<outline>
		<contour>
			<point x="142" y="-13" type="curve" smooth="yes"/>
			<point x="173" y="-13"/>
			<point x="210" y="7"/>
			<point x="248" y="67" type="curve"/>
			<point x="238" y="75" type="line"/>
			<point x="203" y="29"/>
			<point x="173" y="13"/>
			<point x="148" y="13" type="curve" smooth="yes"/>
			<point x="120" y="13"/>
			<point x="106" y="28"/>
			<point x="116" y="90" type="curve" smooth="yes"/>
			<point x="131" y="172"/>
			<point x="152" y="253"/>
			<point x="196" y="470" type="curve"/>
			<point x="190" y="475" type="line"/>
			<point x="169" y="470" type="line"/>
			<point x="92" y="87" type="line" smooth="yes"/>
			<point x="77" y="10"/>
			<point x="106" y="-13"/>
		</contour>
		<contour>
			<point name="aboveLC" x="181" y="500" type="move"/>
		</contour>
	</outline>
</glyph>
<glyph name="kappa" format="1">
	<unicode hex="03BA"/>
	<advance width="420"/>
	<outline>
		<contour>
			<point x="44" y="0" type="line"/>
			<point x="50" y="-5" type="line"/>
			<point x="71" y="0" type="line"/>
			<point x="95" y="120" type="line"/>
			<point x="109" y="194"/>
			<point x="127" y="280"/>
			<point x="166" y="470" type="curve"/>
			<point x="160" y="475" type="line"/>
			<point x="139" y="470" type="line"/>
		</contour>
		<contour>
			<point x="240" y="54" type="line" smooth="yes"/>
			<point x="257" y="5"/>
			<point x="270" y="-13"/>
			<point x="305" y="-13" type="curve" smooth="yes"/>
			<point x="342" y="-13"/>
			<point x="366" y="13"/>
			<point x="400" y="61" type="curve"/>
			<point x="389" y="69" type="line"/>
			<point x="367" y="41"/>
			<point x="342" y="10"/>
			<point x="308" y="10" type="curve" smooth="yes"/>
			<point x="282" y="10"/>
			<point x="273" y="23"/>
			<point x="259" y="66" type="curve" smooth="yes"/>
			<point x="230" y="156" type="line" smooth="yes"/>
			<point x="212" y="211"/>
			<point x="184" y="247"/>
			<point x="128" y="249" type="curve"/>
			<point x="129" y="244" type="line"/>
			<point x="356" y="410" type="line" smooth="yes"/>
			<point x="399" y="441"/>
			<point x="404" y="448"/>
			<point x="404" y="458" type="curve" smooth="yes"/>
			<point x="404" y="469"/>
			<point x="395" y="474"/>
			<point x="387" y="475" type="curve"/>
			<point x="113" y="253" type="line"/>
			<point x="114" y="235" type="line"/>
			<point x="166" y="237"/>
			<point x="187" y="209"/>
			<point x="209" y="145" type="curve" smooth="yes"/>
		</contour>
	</outline>
</glyph>
<glyph name="lambda" format="1">
	<unicode hex="03BB"/>
	<advance width="491"/>
	<outline>
		<contour>
			<point x="304" y="122" type="line" smooth="yes"/>
			<point x="310" y="9"/>
			<point x="328" y="-13"/>
			<point x="373" y="-13" type="curve" smooth="yes"/>
			<point x="420" y="-13"/>
			<point x="456" y="32"/>
			<point x="475" y="59" type="curve"/>
			<point x="464" y="68" type="line"/>
			<point x="431" y="30"/>
			<point x="404" y="13"/>
			<point x="376" y="13" type="curve" smooth="yes"/>
			<point x="342" y="13"/>
			<point x="331" y="35"/>
			<point x="326" y="125" type="curve" smooth="yes"/>
			<point x="297" y="606" type="line" smooth="yes"/>
			<point x="291" y="713"/>
			<point x="251" y="739"/>
			<point x="203" y="739" type="curve" smooth="yes"/>
			<point x="172" y="739"/>
			<point x="136" y="724"/>
			<point x="111" y="696" type="curve"/>
			<point x="119" y="682" type="line"/>
			<point x="142" y="699"/>
			<point x="164" y="713"/>
			<point x="200" y="713" type="curve" smooth="yes"/>
			<point x="247" y="713"/>
			<point x="275" y="688"/>
			<point x="280" y="583" type="curve" smooth="yes"/>
		</contour>
		<contour>
			<point x="-7" y="0" type="line"/>
			<point x="18" y="0" type="line"/>
			<point x="304" y="469" type="line"/>
			<point x="296" y="490" type="line"/>
			<point x="-13" y="5" type="line"/>
		</contour>
	</outline>
</glyph>
<glyph name="mu" format="1">
	<unicode hex="03BC"/>
	<advance width="556"/>
	<outline>
		<contour>
			<point x="37" y="-174" type="line"/>
			<point x="38" y="-185"/>
			<point x="44" y="-188"/>
			<point x="50" y="-188" type="curve" smooth="yes"/>
			<point x="59" y="-188"/>
			<point x="65" y="-184"/>
			<point x="68" y="-167" type="curve" smooth="yes"/>
			<point x="105" y="72" type="line"/>
			<point x="110" y="85" type="line"/>
			<point x="130" y="185"/>
			<point x="149" y="276"/>
			<point x="194" y="474" type="curve"/>
			<point x="187" y="479" type="line"/>
			<point x="163" y="470" type="line"/>
			<point x="92" y="80" type="line"/>
		</contour>
		<contour>
			<point x="210" y="-13" type="curve" smooth="yes"/>
			<point x="284" y="-13"/>
			<point x="348" y="41"/>
			<point x="398" y="133" type="curve"/>
			<point x="394" y="141" type="line"/>
			<point x="338" y="60"/>
			<point x="282" y="15"/>
			<point x="220" y="15" type="curve" smooth="yes"/>
			<point x="170" y="15"/>
			<point x="128" y="42"/>
			<point x="108" y="105" type="curve"/>
			<point x="97" y="88" type="line"/>
			<point x="105" y="22"/>
			<point x="156" y="-13"/>
		</contour>
		<contour>
			<point x="419" y="-13" type="curve" smooth="yes"/>
			<point x="449" y="-13"/>
			<point x="471" y="4"/>
			<point x="483" y="18" type="curve"/>
			<point x="480" y="31" type="line"/>
			<point x="465" y="22"/>
			<point x="448" y="15"/>
			<point x="424" y="15" type="curve" smooth="yes"/>
			<point x="403" y="15"/>
			<point x="390" y="22"/>
			<point x="390" y="48" type="curve" smooth="yes"/>
			<point x="390" y="87"/>
			<point x="419" y="203"/>
			<point x="484" y="474" type="curve"/>
			<point x="476" y="479" type="line"/>
			<point x="452" y="470" type="line"/>
			<point x="376" y="90"/>
			<point x="368" y="66"/>
			<point x="368" y="36" type="curve" smooth="yes"/>
			<point x="368" y="3"/>
			<point x="389" y="-13"/>
		</contour>
	</outline>
</glyph>
<glyph name="nu" format="1">
	<unicode hex="03BD"/>
	<advance width="457"/>
	<outline>
		<contour>
			<point x="180" y="-4" type="curve"/>
			<point x="192" y="-6" type="line"/>
			<point x="202" y="22" type="line"/>
			<point x="203" y="131"/>
			<point x="199" y="267"/>
			<point x="192" y="340" type="curve" smooth="yes"/>
			<point x="182" y="445"/>
			<point x="176" y="483"/>
			<point x="124" y="483" type="curve" smooth="yes"/>
			<point x="93" y="483"/>
			<point x="63" y="458"/>
			<point x="45" y="422" type="curve"/>
			<point x="56" y="413" type="line"/>
			<point x="80" y="450"/>
			<point x="100" y="457"/>
			<point x="117" y="457" type="curve" smooth="yes"/>
			<point x="143" y="457"/>
			<point x="155" y="441"/>
			<point x="164" y="337" type="curve" smooth="yes"/>
			<point x="170" y="271"/>
			<point x="178" y="177"/>
		</contour>
		<contour>
			<point x="192" y="-6" type="line"/>
			<point x="299" y="114"/>
			<point x="374" y="218"/>
			<point x="418" y="306" type="curve" smooth="yes"/>
			<point x="454" y="378"/>
			<point x="458" y="422"/>
			<point x="458" y="447" type="curve" smooth="yes"/>
			<point x="458" y="463"/>
			<point x="457" y="470"/>
			<point x="453" y="478" type="curve"/>
			<point x="450" y="481"/>
			<point x="445" y="483"/>
			<point x="438" y="483" type="curve" smooth="yes"/>
			<point x="426" y="483"/>
			<point x="412" y="470"/>
			<point x="412" y="447" type="curve" smooth="yes"/>
			<point x="412" y="433"/>
			<point x="416" y="406"/>
			<point x="418" y="391" type="curve" smooth="yes"/>
			<point x="424" y="338" type="line"/>
			<point x="429" y="410" type="line"/>
			<point x="418" y="362"/>
			<point x="410" y="339"/>
			<point x="398" y="314" type="curve" smooth="yes"/>
			<point x="356" y="222"/>
			<point x="288" y="132"/>
			<point x="200" y="28" type="curve"/>
		</contour>
	</outline>
</glyph>
<glyph name="xi" format="1">
	<unicode hex="03BE"/>
	<advance width="386"/>
	<outline>
		<contour>
			<point x="295" y="-108"/>
			<point x="276" y="-147"/>
			<point x="255" y="-178" type="curve"/>
			<point x="269" y="-188" type="line"/>
			<point x="301" y="-149"/>
			<point x="320" y="-106"/>
			<point x="320" y="-69" type="curve" smooth="yes"/>
			<point x="320" y="-30"/>
			<point x="298" y="-6"/>
			<point x="210" y="40" type="curve" smooth="yes"/>
			<point x="130" y="82"/>
			<point x="91" y="116"/>
			<point x="91" y="187" type="curve" smooth="yes"/>
			<point x="91" y="305"/>
			<point x="202" y="360"/>
			<point x="324" y="360" type="curve" smooth="yes"/>
			<point x="337" y="360"/>
			<point x="373" y="359"/>
			<point x="393" y="359" type="curve"/>
			<point x="400" y="386" type="line"/>
			<point x="383" y="385"/>
			<point x="363" y="385"/>
			<point x="353" y="385" type="curve" smooth="yes"/>
			<point x="236" y="385"/>
			<point x="182" y="448"/>
			<point x="182" y="513" type="curve" smooth="yes"/>
			<point x="182" y="634"/>
			<point x="308" y="715"/>
			<point x="478" y="719" type="curve"/>
			<point x="481" y="738" type="line"/>
			<point x="173" y="747" type="line"/>
			<point x="168" y="722" type="line"/>
			<point x="417" y="718" type="line"/>
			<point x="418" y="725" type="line"/>
			<point x="276" y="713"/>
			<point x="158" y="635"/>
			<point x="158" y="512" type="curve" smooth="yes"/>
			<point x="158" y="443"/>
			<point x="197" y="382"/>
			<point x="318" y="367" type="curve"/>
			<point x="318" y="375" type="line"/>
			<point x="128" y="372"/>
			<point x="63" y="276"/>
			<point x="63" y="186" type="curve" smooth="yes"/>
			<point x="63" y="106"/>
			<point x="103" y="65"/>
			<point x="199" y="14" type="curve" smooth="yes"/>
			<point x="282" y="-30"/>
			<point x="295" y="-44"/>
			<point x="295" y="-74" type="curve" smooth="yes"/>
		</contour>
	</outline>
</glyph>
<glyph name="omicron" format="1">
	<unicode hex="03BF"/>
	<advance width="474.3648198483"/>
	<outline>
		<contour>
			<point x="223" y="-13" type="curve" smooth="yes"/>
			<point x="364" y="-13"/>
			<point x="440" y="149"/>
			<point x="440" y="301" type="curve" smooth="yes"/>
			<point x="440" y="420"/>
			<point x="379" y="483"/>
			<point x="287" y="483" type="curve" smooth="yes"/>
			<point x="149" y="483"/>
			<point x="69" y="316"/>
			<point x="69" y="171" type="curve"/>
			<point x="69" y="30"/>
			<point x="143" y="-13"/>
		</contour>
		<contour>
			<point x="226" y="7" type="curve" smooth="yes"/>
			<point x="157" y="7"/>
			<point x="97" y="44"/>
			<point x="97" y="172" type="curve" smooth="yes"/>
			<point x="97" y="312"/>
			<point x="167" y="463"/>
			<point x="287" y="463" type="curve" smooth="yes"/>
			<point x="375" y="463"/>
			<point x="412" y="392"/>
			<point x="412" y="290" type="curve" smooth="yes"/>
			<point x="412" y="168"/>
			<point x="347" y="7"/>
		</contour>
		<contour>
			<point name="aboveLC" x="281" y="500" type="move"/>
		</contour>
	</outline>
</glyph>
<glyph name="pi" format="1">
	<unicode hex="03C0"/>
	<advance width="592"/>
	<outline>
		<contour>
			<point x="62" y="438" type="line"/>
			<point x="232" y="447" type="line"/>
			<point x="447" y="447" type="line"/>
			<point x="617" y="444" type="line"/>
			<point x="622" y="473" type="line"/>
			<point x="263" y="473" type="line" smooth="yes"/>
			<point x="188" y="473"/>
			<point x="120" y="465"/>
			<point x="64" y="456" type="curve"/>
		</contour>
		<contour>
			<point x="429" y="-13" type="curve" smooth="yes"/>
			<point x="460" y="-13"/>
			<point x="487" y="3"/>
			<point x="501" y="18" type="curve"/>
			<point x="498" y="31" type="line"/>
			<point x="480" y="21"/>
			<point x="465" y="15"/>
			<point x="438" y="15" type="curve" smooth="yes"/>
			<point x="412" y="15"/>
			<point x="385" y="24"/>
			<point x="385" y="57" type="curve" smooth="yes"/>
			<point x="385" y="81"/>
			<point x="400" y="158"/>
			<point x="460" y="459" type="curve"/>
			<point x="438" y="459" type="line"/>
			<point x="376" y="164"/>
			<point x="356" y="86"/>
			<point x="356" y="50" type="curve" smooth="yes"/>
			<point x="356" y="2"/>
			<point x="390" y="-13"/>
		</contour>
		<contour>
			<point x="40" y="-10" type="curve" smooth="yes"/>
			<point x="80" y="-10"/>
			<point x="120" y="-4"/>
			<point x="139" y="53" type="curve" smooth="yes"/>
			<point x="180" y="179"/>
			<point x="212" y="321"/>
			<point x="241" y="459" type="curve"/>
			<point x="220" y="459" type="line"/>
			<point x="192" y="321"/>
			<point x="159" y="183"/>
			<point x="105" y="22" type="curve"/>
			<point x="120" y="24" type="line"/>
			<point x="118" y="34" type="line"/>
			<point x="84" y="37"/>
			<point x="60" y="38"/>
			<point x="41" y="37" type="curve"/>
			<point x="27" y="32"/>
			<point x="15" y="24"/>
			<point x="15" y="9" type="curve" smooth="yes"/>
			<point x="15" y="-1"/>
			<point x="22" y="-10"/>
		</contour>
	</outline>
</glyph>
<glyph name="rho" format="1">
	<unicode hex="03C1"/>
	<advance width="491"/>
	<outline>
		<contour>
			<point x="20" y="-185" type="line"/>
			<point x="26" y="-190" type="line"/>
			<point x="47" y="-185" type="line"/>
			<point x="103" y="92" type="line"/>
			<point x="131" y="213" type="line" smooth="yes"/>
			<point x="168" y="374"/>
			<point x="224" y="463"/>
			<point x="319" y="463" type="curve" smooth="yes"/>
			<point x="397" y="463"/>
			<point x="430" y="404"/>
			<point x="430" y="313" type="curve" smooth="yes"/>
			<point x="430" y="167"/>
			<point x="362" y="7"/>
			<point x="232" y="7" type="curve" smooth="yes"/>
			<point x="163" y="7"/>
			<point x="116" y="51"/>
			<point x="96" y="127" type="curve"/>
			<point x="87" y="114" type="line"/>
			<point x="104" y="36"/>
			<point x="154" y="-13"/>
			<point x="229" y="-13" type="curve" smooth="yes"/>
			<point x="377" y="-13"/>
			<point x="457" y="143"/>
			<point x="457" y="310" type="curve" smooth="yes"/>
			<point x="457" y="418"/>
			<point x="414" y="483"/>
			<point x="323" y="483" type="curve" smooth="yes"/>
			<point x="207" y="483"/>
			<point x="145" y="388"/>
			<point x="104" y="198" type="curve" smooth="yes"/>
			<point x="85" y="110" type="line"/>
		</contour>
		<contour>
			<point name="aboveLC" x="329" y="500" type="move"/>
		</contour>
	</outline>
</glyph>
<glyph name="sigma.end" format="1">
	<unicode hex="03C2"/>
	<advance width="389"/>
	<outline>
		<contour>
			<point x="294" y="-109"/>
			<point x="277" y="-140"/>
			<point x="254" y="-178" type="curve"/>
			<point x="268" y="-188" type="line"/>
			<point x="299" y="-151"/>
			<point x="319" y="-105"/>
			<point x="319" y="-71" type="curve" smooth="yes"/>
			<point x="319" y="-30"/>
			<point x="300" y="-6"/>
			<point x="217" y="41" type="curve" smooth="yes"/>
			<point x="131" y="90"/>
			<point x="93" y="130"/>
			<point x="93" y="218" type="curve" smooth="yes"/>
			<point x="93" y="340"/>
			<point x="169" y="465"/>
			<point x="335" y="465" type="curve"/>
			<point x="301" y="475" type="line"/>
			<point x="371" y="431" type="line" smooth="yes"/>
			<point x="387" y="421"/>
			<point x="392" y="418"/>
			<point x="404" y="418" type="curve" smooth="yes"/>
			<point x="415" y="418"/>
			<point x="423" y="428"/>
			<point x="423" y="437" type="curve"/>
			<point x="411" y="462"/>
			<point x="370" y="483"/>
			<point x="322" y="483" type="curve" smooth="yes"/>
			<point x="161" y="483"/>
			<point x="67" y="355"/>
			<point x="67" y="213" type="curve" smooth="yes"/>
			<point x="67" y="125"/>
			<point x="107" y="72"/>
			<point x="205" y="16" type="curve" smooth="yes"/>
			<point x="279" y="-26"/>
			<point x="294" y="-45"/>
			<point x="294" y="-73" type="curve" smooth="yes"/>
		</contour>
	</outline>
</glyph>
<glyph name="sigma" format="1">
	<unicode hex="03C3"/>
	<advance width="514.4123300568"/>
	<outline>
		<contour>
			<point x="210" y="-13" type="curve" smooth="yes"/>
			<point x="322" y="-13"/>
			<point x="432" y="92"/>
			<point x="432" y="267" type="curve" smooth="yes"/>
			<point x="432" y="367"/>
			<point x="386" y="456"/>
			<point x="291" y="459" type="curve"/>
			<point x="279" y="453" type="line"/>
			<point x="363" y="440"/>
			<point x="404" y="369"/>
			<point x="404" y="273" type="curve" smooth="yes"/>
			<point x="404" y="143"/>
			<point x="331" y="7"/>
			<point x="215" y="7" type="curve" smooth="yes"/>
			<point x="153" y="7"/>
			<point x="92" y="41"/>
			<point x="92" y="156" type="curve" smooth="yes"/>
			<point x="92" y="319"/>
			<point x="190" y="449"/>
			<point x="351" y="449" type="curve"/>
			<point x="341" y="449" type="line"/>
			<point x="540" y="445" type="line"/>
			<point x="544" y="470" type="line"/>
			<point x="360" y="470" type="line" smooth="yes"/>
			<point x="178" y="470"/>
			<point x="64" y="330"/>
			<point x="64" y="149" type="curve" smooth="yes"/>
			<point x="64" y="34"/>
			<point x="135" y="-13"/>
		</contour>
	</outline>
</glyph>
<glyph name="tau" format="1">
	<unicode hex="03C4"/>
	<advance width="386.4123300568"/>
	<outline>
		<contour>
			<point x="43" y="435" type="line"/>
			<point x="219" y="448" type="line"/>
			<point x="433" y="445" type="line"/>
			<point x="437" y="470" type="line"/>
			<point x="231" y="470" type="line"/>
			<point x="166" y="470"/>
			<point x="89" y="462"/>
			<point x="43" y="451" type="curve"/>
		</contour>
		<contour>
			<point x="135" y="58" type="curve" smooth="yes"/>
			<point x="135" y="12"/>
			<point x="150" y="-13"/>
			<point x="202" y="-13" type="curve" smooth="yes"/>
			<point x="234" y="-13"/>
			<point x="290" y="8"/>
			<point x="332" y="68" type="curve"/>
			<point x="321" y="76" type="line"/>
			<point x="279" y="23"/>
			<point x="227" y="13"/>
			<point x="205" y="13" type="curve" smooth="yes"/>
			<point x="176" y="13"/>
			<point x="161" y="23"/>
			<point x="161" y="57" type="curve" smooth="yes"/>
			<point x="161" y="111"/>
			<point x="217" y="324"/>
			<point x="253" y="461" type="curve"/>
			<point x="231" y="461" type="line"/>
			<point x="225" y="447" type="line"/>
			<point x="190" y="326"/>
			<point x="135" y="116"/>
		</contour>
	</outline>
</glyph>
<glyph name="upsilon" format="1">
	<unicode hex="03C5"/>
	<advance width="517"/>
	<outline>
		<contour>
			<point x="133" y="103" type="curve" smooth="yes"/>
			<point x="133" y="17"/>
			<point x="187" y="-13"/>
			<point x="255" y="-13" type="curve" smooth="yes"/>
			<point x="389" y="-13"/>
			<point x="472" y="131"/>
			<point x="472" y="302" type="curve" smooth="yes"/>
			<point x="472" y="366"/>
			<point x="457" y="451"/>
			<point x="445" y="479" type="curve"/>
			<point x="441" y="482"/>
			<point x="438" y="483"/>
			<point x="433" y="483" type="curve" smooth="yes"/>
			<point x="420" y="483"/>
			<point x="412" y="471"/>
			<point x="412" y="451" type="curve" smooth="yes"/>
			<point x="412" y="427"/>
			<point x="418" y="401"/>
			<point x="450" y="330" type="curve"/>
			<point x="451" y="309"/>
			<point x="451" y="304"/>
			<point x="451" y="294" type="curve" smooth="yes"/>
			<point x="451" y="114"/>
			<point x="361" y="7"/>
			<point x="258" y="7" type="curve" smooth="yes"/>
			<point x="196" y="7"/>
			<point x="162" y="34"/>
			<point x="162" y="101" type="curve" smooth="yes"/>
			<point x="162" y="173"/>
			<point x="213" y="343"/>
			<point x="213" y="404" type="curve" smooth="yes"/>
			<point x="213" y="457"/>
			<point x="195" y="483"/>
			<point x="154" y="483" type="curve" smooth="yes"/>
			<point x="123" y="483"/>
			<point x="93" y="458"/>
			<point x="75" y="422" type="curve"/>
			<point x="86" y="413" type="line"/>
			<point x="110" y="450"/>
			<point x="130" y="457"/>
			<point x="147" y="457" type="curve" smooth="yes"/>
			<point x="166" y="457"/>
			<point x="185" y="450"/>
			<point x="185" y="405" type="curve" smooth="yes"/>
			<point x="185" y="339"/>
			<point x="133" y="179"/>
		</contour>
		<contour>
			<point name="aboveLC" x="336" y="490" type="move"/>
		</contour>
	</outline>
</glyph>
<glyph name="phi" format="1">
	<unicode hex="03C6"/>
	<advance width="655.0234134847"/>
	<outline>
		<contour>
			<point x="296" y="10" type="line"/>
			<point x="154" y="10"/>
			<point x="97" y="84"/>
			<point x="97" y="183" type="curve" smooth="yes"/>
			<point x="97" y="294"/>
			<point x="152" y="399"/>
			<point x="254" y="460" type="curve"/>
			<point x="244" y="476" type="line"/>
			<point x="148" y="430"/>
			<point x="69" y="311"/>
			<point x="69" y="182" type="curve" smooth="yes"/>
			<point x="69" y="67"/>
			<point x="144" y="-13"/>
			<point x="291" y="-13" type="curve"/>
		</contour>
		<contour>
			<point x="370" y="297" type="line" smooth="yes"/>
			<point x="390" y="388"/>
			<point x="413" y="463"/>
			<point x="488" y="463" type="curve" smooth="yes"/>
			<point x="561" y="463"/>
			<point x="596" y="396"/>
			<point x="596" y="326" type="curve" smooth="yes"/>
			<point x="596" y="128"/>
			<point x="490" y="10"/>
			<point x="305" y="10" type="curve"/>
			<point x="303" y="-13" type="line"/>
			<point x="501" y="-13"/>
			<point x="624" y="118"/>
			<point x="624" y="323" type="curve"/>
			<point x="624" y="414"/>
			<point x="570" y="483"/>
			<point x="492" y="483" type="curve" smooth="yes"/>
			<point x="389" y="483"/>
			<point x="366" y="399"/>
			<point x="344" y="297" type="curve" smooth="yes"/>
			<point x="238" y="-185" type="line"/>
			<point x="244" y="-190" type="line"/>
			<point x="265" y="-185" type="line"/>
		</contour>
	</outline>
</glyph>
<glyph name="chi" format="1">
	<unicode hex="03C7"/>
	<advance width="441"/>
	<outline>
		<contour>
			<point x="86" y="413" type="line"/>
			<point x="109" y="448"/>
			<point x="128" y="457"/>
			<point x="148" y="457" type="curve" smooth="yes"/>
			<point x="187" y="457"/>
			<point x="191" y="425"/>
			<point x="209" y="346" type="curve" smooth="yes"/>
			<point x="251" y="163" type="line"/>
			<point x="267" y="186" type="line"/>
			<point x="231" y="362" type="line" smooth="yes"/>
			<point x="213" y="449"/>
			<point x="201" y="483"/>
			<point x="154" y="483" type="curve" smooth="yes"/>
			<point x="124" y="483"/>
			<point x="94" y="460"/>
			<point x="75" y="422" type="curve"/>
		</contour>
		<contour>
			<point x="18" y="-184" type="line"/>
			<point x="47" y="-177" type="line"/>
			<point x="265" y="161" type="line"/>
			<point x="478" y="475" type="line"/>
			<point x="476" y="480" type="line"/>
			<point x="450" y="477" type="line"/>
			<point x="261" y="190" type="line"/>
			<point x="17" y="-179" type="line"/>
		</contour>
		<contour>
			<point x="377" y="-190" type="curve" smooth="yes"/>
			<point x="408" y="-190"/>
			<point x="432" y="-163"/>
			<point x="448" y="-138" type="curve"/>
			<point x="437" y="-129" type="line"/>
			<point x="421" y="-150"/>
			<point x="407" y="-164"/>
			<point x="381" y="-164" type="curve" smooth="yes"/>
			<point x="353" y="-164"/>
			<point x="347" y="-141"/>
			<point x="323" y="-44" type="curve" smooth="yes"/>
			<point x="267" y="179" type="line"/>
			<point x="251" y="159" type="line"/>
			<point x="300" y="-48" type="line" smooth="yes"/>
			<point x="324" y="-150"/>
			<point x="335" y="-190"/>
		</contour>
	</outline>
</glyph>
<glyph name="psi" format="1">
	<unicode hex="03C8"/>
	<advance width="654"/>
	<outline>
		<contour>
			<point x="326" y="-13" type="line"/>
			<point x="531" y="-13"/>
			<point x="620" y="131"/>
			<point x="620" y="302" type="curve" smooth="yes"/>
			<point x="620" y="366"/>
			<point x="605" y="451"/>
			<point x="593" y="479" type="curve"/>
			<point x="589" y="482"/>
			<point x="586" y="483"/>
			<point x="581" y="483" type="curve" smooth="yes"/>
			<point x="568" y="483"/>
			<point x="560" y="471"/>
			<point x="560" y="451" type="curve" smooth="yes"/>
			<point x="560" y="417"/>
			<point x="572" y="392"/>
			<point x="607" y="305" type="curve"/>
			<point x="601" y="368" type="line"/>
			<point x="593" y="367" type="line"/>
			<point x="599" y="339"/>
			<point x="599" y="310"/>
			<point x="599" y="294" type="curve" smooth="yes"/>
			<point x="599" y="120"/>
			<point x="500" y="7"/>
			<point x="330" y="7" type="curve"/>
		</contour>
		<contour>
			<point x="282" y="-194" type="line"/>
			<point x="290" y="-200" type="line"/>
			<point x="309" y="-194" type="line"/>
			<point x="460" y="618" type="line"/>
			<point x="442" y="618" type="line"/>
			<point x="320" y="-10" type="line"/>
		</contour>
		<contour>
			<point x="338" y="7" type="line"/>
			<point x="246" y="7"/>
			<point x="162" y="34"/>
			<point x="162" y="121" type="curve"/>
			<point x="162" y="193"/>
			<point x="213" y="343"/>
			<point x="213" y="404" type="curve" smooth="yes"/>
			<point x="213" y="457"/>
			<point x="195" y="483"/>
			<point x="154" y="483" type="curve" smooth="yes"/>
			<point x="123" y="483"/>
			<point x="93" y="458"/>
			<point x="75" y="422" type="curve"/>
			<point x="86" y="413" type="line"/>
			<point x="110" y="450"/>
			<point x="130" y="457"/>
			<point x="147" y="457" type="curve" smooth="yes"/>
			<point x="166" y="457"/>
			<point x="185" y="450"/>
			<point x="185" y="405" type="curve" smooth="yes"/>
			<point x="185" y="339"/>
			<point x="133" y="199"/>
			<point x="133" y="123" type="curve"/>
			<point x="133" y="17"/>
			<point x="237" y="-13"/>
			<point x="335" y="-13" type="curve"/>
		</contour>
	</outline>
</glyph>
<glyph name="omega" format="1">
	<unicode hex="03C9"/>
	<advance width="687"/>
	<outline>
		<contour>
			<point x="197" y="-13" type="curve" smooth="yes"/>
			<point x="267" y="-13"/>
			<point x="325" y="34"/>
			<point x="349" y="139" type="curve"/>
			<point x="336" y="103" type="line"/>
			<point x="335" y="98"/>
			<point x="335" y="94"/>
			<point x="335" y="89" type="curve" smooth="yes"/>
			<point x="335" y="34"/>
			<point x="374" y="-13"/>
			<point x="442" y="-13" type="curve" smooth="yes"/>
			<point x="595" y="-13"/>
			<point x="637" y="177"/>
			<point x="637" y="273" type="curve"/>
			<point x="637" y="384"/>
			<point x="596" y="440"/>
			<point x="544" y="478" type="curve"/>
			<point x="530" y="466" type="line"/>
			<point x="578" y="425"/>
			<point x="609" y="374"/>
			<point x="609" y="276" type="curve" smooth="yes"/>
			<point x="609" y="178"/>
			<point x="574" y="7"/>
			<point x="446" y="7" type="curve" smooth="yes"/>
			<point x="371" y="7"/>
			<point x="353" y="60"/>
			<point x="353" y="120" type="curve" smooth="yes"/>
			<point x="353" y="134"/>
			<point x="360" y="173"/>
			<point x="370" y="218" type="curve" smooth="yes"/>
			<point x="392" y="317" type="line"/>
			<point x="387" y="321" type="line"/>
			<point x="358" y="316" type="line"/>
			<point x="342" y="196" type="line" smooth="yes"/>
			<point x="322" y="45"/>
			<point x="258" y="7"/>
			<point x="203" y="7" type="curve" smooth="yes"/>
			<point x="135" y="7"/>
			<point x="94" y="55"/>
			<point x="94" y="151" type="curve" smooth="yes"/>
			<point x="94" y="297"/>
			<point x="150" y="406"/>
			<point x="244" y="463" type="curve"/>
			<point x="235" y="477" type="line"/>
			<point x="133" y="426"/>
			<point x="66" y="296"/>
			<point x="66" y="154" type="curve" smooth="yes"/>
			<point x="66" y="26"/>
			<point x="126" y="-13"/>
		</contour>
		<contour>
			<point name="aboveLC" x="402" y="500" type="move"/>
		</contour>
		<contour>
			<point name="belowLC" x="318" y="-22" type="move"/>
		</contour>
	</outline>
</glyph>
<glyph name="kai" format="1">
  <advance width="420"/>
  <unicode hex="03D7"/>
  <outline>
    <contour>
      <point x="109" y="-195" type="curve" smooth="yes"/>
      <point x="238" y="-195"/>
      <point x="338" y="-113"/>
      <point x="400" y="61" type="curve"/>
      <point x="374" y="40" type="line"/>
      <point x="313" y="-108"/>
      <point x="227" y="-173"/>
      <point x="107" y="-173" type="curve" smooth="yes"/>
      <point x="55" y="-173"/>
      <point x="0" y="-154"/>
      <point x="-35" y="-120" type="curve"/>
      <point x="-47" y="-131" type="line"/>
      <point x="-19" y="-168"/>
      <point x="41" y="-195"/>
    </contour>
    <component base="kappa"/>
  </outline>
</glyph>
<glyph name="koppa" format="2">
	<unicode hex="03D9"/>
	<unicode hex="03DF"/>
	<advance width="474"/>
	<outline>
		<contour>
			<point x="208" y="6" type="line"/>
			<point x="163" y="-185" type="line"/>
			<point x="169" y="-190" type="line"/>
			<point x="190" y="-185" type="line"/>
			<point x="230" y="6" type="line"/>
		</contour>
		<component base="omicron"/>
	</outline>
</glyph>
<glyph name="Dje" format="2">
	<unicode hex="0402"/>
	<advance width="663"/>
	<outline>
		<contour>
			<point x="426" y="-58" type="line"/>
			<point x="553" y="-38"/>
			<point x="649" y="57"/>
			<point x="649" y="195" type="curve" smooth="yes"/>
			<point x="649" y="297"/>
			<point x="587" y="372"/>
			<point x="454" y="372" type="curve" smooth="yes"/>
			<point x="416" y="372"/>
			<point x="380" y="369"/>
			<point x="338" y="362" type="curve"/>
			<point x="334" y="341" type="line"/>
			<point x="372" y="349"/>
			<point x="405" y="352"/>
			<point x="439" y="352" type="curve" smooth="yes"/>
			<point x="569" y="352"/>
			<point x="621" y="284"/>
			<point x="621" y="194" type="curve" smooth="yes"/>
			<point x="621" y="70"/>
			<point x="543" y="-16"/>
			<point x="423" y="-42" type="curve"/>
		</contour>
		<contour>
			<point x="90" y="514" type="line"/>
			<point x="114" y="514" type="line"/>
			<point x="164" y="677" type="line"/>
			<point x="146" y="655" type="line"/>
			<point x="642" y="655" type="line"/>
			<point x="632" y="677" type="line"/>
			<point x="620" y="514" type="line"/>
			<point x="644" y="514" type="line"/>
			<point x="665" y="677" type="line"/>
			<point x="131" y="677" type="line"/>
		</contour>
		<contour>
			<point x="151" y="0" type="line"/>
			<point x="276" y="0" type="line"/>
			<point x="281" y="27" type="line"/>
			<point x="267" y="27" type="line"/>
			<point x="155" y="20" type="line"/>
		</contour>
		<contour>
			<point x="255" y="0" type="line"/>
			<point x="289" y="0" type="line"/>
			<point x="305" y="104"/>
			<point x="324" y="209"/>
			<point x="343" y="313" type="curve" smooth="yes"/>
			<point x="411" y="677" type="line"/>
			<point x="378" y="677" type="line"/>
			<point x="361" y="573"/>
			<point x="344" y="468"/>
			<point x="324" y="364" type="curve" smooth="yes"/>
		</contour>
	</outline>
</glyph>
<glyph name="Ieukran" format="2">
	<unicode hex="0404"/>
	<advance width="601"/>
	<outline>
		<contour>
			<point x="81" y="331" type="line"/>
			<point x="372" y="331" type="line"/>
			<point x="376" y="353" type="line"/>
			<point x="85" y="353" type="line"/>
		</contour>
		<contour>
			<point x="354" y="234" type="line"/>
			<point x="373" y="234" type="line"/>
			<point x="414" y="450" type="line"/>
			<point x="395" y="450" type="line"/>
			<point x="367" y="352" type="line"/>
			<point x="363" y="332" type="line"/>
		</contour>
		<component base="C"/>
	</outline>
</glyph>
<glyph name="Tshe" format="2">
	<unicode hex="040B"/>
	<advance width="728"/>
	<outline>
		<contour>
			<point x="577" y="0" type="line"/>
			<point x="611" y="0" type="line"/>
			<point x="644" y="196" type="line" smooth="yes"/>
			<point x="665" y="322"/>
			<point x="603" y="378"/>
			<point x="488" y="378" type="curve" smooth="yes"/>
			<point x="420" y="378"/>
			<point x="384" y="376"/>
			<point x="339" y="367" type="curve"/>
			<point x="335" y="347" type="line"/>
			<point x="378" y="357"/>
			<point x="422" y="358"/>
			<point x="477" y="358" type="curve" smooth="yes"/>
			<point x="580" y="358"/>
			<point x="635" y="309"/>
			<point x="613" y="192" type="curve" smooth="yes"/>
		</contour>
		<contour>
			<point x="585" y="0" type="line"/>
			<point x="701" y="0" type="line"/>
			<point x="705" y="20" type="line"/>
			<point x="604" y="27" type="line"/>
			<point x="590" y="27" type="line"/>
		</contour>
		<component base="T"/>
	</outline>
</glyph>
<glyph name="Zhe" format="2">
	<unicode hex="0416"/>
	<advance width="923"/>
	<outline>
		<contour>
			<point x="1" y="0" type="line"/>
			<point x="17" y="-2"/>
			<point x="37" y="-5"/>
			<point x="64" y="-5" type="curve" smooth="yes"/>
			<point x="112" y="-5"/>
			<point x="125" y="6"/>
			<point x="145" y="34" type="curve" smooth="yes"/>
			<point x="280" y="230" type="line" smooth="yes"/>
			<point x="346" y="325"/>
			<point x="359" y="341"/>
			<point x="445" y="341" type="curve" smooth="yes"/>
			<point x="512" y="341" type="line"/>
			<point x="512" y="361" type="line"/>
			<point x="431" y="361" type="line" smooth="yes"/>
			<point x="357" y="361"/>
			<point x="345" y="383"/>
			<point x="293" y="521" type="curve" smooth="yes"/>
			<point x="243" y="654"/>
			<point x="222" y="690"/>
			<point x="153" y="690" type="curve"/>
			<point x="138" y="686"/>
			<point x="128" y="678"/>
			<point x="128" y="666" type="curve" smooth="yes"/>
			<point x="128" y="653"/>
			<point x="137" y="643"/>
			<point x="158" y="643" type="curve" smooth="yes"/>
			<point x="177" y="643"/>
			<point x="197" y="648"/>
			<point x="228" y="651" type="curve"/>
			<point x="202" y="657" type="line"/>
			<point x="235" y="610"/>
			<point x="246" y="586"/>
			<point x="273" y="512" type="curve" smooth="yes"/>
			<point x="325" y="368"/>
			<point x="340" y="351"/>
			<point x="420" y="344" type="curve"/>
			<point x="423" y="358" type="line"/>
			<point x="338" y="351"/>
			<point x="314" y="319"/>
			<point x="245" y="220" type="curve" smooth="yes"/>
			<point x="103" y="17" type="line"/>
			<point x="125" y="27" type="line"/>
			<point x="5" y="20" type="line"/>
		</contour>
		<contour>
			<point x="319" y="0" type="line"/>
			<point x="567" y="0" type="line"/>
			<point x="571" y="20" type="line"/>
			<point x="450" y="27" type="line"/>
			<point x="436" y="27" type="line"/>
			<point x="323" y="20" type="line"/>
		</contour>
		<contour>
			<point x="423" y="0" type="line"/>
			<point x="457" y="0" type="line"/>
			<point x="473" y="104"/>
			<point x="492" y="209"/>
			<point x="511" y="313" type="curve" smooth="yes"/>
			<point x="579" y="677" type="line"/>
			<point x="546" y="677" type="line"/>
			<point x="529" y="573"/>
			<point x="512" y="468"/>
			<point x="492" y="364" type="curve" smooth="yes"/>
		</contour>
		<contour>
			<point x="433" y="657" type="line"/>
			<point x="554" y="650" type="line"/>
			<point x="568" y="650" type="line"/>
			<point x="681" y="657" type="line"/>
			<point x="685" y="677" type="line"/>
			<point x="437" y="677" type="line"/>
		</contour>
		<contour>
			<point x="853" y="-5" type="curve" smooth="yes"/>
			<point x="878" y="-5"/>
			<point x="898" y="-2"/>
			<point x="913" y="0" type="curve"/>
			<point x="917" y="20" type="line"/>
			<point x="799" y="27" type="line"/>
			<point x="819" y="17" type="line"/>
			<point x="728" y="220" type="line" smooth="yes"/>
			<point x="683" y="321"/>
			<point x="662" y="351"/>
			<point x="578" y="358" type="curve"/>
			<point x="578" y="344" type="line"/>
			<point x="660" y="351"/>
			<point x="687" y="368"/>
			<point x="780" y="512" type="curve" smooth="yes"/>
			<point x="822" y="576"/>
			<point x="847" y="611"/>
			<point x="894" y="657" type="curve"/>
			<point x="863" y="651" type="line"/>
			<point x="893" y="648"/>
			<point x="912" y="643"/>
			<point x="931" y="643" type="curve" smooth="yes"/>
			<point x="952" y="643"/>
			<point x="967" y="653"/>
			<point x="967" y="666" type="curve" smooth="yes"/>
			<point x="967" y="678"/>
			<point x="960" y="686"/>
			<point x="946" y="690" type="curve"/>
			<point x="877" y="690"/>
			<point x="846" y="651"/>
			<point x="761" y="521" type="curve" smooth="yes"/>
			<point x="671" y="383"/>
			<point x="645" y="361"/>
			<point x="571" y="361" type="curve" smooth="yes"/>
			<point x="490" y="361" type="line"/>
			<point x="486" y="341" type="line"/>
			<point x="553" y="341" type="line" smooth="yes"/>
			<point x="639" y="341"/>
			<point x="652" y="327"/>
			<point x="695" y="230" type="curve" smooth="yes"/>
			<point x="782" y="34" type="line" smooth="yes"/>
			<point x="795" y="5"/>
			<point x="805" y="-5"/>
		</contour>
	</outline>
	<anchor name="aboveUC" x="565" y="682"/>
</glyph>
<glyph name="Ze" format="2">
	<unicode hex="0417"/>
	<advance width="513"/>
	<outline>
		<contour>
			<point x="97" y="30" type="line"/>
			<point x="98" y="119" type="line" smooth="yes"/>
			<point x="98" y="130"/>
			<point x="90" y="137"/>
			<point x="81" y="137" type="curve" smooth="yes"/>
			<point x="70" y="137"/>
			<point x="62" y="132"/>
			<point x="59" y="122" type="curve"/>
			<point x="58" y="42"/>
			<point x="103" y="-15"/>
			<point x="231" y="-15" type="curve" smooth="yes"/>
			<point x="370" y="-15"/>
			<point x="469" y="71"/>
			<point x="469" y="198" type="curve" smooth="yes"/>
			<point x="469" y="280"/>
			<point x="417" y="350"/>
			<point x="273" y="352" type="curve"/>
			<point x="272" y="344" type="line"/>
			<point x="426" y="357"/>
			<point x="505" y="428"/>
			<point x="505" y="542" type="curve" smooth="yes"/>
			<point x="505" y="633"/>
			<point x="453" y="692"/>
			<point x="338" y="692" type="curve" smooth="yes"/>
			<point x="273" y="692"/>
			<point x="229" y="675"/>
			<point x="175" y="642" type="curve"/>
			<point x="156" y="522" type="line"/>
			<point x="177" y="522" type="line"/>
			<point x="209" y="647" type="line"/>
			<point x="194" y="641" type="line"/>
			<point x="192" y="629" type="line"/>
			<point x="236" y="654"/>
			<point x="279" y="670"/>
			<point x="331" y="670" type="curve" smooth="yes"/>
			<point x="432" y="670"/>
			<point x="477" y="617"/>
			<point x="477" y="541" type="curve" smooth="yes"/>
			<point x="477" y="427"/>
			<point x="382" y="358"/>
			<point x="237" y="358" type="curve" smooth="yes"/>
			<point x="221" y="358" type="line"/>
			<point x="217" y="338" type="line"/>
			<point x="245" y="338" type="line" smooth="yes"/>
			<point x="389" y="338"/>
			<point x="441" y="275"/>
			<point x="441" y="194" type="curve" smooth="yes"/>
			<point x="441" y="72"/>
			<point x="347" y="7"/>
			<point x="234" y="7" type="curve" smooth="yes"/>
			<point x="161" y="7"/>
			<point x="123" y="22"/>
			<point x="82" y="62" type="curve"/>
		</contour>
	</outline>
</glyph>
<glyph name="El" format="2">
	<unicode hex="041B"/>
	<advance width="646"/>
	<outline>
		<contour>
			<point x="-28" y="-2"/>
			<point x="-11" y="-15"/>
			<point x="16" y="-15" type="curve" smooth="yes"/>
			<point x="89" y="-15"/>
			<point x="161" y="73"/>
			<point x="215" y="220" type="curve" smooth="yes"/>
			<point x="271" y="373"/>
			<point x="310" y="516"/>
			<point x="341" y="677" type="curve"/>
			<point x="317" y="677" type="line"/>
			<point x="286" y="517"/>
			<point x="249" y="376"/>
			<point x="193" y="227" type="curve" smooth="yes"/>
			<point x="138" y="80"/>
			<point x="81" y="13"/>
			<point x="16" y="3" type="curve"/>
			<point x="27" y="-7" type="line"/>
			<point x="50" y="1" type="line"/>
			<point x="44" y="34"/>
			<point x="30" y="48"/>
			<point x="8" y="48" type="curve" smooth="yes"/>
			<point x="-9" y="48"/>
			<point x="-23" y="39"/>
			<point x="-28" y="22" type="curve"/>
		</contour>
		<contour>
			<point x="204" y="657" type="line"/>
			<point x="325" y="650" type="line"/>
			<point x="332" y="650" type="line"/>
			<point x="338" y="677" type="line"/>
			<point x="208" y="677" type="line"/>
		</contour>
		<contour>
			<point x="323" y="0" type="line"/>
			<point x="571" y="0" type="line"/>
			<point x="575" y="20" type="line"/>
			<point x="454" y="27" type="line"/>
			<point x="440" y="27" type="line"/>
			<point x="327" y="20" type="line"/>
		</contour>
		<contour>
			<point x="323" y="655" type="line"/>
			<point x="564" y="655" type="line"/>
			<point x="568" y="677" type="line"/>
			<point x="327" y="677" type="line"/>
		</contour>
		<contour>
			<point x="427" y="0" type="line"/>
			<point x="461" y="0" type="line"/>
			<point x="477" y="104"/>
			<point x="496" y="209"/>
			<point x="515" y="313" type="curve" smooth="yes"/>
			<point x="583" y="677" type="line"/>
			<point x="550" y="677" type="line"/>
			<point x="533" y="573"/>
			<point x="516" y="468"/>
			<point x="496" y="364" type="curve" smooth="yes"/>
		</contour>
		<contour>
			<point x="558" y="650" type="line"/>
			<point x="572" y="650" type="line"/>
			<point x="685" y="657" type="line"/>
			<point x="689" y="677" type="line"/>
			<point x="563" y="677" type="line"/>
		</contour>
	</outline>
</glyph>
<glyph name="Pe" format="2">
	<unicode hex="041F"/>
	<advance width="750"/>
	<outline>
		<contour>
			<point x="11" y="0" type="line"/>
			<point x="259" y="0" type="line"/>
			<point x="263" y="20" type="line"/>
			<point x="142" y="27" type="line"/>
			<point x="128" y="27" type="line"/>
			<point x="15" y="20" type="line"/>
		</contour>
		<contour>
			<point x="115" y="0" type="line"/>
			<point x="149" y="0" type="line"/>
			<point x="165" y="104"/>
			<point x="184" y="209"/>
			<point x="203" y="313" type="curve" smooth="yes"/>
			<point x="271" y="677" type="line"/>
			<point x="238" y="677" type="line"/>
			<point x="221" y="573"/>
			<point x="204" y="468"/>
			<point x="184" y="364" type="curve" smooth="yes"/>
		</contour>
		<contour>
			<point x="125" y="657" type="line"/>
			<point x="252" y="650" type="line"/>
			<point x="257" y="677" type="line"/>
			<point x="129" y="677" type="line"/>
		</contour>
		<contour>
			<point x="250" y="655" type="line"/>
			<point x="663" y="655" type="line"/>
			<point x="666" y="677" type="line"/>
			<point x="255" y="677" type="line"/>
		</contour>
		<contour>
			<point x="427" y="0" type="line"/>
			<point x="675" y="0" type="line"/>
			<point x="679" y="20" type="line"/>
			<point x="558" y="27" type="line"/>
			<point x="544" y="27" type="line"/>
			<point x="431" y="20" type="line"/>
		</contour>
		<contour>
			<point x="531" y="0" type="line"/>
			<point x="565" y="0" type="line"/>
			<point x="581" y="104"/>
			<point x="600" y="209"/>
			<point x="619" y="313" type="curve" smooth="yes"/>
			<point x="687" y="677" type="line"/>
			<point x="654" y="677" type="line"/>
			<point x="637" y="573"/>
			<point x="620" y="468"/>
			<point x="600" y="364" type="curve" smooth="yes"/>
		</contour>
		<contour>
			<point x="665" y="650" type="line"/>
			<point x="789" y="657" type="line"/>
			<point x="793" y="677" type="line"/>
			<point x="671" y="677" type="line"/>
		</contour>
	</outline>
</glyph>
<glyph name="Ucyr" format="2">
	<unicode hex="0423"/>
	<advance width="561"/>
	<outline>
		<contour>
			<point x="68" y="657" type="line"/>
			<point x="144" y="650" type="line"/>
			<point x="157" y="650" type="line"/>
			<point x="265" y="657" type="line"/>
			<point x="268" y="677" type="line"/>
			<point x="71" y="677" type="line"/>
		</contour>
		<contour>
			<point x="275" y="106" type="line"/>
			<point x="293" y="137" type="line"/>
			<point x="158" y="677" type="line"/>
			<point x="126" y="677" type="line"/>
		</contour>
		<contour>
			<point x="61" y="-21" type="curve"/>
			<point x="61" y="-42"/>
			<point x="78" y="-53"/>
			<point x="102" y="-53" type="curve" smooth="yes"/>
			<point x="164" y="-53"/>
			<point x="229" y="4"/>
			<point x="318" y="165" type="curve" smooth="yes"/>
			<point x="603" y="677" type="line"/>
			<point x="576" y="677" type="line"/>
			<point x="284" y="145" type="line" smooth="yes"/>
			<point x="228" y="44"/>
			<point x="182" y="-7"/>
			<point x="117" y="-31" type="curve"/>
			<point x="122" y="-43" type="line"/>
			<point x="139" y="-33" type="line"/>
			<point x="129" y="-4"/>
			<point x="115" y="6"/>
			<point x="99" y="6" type="curve" smooth="yes"/>
			<point x="81" y="6"/>
			<point x="67" y="-3"/>
		</contour>
		<contour>
			<point x="466" y="657" type="line"/>
			<point x="568" y="650" type="line"/>
			<point x="581" y="650" type="line"/>
			<point x="668" y="657" type="line"/>
			<point x="671" y="677" type="line"/>
			<point x="469" y="677" type="line"/>
		</contour>
	</outline>
	<anchor name="aboveUC" x="362" y="682"/>
</glyph>
<glyph name="Shcha" format="2">
	<unicode hex="0429"/>
	<advance width="1015"/>
	<outline>
		<contour>
			<point x="11" y="0" type="line"/>
			<point x="133" y="0" type="line"/>
			<point x="139" y="27" type="line"/>
			<point x="15" y="20" type="line"/>
		</contour>
		<contour>
			<point x="117" y="0" type="line"/>
			<point x="151" y="0" type="line"/>
			<point x="167" y="104"/>
			<point x="185" y="209"/>
			<point x="205" y="313" type="curve" smooth="yes"/>
			<point x="273" y="677" type="line"/>
			<point x="239" y="677" type="line"/>
			<point x="223" y="573"/>
			<point x="205" y="468"/>
			<point x="185" y="364" type="curve" smooth="yes"/>
		</contour>
		<contour>
			<point x="125" y="657" type="line"/>
			<point x="247" y="650" type="line"/>
			<point x="261" y="650" type="line"/>
			<point x="373" y="657" type="line"/>
			<point x="377" y="677" type="line"/>
			<point x="129" y="677" type="line"/>
		</contour>
		<contour>
			<point x="135" y="0" type="line"/>
			<point x="918" y="0" type="line"/>
			<point x="906" y="11" type="line"/>
			<point x="889" y="-188" type="line"/>
			<point x="910" y="-188" type="line"/>
			<point x="940" y="22" type="line"/>
			<point x="139" y="22" type="line"/>
		</contour>
		<contour>
			<point x="463" y="0" type="line"/>
			<point x="497" y="0" type="line"/>
			<point x="513" y="104"/>
			<point x="531" y="209"/>
			<point x="551" y="313" type="curve" smooth="yes"/>
			<point x="619" y="677" type="line"/>
			<point x="585" y="677" type="line"/>
			<point x="569" y="573"/>
			<point x="551" y="468"/>
			<point x="531" y="364" type="curve" smooth="yes"/>
		</contour>
		<contour>
			<point x="471" y="657" type="line"/>
			<point x="593" y="650" type="line"/>
			<point x="607" y="650" type="line"/>
			<point x="719" y="657" type="line"/>
			<point x="723" y="677" type="line"/>
			<point x="475" y="677" type="line"/>
		</contour>
		<contour>
			<point x="803" y="0" type="line"/>
			<point x="837" y="0" type="line"/>
			<point x="853" y="104"/>
			<point x="871" y="209"/>
			<point x="891" y="313" type="curve" smooth="yes"/>
			<point x="959" y="677" type="line"/>
			<point x="925" y="677" type="line"/>
			<point x="909" y="573"/>
			<point x="891" y="468"/>
			<point x="871" y="364" type="curve" smooth="yes"/>
		</contour>
		<contour>
			<point x="811" y="657" type="line"/>
			<point x="933" y="650" type="line"/>
			<point x="947" y="650" type="line"/>
			<point x="1059" y="657" type="line"/>
			<point x="1063" y="677" type="line"/>
			<point x="815" y="677" type="line"/>
		</contour>
	</outline>
</glyph>
<glyph name="Soft" format="2">
	<unicode hex="042C"/>
	<advance width="543"/>
	<outline>
		<contour>
			<point x="11" y="0" type="line"/>
			<point x="129" y="0" type="line"/>
			<point x="134" y="27" type="line"/>
			<point x="127" y="27" type="line"/>
			<point x="15" y="20" type="line"/>
		</contour>
		<contour>
			<point x="115" y="0" type="line"/>
			<point x="149" y="0" type="line"/>
			<point x="165" y="104"/>
			<point x="184" y="209"/>
			<point x="203" y="313" type="curve" smooth="yes"/>
			<point x="271" y="677" type="line"/>
			<point x="238" y="677" type="line"/>
			<point x="221" y="573"/>
			<point x="204" y="468"/>
			<point x="184" y="364" type="curve" smooth="yes"/>
		</contour>
		<contour>
			<point x="129" y="0" type="line"/>
			<point x="260" y="0" type="line" smooth="yes"/>
			<point x="428" y="0"/>
			<point x="518" y="82"/>
			<point x="518" y="215" type="curve" smooth="yes"/>
			<point x="518" y="314"/>
			<point x="467" y="378"/>
			<point x="336" y="378" type="curve" smooth="yes"/>
			<point x="285" y="378"/>
			<point x="241" y="370"/>
			<point x="198" y="360" type="curve"/>
			<point x="194" y="340" type="line"/>
			<point x="236" y="350"/>
			<point x="279" y="358"/>
			<point x="331" y="358" type="curve" smooth="yes"/>
			<point x="435" y="358"/>
			<point x="489" y="312"/>
			<point x="489" y="213" type="curve" smooth="yes"/>
			<point x="489" y="88"/>
			<point x="395" y="22"/>
			<point x="265" y="22" type="curve" smooth="yes"/>
			<point x="133" y="22" type="line"/>
		</contour>
		<contour>
			<point x="125" y="657" type="line"/>
			<point x="246" y="650" type="line"/>
			<point x="260" y="650" type="line"/>
			<point x="373" y="657" type="line"/>
			<point x="377" y="677" type="line"/>
			<point x="129" y="677" type="line"/>
		</contour>
	</outline>
</glyph>
<glyph name="Ecyr" format="2">
	<unicode hex="042D"/>
	<advance width="633"/>
	<outline>
		<contour>
			<point x="55" y="38" type="line"/>
			<point x="110" y="2"/>
			<point x="163" y="-15"/>
			<point x="240" y="-15" type="curve" smooth="yes"/>
			<point x="456" y="-15"/>
			<point x="623" y="151"/>
			<point x="623" y="398" type="curve" smooth="yes"/>
			<point x="623" y="581"/>
			<point x="514" y="692"/>
			<point x="345" y="692" type="curve" smooth="yes"/>
			<point x="280" y="692"/>
			<point x="228" y="681"/>
			<point x="161" y="645" type="curve"/>
			<point x="131" y="500" type="line"/>
			<point x="155" y="500" type="line"/>
			<point x="199" y="645" type="line"/>
			<point x="178" y="624" type="line"/>
			<point x="233" y="657"/>
			<point x="284" y="670"/>
			<point x="343" y="670" type="curve" smooth="yes"/>
			<point x="487" y="670"/>
			<point x="591" y="574"/>
			<point x="591" y="397" type="curve" smooth="yes"/>
			<point x="591" y="170"/>
			<point x="446" y="7"/>
			<point x="245" y="7" type="curve" smooth="yes"/>
			<point x="167" y="7"/>
			<point x="126" y="20"/>
			<point x="76" y="58" type="curve"/>
			<point x="92" y="32" type="line"/>
			<point x="101" y="177" type="line"/>
			<point x="77" y="177" type="line"/>
		</contour>
		<contour>
			<point x="186" y="267" type="curve"/>
			<point x="200" y="261" type="line"/>
			<point x="233" y="331"/>
			<point x="264" y="346"/>
			<point x="302" y="346" type="curve" smooth="yes"/>
			<point x="343" y="346"/>
			<point x="445" y="323"/>
			<point x="491" y="323" type="curve" smooth="yes"/>
			<point x="531" y="323"/>
			<point x="568" y="333"/>
			<point x="600" y="362" type="curve"/>
			<point x="595" y="373" type="line"/>
			<point x="563" y="354"/>
			<point x="533" y="349"/>
			<point x="504" y="349" type="curve" smooth="yes"/>
			<point x="465" y="349"/>
			<point x="357" y="374"/>
			<point x="313" y="374" type="curve" smooth="yes"/>
			<point x="252" y="374"/>
			<point x="215" y="340"/>
		</contour>
	</outline>
	<anchor name="aboveUC" x="374" y="682"/>
</glyph>
<glyph name="ve" format="2">
	<unicode hex="0432"/>
	<advance width="420"/>
	<outline>
		<contour>
			<point x="59" y="21"/>
			<point x="120" y="-14"/>
			<point x="192" y="-14" type="curve" smooth="yes"/>
			<point x="305" y="-14"/>
			<point x="379" y="59"/>
			<point x="379" y="143" type="curve" smooth="yes"/>
			<point x="379" y="199"/>
			<point x="341" y="241"/>
			<point x="256" y="244" type="curve"/>
			<point x="226" y="234" type="line"/>
			<point x="327" y="226"/>
			<point x="353" y="191"/>
			<point x="353" y="138" type="curve" smooth="yes"/>
			<point x="353" y="59"/>
			<point x="282" y="7"/>
			<point x="196" y="7" type="curve" smooth="yes"/>
			<point x="132" y="7"/>
			<point x="87" y="41"/>
			<point x="87" y="148" type="curve" smooth="yes"/>
			<point x="87" y="226"/>
			<point x="134" y="329"/>
			<point x="171" y="375" type="curve" smooth="yes"/>
			<point x="215" y="430"/>
			<point x="271" y="463"/>
			<point x="332" y="463" type="curve" smooth="yes"/>
			<point x="375" y="463"/>
			<point x="401" y="444"/>
			<point x="401" y="401" type="curve" smooth="yes"/>
			<point x="401" y="337"/>
			<point x="333" y="252"/>
			<point x="80" y="204" type="curve"/>
			<point x="80" y="185" type="line"/>
			<point x="336" y="234"/>
			<point x="425" y="325"/>
			<point x="425" y="400" type="curve" smooth="yes"/>
			<point x="425" y="454"/>
			<point x="388" y="483"/>
			<point x="336" y="483" type="curve" smooth="yes"/>
			<point x="269" y="483"/>
			<point x="203" y="450"/>
			<point x="149" y="382" type="curve" smooth="yes"/>
			<point x="114" y="337"/>
			<point x="59" y="232"/>
			<point x="59" y="140" type="curve" smooth="yes"/>
		</contour>
	</outline>
</glyph>
<glyph name="de" format="2">
	<unicode hex="0434"/>
	<advance width="476"/>
	<outline>
		<contour>
			<point x="180" y="-8" type="curve" smooth="yes"/>
			<point x="326" y="-8"/>
			<point x="474" y="221"/>
			<point x="474" y="553" type="curve" smooth="yes"/>
			<point x="474" y="672"/>
			<point x="422" y="758"/>
			<point x="319" y="758" type="curve" smooth="yes"/>
			<point x="250" y="758"/>
			<point x="209" y="732"/>
			<point x="158" y="687" type="curve"/>
			<point x="169" y="673" type="line"/>
			<point x="219" y="715"/>
			<point x="257" y="736"/>
			<point x="306" y="736" type="curve" smooth="yes"/>
			<point x="402" y="736"/>
			<point x="449" y="661"/>
			<point x="449" y="544" type="curve" smooth="yes"/>
			<point x="449" y="232"/>
			<point x="308" y="12"/>
			<point x="185" y="12" type="curve" smooth="yes"/>
			<point x="126" y="12"/>
			<point x="97" y="42"/>
			<point x="97" y="166" type="curve" smooth="yes"/>
			<point x="97" y="298"/>
			<point x="184" y="463"/>
			<point x="318" y="463" type="curve" smooth="yes"/>
			<point x="373" y="463"/>
			<point x="421" y="436"/>
			<point x="450" y="383" type="curve"/>
			<point x="458" y="401" type="line"/>
			<point x="434" y="450"/>
			<point x="385" y="483"/>
			<point x="316" y="483" type="curve" smooth="yes"/>
			<point x="172" y="483"/>
			<point x="69" y="313"/>
			<point x="69" y="161" type="curve" smooth="yes"/>
			<point x="69" y="34"/>
			<point x="109" y="-8"/>
		</contour>
	</outline>
</glyph>
<glyph name="ze" format="2">
	<unicode hex="0437"/>
	<advance width="390"/>
	<outline>
		<contour>
			<point x="159" y="-13" type="curve" smooth="yes"/>
			<point x="272" y="-13"/>
			<point x="338" y="59"/>
			<point x="338" y="135" type="curve" smooth="yes"/>
			<point x="338" y="197"/>
			<point x="304" y="238"/>
			<point x="222" y="243" type="curve"/>
			<point x="216" y="237" type="line"/>
			<point x="320" y="242"/>
			<point x="395" y="303"/>
			<point x="395" y="375" type="curve" smooth="yes"/>
			<point x="395" y="440"/>
			<point x="351" y="483"/>
			<point x="277" y="483" type="curve" smooth="yes"/>
			<point x="207" y="483"/>
			<point x="155" y="455"/>
			<point x="110" y="388" type="curve"/>
			<point x="121" y="380" type="line"/>
			<point x="165" y="434"/>
			<point x="211" y="463"/>
			<point x="270" y="463" type="curve" smooth="yes"/>
			<point x="334" y="463"/>
			<point x="369" y="431"/>
			<point x="369" y="371" type="curve" smooth="yes"/>
			<point x="369" y="303"/>
			<point x="294" y="252"/>
			<point x="196" y="252" type="curve" smooth="yes"/>
			<point x="158" y="252" type="line"/>
			<point x="154" y="231" type="line"/>
			<point x="194" y="231" type="line" smooth="yes"/>
			<point x="275" y="231"/>
			<point x="309" y="197"/>
			<point x="309" y="132" type="curve" smooth="yes"/>
			<point x="309" y="57"/>
			<point x="245" y="7"/>
			<point x="163" y="7" type="curve" smooth="yes"/>
			<point x="116" y="7"/>
			<point x="92" y="17"/>
			<point x="59" y="40" type="curve"/>
			<point x="72" y="20" type="line"/>
			<point x="67" y="90" type="line" smooth="yes"/>
			<point x="66" y="107"/>
			<point x="57" y="116"/>
			<point x="46" y="116" type="curve" smooth="yes"/>
			<point x="37" y="116"/>
			<point x="31" y="111"/>
			<point x="27" y="102" type="curve"/>
			<point x="33" y="21"/>
			<point x="82" y="-13"/>
		</contour>
	</outline>
</glyph>
<glyph name="ka" format="2">
	<unicode hex="043A"/>
	<advance width="493"/>
	<outline>
		<contour>
			<point x="88" y="0" type="line"/>
			<point x="94" y="-5" type="line"/>
			<point x="115" y="0" type="line"/>
			<point x="129" y="69"/>
			<point x="142" y="138"/>
			<point x="158" y="207" type="curve" smooth="yes"/>
			<point x="190" y="351" type="line"/>
			<point x="214" y="473" type="line"/>
			<point x="201" y="483" type="line"/>
			<point x="63" y="468" type="line"/>
			<point x="60" y="454" type="line"/>
			<point x="189" y="452" type="line"/>
			<point x="185" y="459" type="line"/>
		</contour>
		<contour>
			<point x="490" y="1" type="curve"/>
			<point x="492" y="15" type="line"/>
			<point x="439" y="16" type="line" smooth="yes"/>
			<point x="406" y="17"/>
			<point x="383" y="28"/>
			<point x="367" y="55" type="curve" smooth="yes"/>
			<point x="317" y="140" type="line" smooth="yes"/>
			<point x="279" y="205"/>
			<point x="260" y="232"/>
			<point x="204" y="246" type="curve" smooth="yes"/>
			<point x="176" y="253" type="line"/>
			<point x="175" y="244" type="line"/>
			<point x="492" y="447" type="line" smooth="yes"/>
			<point x="505" y="456"/>
			<point x="507" y="459"/>
			<point x="507" y="467" type="curve" smooth="yes"/>
			<point x="507" y="473"/>
			<point x="500" y="481"/>
			<point x="491" y="482" type="curve"/>
			<point x="162" y="250" type="line"/>
			<point x="165" y="241" type="line"/>
			<point x="190" y="234" type="line" smooth="yes"/>
			<point x="244" y="219"/>
			<point x="257" y="198"/>
			<point x="290" y="141" type="curve" smooth="yes"/>
			<point x="340" y="54" type="line" smooth="yes"/>
			<point x="362" y="15"/>
			<point x="387" y="-7"/>
			<point x="430" y="-7" type="curve" smooth="yes"/>
			<point x="446" y="-7"/>
			<point x="466" y="-5"/>
		</contour>
	</outline>
	<anchor name="aboveLC" x="340" y="500"/>
</glyph>
<glyph name="em" format="2">
	<unicode hex="043C"/>
	<advance width="741"/>
	<outline>
		<contour>
			<point x="43" y="-4"/>
			<point x="59" y="-13"/>
			<point x="77" y="-13" type="curve" smooth="yes"/>
			<point x="95" y="-13"/>
			<point x="117" y="-6"/>
			<point x="127" y="14" type="curve" smooth="yes"/>
			<point x="158" y="76"/>
			<point x="182" y="138"/>
			<point x="211" y="215" type="curve" smooth="yes"/>
			<point x="234" y="278"/>
			<point x="261" y="351"/>
			<point x="289" y="443" type="curve"/>
			<point x="278" y="441" type="line"/>
			<point x="343" y="19" type="line"/>
			<point x="348" y="15" type="line"/>
			<point x="362" y="20" type="line"/>
			<point x="626" y="460" type="line"/>
			<point x="614" y="463" type="line"/>
			<point x="565" y="104" type="line" smooth="yes"/>
			<point x="560" y="67"/>
			<point x="560" y="56"/>
			<point x="560" y="33" type="curve" smooth="yes"/>
			<point x="560" y="4"/>
			<point x="578" y="-13"/>
			<point x="605" y="-13" type="curve" smooth="yes"/>
			<point x="657" y="-13"/>
			<point x="701" y="32"/>
			<point x="743" y="92" type="curve"/>
			<point x="733" y="100" type="line"/>
			<point x="691" y="47"/>
			<point x="650" y="13"/>
			<point x="616" y="13" type="curve" smooth="yes"/>
			<point x="597" y="13"/>
			<point x="586" y="20"/>
			<point x="586" y="39" type="curve" smooth="yes"/>
			<point x="586" y="56"/>
			<point x="588" y="81"/>
			<point x="591" y="104" type="curve" smooth="yes"/>
			<point x="642" y="470" type="line"/>
			<point x="632" y="477" type="line"/>
			<point x="612" y="470" type="line"/>
			<point x="351" y="35" type="line"/>
			<point x="364" y="39" type="line"/>
			<point x="300" y="470" type="line"/>
			<point x="293" y="476" type="line"/>
			<point x="282" y="470" type="line"/>
			<point x="249" y="366"/>
			<point x="219" y="287"/>
			<point x="194" y="220" type="curve" smooth="yes"/>
			<point x="163" y="141"/>
			<point x="138" y="81"/>
			<point x="110" y="19" type="curve"/>
			<point x="111" y="15" type="line"/>
			<point x="129" y="32" type="line"/>
			<point x="115" y="36" type="line" smooth="yes"/>
			<point x="106" y="39"/>
			<point x="95" y="40"/>
			<point x="82" y="40" type="curve" smooth="yes"/>
			<point x="63" y="40"/>
			<point x="46" y="31"/>
			<point x="43" y="18" type="curve"/>
		</contour>
	</outline>
</glyph>
<glyph name="ef" format="2">
	<unicode hex="0444"/>
	<advance width="725"/>
	<outline>
		<contour>
			<point x="178" y="-245" type="line"/>
			<point x="401" y="-245" type="line"/>
			<point x="404" y="-225" type="line"/>
			<point x="291" y="-219" type="line"/>
			<point x="282" y="-219" type="line"/>
			<point x="181" y="-225" type="line"/>
		</contour>
		<contour>
			<point x="268" y="-245" type="line"/>
			<point x="295" y="-245" type="line"/>
			<point x="302" y="-209"/>
			<point x="313" y="-157"/>
			<point x="359" y="57" type="curve"/>
			<point x="361" y="67" type="line"/>
			<point x="432" y="401" type="line"/>
			<point x="433" y="407" type="line"/>
			<point x="503" y="738" type="line"/>
			<point x="493" y="748" type="line"/>
			<point x="352" y="733" type="line"/>
			<point x="349" y="719" type="line"/>
			<point x="478" y="717" type="line"/>
			<point x="473" y="724" type="line"/>
			<point x="410" y="413" type="line"/>
			<point x="409" y="406" type="line"/>
			<point x="335" y="66" type="line"/>
			<point x="334" y="61" type="line"/>
		</contour>
		<contour>
			<point x="182" y="-14" type="curve" smooth="yes"/>
			<point x="226" y="-14"/>
			<point x="284" y="14"/>
			<point x="351" y="68" type="curve"/>
			<point x="350" y="82" type="line"/>
			<point x="277" y="29"/>
			<point x="226" y="11"/>
			<point x="188" y="11" type="curve" smooth="yes"/>
			<point x="131" y="11"/>
			<point x="101" y="44"/>
			<point x="101" y="121" type="curve" smooth="yes"/>
			<point x="101" y="206"/>
			<point x="130" y="307"/>
			<point x="180" y="375" type="curve" smooth="yes"/>
			<point x="216" y="427"/>
			<point x="265" y="459"/>
			<point x="316" y="459" type="curve" smooth="yes"/>
			<point x="356" y="459"/>
			<point x="386" y="440"/>
			<point x="417" y="378" type="curve"/>
			<point x="424" y="393" type="line"/>
			<point x="401" y="459"/>
			<point x="359" y="483"/>
			<point x="326" y="483" type="curve" smooth="yes"/>
			<point x="187" y="483"/>
			<point x="73" y="289"/>
			<point x="73" y="115" type="curve" smooth="yes"/>
			<point x="73" y="21"/>
			<point x="115" y="-14"/>
		</contour>
		<contour>
			<point x="368" y="10"/>
			<point x="410" y="-14"/>
			<point x="446" y="-14" type="curve" smooth="yes"/>
			<point x="582" y="-14"/>
			<point x="696" y="180"/>
			<point x="696" y="354" type="curve" smooth="yes"/>
			<point x="696" y="448"/>
			<point x="654" y="483"/>
			<point x="587" y="483" type="curve" smooth="yes"/>
			<point x="543" y="483"/>
			<point x="485" y="455"/>
			<point x="418" y="401" type="curve"/>
			<point x="419" y="387" type="line"/>
			<point x="492" y="440"/>
			<point x="543" y="458"/>
			<point x="581" y="458" type="curve" smooth="yes"/>
			<point x="638" y="458"/>
			<point x="668" y="425"/>
			<point x="668" y="348" type="curve" smooth="yes"/>
			<point x="668" y="263"/>
			<point x="639" y="162"/>
			<point x="589" y="94" type="curve" smooth="yes"/>
			<point x="553" y="42"/>
			<point x="504" y="10"/>
			<point x="453" y="10" type="curve" smooth="yes"/>
			<point x="413" y="10"/>
			<point x="383" y="29"/>
			<point x="352" y="91" type="curve"/>
			<point x="345" y="76" type="line"/>
		</contour>
	</outline>
</glyph>
<glyph name="tse" format="2">
	<unicode hex="0446"/>
	<advance width="543"/>
	<outline>
		<contour>
			<point x="350" y="-245" type="line"/>
			<point x="415" y="-227"/>
			<point x="459" y="-194"/>
			<point x="468" y="-128" type="curve"/>
			<point x="472" y="-42" type="line"/>
			<point x="487" y="8"/>
			<point x="510" y="52"/>
			<point x="541" y="92" type="curve"/>
			<point x="529" y="89" type="line"/>
			<point x="478" y="22" type="line"/>
			<point x="482" y="19" type="line"/>
			<point x="445" y="-43" type="line"/>
			<point x="441" y="-131" type="line" smooth="yes"/>
			<point x="439" y="-181"/>
			<point x="406" y="-209"/>
			<point x="347" y="-231" type="curve"/>
		</contour>
		<component base="u"/>
	</outline>
	<anchor name="aboveLC" x="331" y="500"/>
</glyph>
<glyph name="che" format="2">
	<unicode hex="0447"/>
	<advance width="521"/>
	<outline>
		<contour>
			<point x="202" y="198" type="curve" smooth="yes"/>
			<point x="243" y="198"/>
			<point x="284" y="213"/>
			<point x="395" y="245" type="curve"/>
			<point x="398" y="260" type="line"/>
			<point x="281" y="232"/>
			<point x="243" y="225"/>
			<point x="209" y="225" type="curve" smooth="yes"/>
			<point x="174" y="225"/>
			<point x="155" y="245"/>
			<point x="155" y="272" type="curve" smooth="yes"/>
			<point x="155" y="303"/>
			<point x="168" y="356"/>
			<point x="192" y="473" type="curve"/>
			<point x="179" y="483" type="line"/>
			<point x="56" y="468" type="line"/>
			<point x="53" y="454" type="line"/>
			<point x="167" y="452" type="line"/>
			<point x="163" y="459" type="line"/>
			<point x="140" y="347"/>
			<point x="128" y="305"/>
			<point x="128" y="266" type="curve" smooth="yes"/>
			<point x="128" y="223"/>
			<point x="159" y="198"/>
		</contour>
		<contour>
			<point x="335" y="33" type="curve" smooth="yes"/>
			<point x="335" y="4"/>
			<point x="353" y="-13"/>
			<point x="380" y="-13" type="curve" smooth="yes"/>
			<point x="432" y="-13"/>
			<point x="476" y="32"/>
			<point x="518" y="92" type="curve"/>
			<point x="508" y="100" type="line"/>
			<point x="466" y="47"/>
			<point x="425" y="13"/>
			<point x="391" y="13" type="curve" smooth="yes"/>
			<point x="372" y="13"/>
			<point x="361" y="20"/>
			<point x="361" y="39" type="curve" smooth="yes"/>
			<point x="361" y="55"/>
			<point x="368" y="80"/>
			<point x="372" y="99" type="curve" smooth="yes"/>
			<point x="452" y="477" type="line"/>
			<point x="444" y="483" type="line"/>
			<point x="423" y="469" type="line"/>
			<point x="411" y="405"/>
			<point x="398" y="340"/>
			<point x="384" y="276" type="curve" smooth="yes"/>
			<point x="346" y="99" type="line" smooth="yes"/>
			<point x="339" y="68"/>
			<point x="335" y="54"/>
		</contour>
	</outline>
</glyph>
<glyph name="shcha" format="2">
	<unicode hex="0449"/>
	<advance width="769"/>
	<outline>
		<contour>
			<point x="568" y="-245" type="line"/>
			<point x="633" y="-227"/>
			<point x="677" y="-194"/>
			<point x="686" y="-128" type="curve" smooth="yes"/>
			<point x="696" y="-53" type="line" smooth="yes"/>
			<point x="703" y="-4"/>
			<point x="725" y="31"/>
			<point x="769" y="92" type="curve"/>
			<point x="757" y="89" type="line"/>
			<point x="706" y="22" type="line"/>
			<point x="710" y="19" type="line"/>
			<point x="678" y="-24"/>
			<point x="667" y="-55"/>
			<point x="664" y="-83" type="curve" smooth="yes"/>
			<point x="659" y="-131" type="line" smooth="yes"/>
			<point x="654" y="-181"/>
			<point x="624" y="-209"/>
			<point x="565" y="-231" type="curve"/>
		</contour>
		<component base="sha"/>
	</outline>
</glyph>
<glyph name="hard" format="1">
	<unicode hex="044A"/>
	<advance width="513"/>
	<outline>
		<contour>
			<point x="94" y="354" type="line"/>
			<point x="108" y="352" type="line"/>
			<point x="133" y="471" type="line"/>
			<point x="118" y="455" type="line"/>
			<point x="194" y="452"/>
			<point x="319" y="448"/>
			<point x="386" y="443" type="curve"/>
			<point x="415" y="461" type="line"/>
			<point x="339" y="471"/>
			<point x="209" y="477"/>
			<point x="132" y="483" type="curve"/>
			<point x="106" y="461" type="line"/>
		</contour>
		<contour>
			<point x="295" y="-13" type="curve" smooth="yes"/>
			<point x="399" y="-13"/>
			<point x="476" y="62"/>
			<point x="476" y="157" type="curve" smooth="yes"/>
			<point x="476" y="234"/>
			<point x="427" y="276"/>
			<point x="329" y="276" type="curve" smooth="yes"/>
			<point x="288" y="276"/>
			<point x="243" y="264"/>
			<point x="204" y="247" type="curve"/>
			<point x="202" y="233" type="line"/>
			<point x="234" y="245"/>
			<point x="284" y="255"/>
			<point x="327" y="255" type="curve" smooth="yes"/>
			<point x="403" y="255"/>
			<point x="448" y="224"/>
			<point x="448" y="156" type="curve" smooth="yes"/>
			<point x="448" y="61"/>
			<point x="380" y="7"/>
			<point x="301" y="7" type="curve" smooth="yes"/>
			<point x="231" y="7"/>
			<point x="183" y="33"/>
			<point x="183" y="119" type="curve" smooth="yes"/>
			<point x="183" y="224"/>
			<point x="250" y="319"/>
			<point x="437" y="469" type="curve"/>
			<point x="427" y="483" type="line"/>
			<point x="233" y="334"/>
			<point x="157" y="225"/>
			<point x="157" y="114" type="curve" smooth="yes"/>
			<point x="157" y="10"/>
			<point x="220" y="-13"/>
		</contour>
	</outline>
</glyph>
<glyph name="soft" format="1">
	<unicode hex="044C"/>
	<advance width="462"/>
	<outline>
		<contour>
			<point x="109" y="131" type="curve" smooth="yes"/>
			<point x="95" y="18"/>
			<point x="154" y="-13"/>
			<point x="240" y="-13" type="curve" smooth="yes"/>
			<point x="352" y="-13"/>
			<point x="427" y="71"/>
			<point x="427" y="155" type="curve" smooth="yes"/>
			<point x="427" y="236"/>
			<point x="380" y="276"/>
			<point x="280" y="276" type="curve" smooth="yes"/>
			<point x="241" y="276"/>
			<point x="194" y="265"/>
			<point x="144" y="240" type="curve"/>
			<point x="140" y="226" type="line"/>
			<point x="190" y="248"/>
			<point x="232" y="255"/>
			<point x="278" y="255" type="curve" smooth="yes"/>
			<point x="355" y="255"/>
			<point x="399" y="223"/>
			<point x="399" y="153" type="curve" smooth="yes"/>
			<point x="399" y="66"/>
			<point x="332" y="7"/>
			<point x="245" y="7" type="curve" smooth="yes"/>
			<point x="164" y="7"/>
			<point x="122" y="40"/>
			<point x="135" y="136" type="curve" smooth="yes"/>
			<point x="142" y="187"/>
			<point x="178" y="357"/>
			<point x="206" y="473" type="curve"/>
			<point x="193" y="483" type="line"/>
			<point x="53" y="468" type="line"/>
			<point x="50" y="454" type="line"/>
			<point x="177" y="452" type="line"/>
			<point x="176" y="459" type="line"/>
			<point x="153" y="358"/>
			<point x="116" y="188"/>
		</contour>
	</outline>
</glyph>
<glyph name="ecyr" format="2">
	<unicode hex="044D"/>
	<advance width="395"/>
	<outline>
		<contour>
			<point x="96" y="231" type="line"/>
			<point x="354" y="233" type="line"/>
			<point x="358" y="255" type="line"/>
			<point x="102" y="259" type="line"/>
		</contour>
		<contour>
			<point x="134" y="-13" type="curve" smooth="yes"/>
			<point x="269" y="-13"/>
			<point x="370" y="127"/>
			<point x="367" y="297" type="curve" smooth="yes"/>
			<point x="365" y="400"/>
			<point x="316" y="483"/>
			<point x="216" y="483" type="curve" smooth="yes"/>
			<point x="149" y="483"/>
			<point x="99" y="448"/>
			<point x="54" y="378" type="curve"/>
			<point x="65" y="370" type="line"/>
			<point x="109" y="429"/>
			<point x="153" y="463"/>
			<point x="209" y="463" type="curve" smooth="yes"/>
			<point x="286" y="463"/>
			<point x="339" y="410"/>
			<point x="339" y="288" type="curve" smooth="yes"/>
			<point x="339" y="135"/>
			<point x="241" y="7"/>
			<point x="137" y="7" type="curve" smooth="yes"/>
			<point x="103" y="7"/>
			<point x="80" y="13"/>
			<point x="55" y="29" type="curve"/>
			<point x="76" y="7" type="line"/>
			<point x="52" y="77" type="line" smooth="yes"/>
			<point x="48" y="89"/>
			<point x="41" y="93"/>
			<point x="30" y="93" type="curve" smooth="yes"/>
			<point x="20" y="93"/>
			<point x="13" y="84"/>
			<point x="11" y="73" type="curve"/>
			<point x="30" y="10"/>
			<point x="67" y="-13"/>
		</contour>
	</outline>
</glyph>
<glyph name="ya" format="2">
	<unicode hex="044F"/>
	<advance width="486"/>
	<outline>
		<contour>
			<point x="-11" y="0" type="line"/>
			<point x="2" y="-6"/>
			<point x="25" y="-10"/>
			<point x="47" y="-10" type="curve" smooth="yes"/>
			<point x="75" y="-10"/>
			<point x="90" y="-5"/>
			<point x="103" y="13" type="curve" smooth="yes"/>
			<point x="146" y="72"/>
			<point x="175" y="115"/>
			<point x="233" y="175" type="curve" smooth="yes"/>
			<point x="260" y="203"/>
			<point x="266" y="208"/>
			<point x="313" y="222" type="curve" smooth="yes"/>
			<point x="350" y="233" type="line"/>
			<point x="354" y="252" type="line"/>
			<point x="325" y="245"/>
			<point x="287" y="233"/>
			<point x="258" y="233" type="curve" smooth="yes"/>
			<point x="193" y="233"/>
			<point x="145" y="265"/>
			<point x="145" y="318" type="curve" smooth="yes"/>
			<point x="145" y="417"/>
			<point x="231" y="462"/>
			<point x="303" y="462" type="curve" smooth="yes"/>
			<point x="344" y="462"/>
			<point x="369" y="451"/>
			<point x="390" y="430" type="curve"/>
			<point x="385" y="449" type="line"/>
			<point x="374" y="391"/>
			<point x="362" y="334"/>
			<point x="349" y="276" type="curve" smooth="yes"/>
			<point x="311" y="99" type="line" smooth="yes"/>
			<point x="304" y="68"/>
			<point x="300" y="54"/>
			<point x="300" y="33" type="curve" smooth="yes"/>
			<point x="300" y="4"/>
			<point x="318" y="-13"/>
			<point x="345" y="-13" type="curve" smooth="yes"/>
			<point x="397" y="-13"/>
			<point x="441" y="32"/>
			<point x="483" y="92" type="curve"/>
			<point x="473" y="100" type="line"/>
			<point x="431" y="47"/>
			<point x="390" y="13"/>
			<point x="356" y="13" type="curve" smooth="yes"/>
			<point x="337" y="13"/>
			<point x="326" y="20"/>
			<point x="326" y="39" type="curve" smooth="yes"/>
			<point x="326" y="55"/>
			<point x="333" y="80"/>
			<point x="337" y="99" type="curve" smooth="yes"/>
			<point x="417" y="477" type="line"/>
			<point x="409" y="483" type="line"/>
			<point x="391" y="457" type="line"/>
			<point x="372" y="472"/>
			<point x="346" y="483"/>
			<point x="306" y="483" type="curve" smooth="yes"/>
			<point x="211" y="483"/>
			<point x="118" y="419"/>
			<point x="118" y="317" type="curve" smooth="yes"/>
			<point x="118" y="261"/>
			<point x="161" y="215"/>
			<point x="266" y="216" type="curve"/>
			<point x="270" y="223" type="line"/>
			<point x="249" y="215"/>
			<point x="231" y="203"/>
			<point x="203" y="172" type="curve" smooth="yes"/>
			<point x="154" y="116"/>
			<point x="121" y="76"/>
			<point x="65" y="4" type="curve"/>
			<point x="92" y="17" type="line"/>
			<point x="-8" y="14" type="line"/>
		</contour>
	</outline>
	<anchor name="aboveLC" x="309" y="500"/>
</glyph>
